<?xml version="1.0" encoding="UTF-8" standalone="no"?><svg xmlns="http://www.w3.org/2000/svg" xmlns:xlink="http://www.w3.org/1999/xlink" contentScriptType="application/ecmascript" contentStyleType="text/css" height="742px" preserveAspectRatio="none" style="width:1591px;height:742px;" version="1.1" viewBox="0 0 1591 742" width="1591px" zoomAndPan="magnify"><defs><filter height="300%" id="fhy0c8ytmtn1d" width="300%" x="-1" y="-1"><feGaussianBlur result="blurOut" stdDeviation="2.0"/><feColorMatrix in="blurOut" result="blurOut2" type="matrix" values="0 0 0 0 0 0 0 0 0 0 0 0 0 0 0 0 0 0 .4 0"/><feOffset dx="4.0" dy="4.0" in="blurOut2" result="blurOut3"/><feBlend in="SourceGraphic" in2="blurOut3" mode="normal"/></filter></defs><g><!--class Subscriber--><rect fill="#FEFECE" filter="url(#fhy0c8ytmtn1d)" height="144.8516" id="Subscriber" style="stroke: #A80036; stroke-width: 1.5;" width="186" x="6" y="349"/><ellipse cx="64.75" cy="365" fill="#ADD1B2" rx="11" ry="11" style="stroke: #A80036; stroke-width: 1.0;"/><path d="M67.5156,360.875 Q67.6719,360.6563 67.8594,360.5469 Q68.0469,360.4375 68.2656,360.4375 Q68.6406,360.4375 68.875,360.6953 Q69.1094,360.9531 69.1094,361.5625 L69.1094,363.0156 Q69.1094,363.625 68.875,363.8906 Q68.6406,364.1563 68.2656,364.1563 Q67.9219,364.1563 67.7188,363.9531 Q67.5156,363.7656 67.4063,363.25 Q67.3594,362.8906 67.1719,362.7031 Q66.8438,362.3281 66.2344,362.1094 Q65.625,361.8906 65,361.8906 Q64.2344,361.8906 63.6016,362.2188 Q62.9688,362.5469 62.4766,363.2969 Q61.9844,364.0469 61.9844,365.0781 L61.9844,366.1719 Q61.9844,367.4063 62.875,368.2266 Q63.7656,369.0469 65.3594,369.0469 Q66.2969,369.0469 66.9531,368.7969 Q67.3438,368.6406 67.7656,368.2031 Q68.0313,367.9375 68.1797,367.8594 Q68.3281,367.7813 68.5313,367.7813 Q68.8594,367.7813 69.1172,368.0391 Q69.375,368.2969 69.375,368.6406 Q69.375,368.9844 69.0313,369.3906 Q68.5313,369.9688 67.7344,370.2969 Q66.6563,370.75 65.3594,370.75 Q63.8438,370.75 62.6406,370.125 Q61.6563,369.625 60.9688,368.5547 Q60.2813,367.4844 60.2813,366.2031 L60.2813,365.0469 Q60.2813,363.7188 60.8984,362.5703 Q61.5156,361.4219 62.6094,360.8047 Q63.7031,360.1875 64.9375,360.1875 Q65.6719,360.1875 66.3203,360.3516 Q66.9688,360.5156 67.5156,360.875 Z "/><text fill="#000000" font-family="sans-serif" font-size="12" lengthAdjust="spacingAndGlyphs" textLength="60" x="85.25" y="369.9102">Subscriber</text><line style="stroke: #A80036; stroke-width: 1.5;" x1="7" x2="191" y1="381" y2="381"/><rect fill="none" height="6" style="stroke: #C82930; stroke-width: 1.0;" width="6" x="14" y="390.418"/><text fill="#000000" font-family="sans-serif" font-size="11" lengthAdjust="spacingAndGlyphs" textLength="46" x="26" y="396.4189">string URI</text><rect fill="none" height="6" style="stroke: #C82930; stroke-width: 1.0;" width="6" x="14" y="404.2539"/><text fill="#000000" font-family="sans-serif" font-size="11" lengthAdjust="spacingAndGlyphs" textLength="87" x="26" y="410.2549">string playerName</text><line style="stroke: #A80036; stroke-width: 1.5;" x1="7" x2="191" y1="416.6719" y2="416.6719"/><ellipse cx="17" cy="429.0898" fill="#84BE84" rx="3" ry="3" style="stroke: #038048; stroke-width: 1.0;"/><text fill="#000000" font-family="sans-serif" font-size="11" lengthAdjust="spacingAndGlyphs" textLength="71" x="26" y="432.0908">string GetURI()</text><ellipse cx="17" cy="442.9258" fill="#84BE84" rx="3" ry="3" style="stroke: #038048; stroke-width: 1.0;"/><text fill="#000000" font-family="sans-serif" font-size="11" lengthAdjust="spacingAndGlyphs" textLength="112" x="26" y="445.9268">string GetPlayerName()</text><ellipse cx="17" cy="456.7617" fill="#84BE84" rx="3" ry="3" style="stroke: #038048; stroke-width: 1.0;"/><text fill="#000000" font-family="sans-serif" font-size="11" lengthAdjust="spacingAndGlyphs" textLength="160" x="26" y="459.7627">CallbackClient GetCallbackClient()</text><ellipse cx="17" cy="470.5977" fill="#84BE84" rx="3" ry="3" style="stroke: #038048; stroke-width: 1.0;"/><text fill="#000000" font-family="sans-serif" font-size="11" lengthAdjust="spacingAndGlyphs" textLength="137" x="26" y="473.5986">void CallbackClientConnect()</text><ellipse cx="17" cy="484.4336" fill="#84BE84" rx="3" ry="3" style="stroke: #038048; stroke-width: 1.0;"/><text fill="#000000" font-family="sans-serif" font-size="11" lengthAdjust="spacingAndGlyphs" textLength="103" x="26" y="487.4346">bool PublishToClient()</text><!--class CallbackClient--><rect fill="#FEFECE" filter="url(#fhy0c8ytmtn1d)" height="61.8359" id="CallbackClient" style="stroke: #A80036; stroke-width: 1.5;" width="144" x="27" y="568"/><ellipse cx="56.4" cy="584" fill="#ADD1B2" rx="11" ry="11" style="stroke: #A80036; stroke-width: 1.0;"/><path d="M59.1656,579.875 Q59.3219,579.6563 59.5094,579.5469 Q59.6969,579.4375 59.9156,579.4375 Q60.2906,579.4375 60.525,579.6953 Q60.7594,579.9531 60.7594,580.5625 L60.7594,582.0156 Q60.7594,582.625 60.525,582.8906 Q60.2906,583.1563 59.9156,583.1563 Q59.5719,583.1563 59.3688,582.9531 Q59.1656,582.7656 59.0563,582.25 Q59.0094,581.8906 58.8219,581.7031 Q58.4938,581.3281 57.8844,581.1094 Q57.275,580.8906 56.65,580.8906 Q55.8844,580.8906 55.2516,581.2188 Q54.6188,581.5469 54.1266,582.2969 Q53.6344,583.0469 53.6344,584.0781 L53.6344,585.1719 Q53.6344,586.4063 54.525,587.2266 Q55.4156,588.0469 57.0094,588.0469 Q57.9469,588.0469 58.6031,587.7969 Q58.9938,587.6406 59.4156,587.2031 Q59.6813,586.9375 59.8297,586.8594 Q59.9781,586.7813 60.1813,586.7813 Q60.5094,586.7813 60.7672,587.0391 Q61.025,587.2969 61.025,587.6406 Q61.025,587.9844 60.6813,588.3906 Q60.1813,588.9688 59.3844,589.2969 Q58.3063,589.75 57.0094,589.75 Q55.4938,589.75 54.2906,589.125 Q53.3063,588.625 52.6188,587.5547 Q51.9313,586.4844 51.9313,585.2031 L51.9313,584.0469 Q51.9313,582.7188 52.5484,581.5703 Q53.1656,580.4219 54.2594,579.8047 Q55.3531,579.1875 56.5875,579.1875 Q57.3219,579.1875 57.9703,579.3516 Q58.6188,579.5156 59.1656,579.875 Z "/><text fill="#000000" font-family="sans-serif" font-size="12" lengthAdjust="spacingAndGlyphs" textLength="80" x="73.6" y="588.9102">CallbackClient</text><line style="stroke: #A80036; stroke-width: 1.5;" x1="28" x2="170" y1="600" y2="600"/><line style="stroke: #A80036; stroke-width: 1.5;" x1="28" x2="170" y1="608" y2="608"/><ellipse cx="38" cy="620.418" fill="#84BE84" rx="3" ry="3" style="stroke: #038048; stroke-width: 1.0;"/><text fill="#000000" font-family="sans-serif" font-size="11" lengthAdjust="spacingAndGlyphs" textLength="118" x="47" y="623.4189">bool GameStateUpdate()</text><!--class ComParent--><rect fill="#FEFECE" filter="url(#fhy0c8ytmtn1d)" height="61.8359" id="ComParent" style="stroke: #A80036; stroke-width: 1.5;" width="114" x="329" y="390.5"/><ellipse cx="352.55" cy="406.5" fill="#ADD1B2" rx="11" ry="11" style="stroke: #A80036; stroke-width: 1.0;"/><path d="M355.3156,402.375 Q355.4719,402.1563 355.6594,402.0469 Q355.8469,401.9375 356.0656,401.9375 Q356.4406,401.9375 356.675,402.1953 Q356.9094,402.4531 356.9094,403.0625 L356.9094,404.5156 Q356.9094,405.125 356.675,405.3906 Q356.4406,405.6563 356.0656,405.6563 Q355.7219,405.6563 355.5188,405.4531 Q355.3156,405.2656 355.2063,404.75 Q355.1594,404.3906 354.9719,404.2031 Q354.6438,403.8281 354.0344,403.6094 Q353.425,403.3906 352.8,403.3906 Q352.0344,403.3906 351.4016,403.7188 Q350.7688,404.0469 350.2766,404.7969 Q349.7844,405.5469 349.7844,406.5781 L349.7844,407.6719 Q349.7844,408.9063 350.675,409.7266 Q351.5656,410.5469 353.1594,410.5469 Q354.0969,410.5469 354.7531,410.2969 Q355.1438,410.1406 355.5656,409.7031 Q355.8313,409.4375 355.9797,409.3594 Q356.1281,409.2813 356.3313,409.2813 Q356.6594,409.2813 356.9172,409.5391 Q357.175,409.7969 357.175,410.1406 Q357.175,410.4844 356.8313,410.8906 Q356.3313,411.4688 355.5344,411.7969 Q354.4563,412.25 353.1594,412.25 Q351.6438,412.25 350.4406,411.625 Q349.4563,411.125 348.7688,410.0547 Q348.0813,408.9844 348.0813,407.7031 L348.0813,406.5469 Q348.0813,405.2188 348.6984,404.0703 Q349.3156,402.9219 350.4094,402.3047 Q351.5031,401.6875 352.7375,401.6875 Q353.4719,401.6875 354.1203,401.8516 Q354.7688,402.0156 355.3156,402.375 Z "/><text fill="#000000" font-family="sans-serif" font-size="12" lengthAdjust="spacingAndGlyphs" textLength="63" x="368.45" y="411.4102">ComParent</text><line style="stroke: #A80036; stroke-width: 1.5;" x1="330" x2="442" y1="422.5" y2="422.5"/><line style="stroke: #A80036; stroke-width: 1.5;" x1="330" x2="442" y1="430.5" y2="430.5"/><ellipse cx="340" cy="442.918" fill="#84BE84" rx="3" ry="3" style="stroke: #038048; stroke-width: 1.0;"/><text fill="#000000" font-family="sans-serif" font-size="11" lengthAdjust="spacingAndGlyphs" textLength="88" x="349" y="445.9189">bool PingService()</text><!--class PubSubService--><rect fill="#FEFECE" filter="url(#fhy0c8ytmtn1d)" height="158.6875" id="PubSubService" style="stroke: #A80036; stroke-width: 1.5;" width="201" x="1332.5" y="130"/><ellipse cx="1386.75" cy="146" fill="#ADD1B2" rx="11" ry="11" style="stroke: #A80036; stroke-width: 1.0;"/><path d="M1389.5156,141.875 Q1389.6719,141.6563 1389.8594,141.5469 Q1390.0469,141.4375 1390.2656,141.4375 Q1390.6406,141.4375 1390.875,141.6953 Q1391.1094,141.9531 1391.1094,142.5625 L1391.1094,144.0156 Q1391.1094,144.625 1390.875,144.8906 Q1390.6406,145.1563 1390.2656,145.1563 Q1389.9219,145.1563 1389.7188,144.9531 Q1389.5156,144.7656 1389.4063,144.25 Q1389.3594,143.8906 1389.1719,143.7031 Q1388.8438,143.3281 1388.2344,143.1094 Q1387.625,142.8906 1387,142.8906 Q1386.2344,142.8906 1385.6016,143.2188 Q1384.9688,143.5469 1384.4766,144.2969 Q1383.9844,145.0469 1383.9844,146.0781 L1383.9844,147.1719 Q1383.9844,148.4063 1384.875,149.2266 Q1385.7656,150.0469 1387.3594,150.0469 Q1388.2969,150.0469 1388.9531,149.7969 Q1389.3438,149.6406 1389.7656,149.2031 Q1390.0313,148.9375 1390.1797,148.8594 Q1390.3281,148.7813 1390.5313,148.7813 Q1390.8594,148.7813 1391.1172,149.0391 Q1391.375,149.2969 1391.375,149.6406 Q1391.375,149.9844 1391.0313,150.3906 Q1390.5313,150.9688 1389.7344,151.2969 Q1388.6563,151.75 1387.3594,151.75 Q1385.8438,151.75 1384.6406,151.125 Q1383.6563,150.625 1382.9688,149.5547 Q1382.2813,148.4844 1382.2813,147.2031 L1382.2813,146.0469 Q1382.2813,144.7188 1382.8984,143.5703 Q1383.5156,142.4219 1384.6094,141.8047 Q1385.7031,141.1875 1386.9375,141.1875 Q1387.6719,141.1875 1388.3203,141.3516 Q1388.9688,141.5156 1389.5156,141.875 Z "/><text fill="#000000" font-family="sans-serif" font-size="12" lengthAdjust="spacingAndGlyphs" textLength="84" x="1407.25" y="150.9102">PubSubService</text><line style="stroke: #A80036; stroke-width: 1.5;" x1="1333.5" x2="1532.5" y1="162" y2="162"/><rect fill="none" height="6" style="stroke: #C82930; stroke-width: 1.0;" width="6" x="1340.5" y="171.418"/><text fill="#000000" font-family="sans-serif" font-size="11" lengthAdjust="spacingAndGlyphs" textLength="129" x="1352.5" y="177.4189">List&lt;string&gt; clientChannels</text><rect fill="none" height="6" style="stroke: #C82930; stroke-width: 1.0;" width="6" x="1340.5" y="185.2539"/><text fill="#000000" font-family="sans-serif" font-size="11" lengthAdjust="spacingAndGlyphs" textLength="175" x="1352.5" y="191.2549">Dictionary&lt;string, List&lt;Subscriber&gt;&gt;</text><line style="stroke: #A80036; stroke-width: 1.5;" x1="1333.5" x2="1532.5" y1="197.6719" y2="197.6719"/><rect fill="#F24D5C" height="6" style="stroke: #C82930; stroke-width: 1.0;" width="6" x="1340.5" y="207.0898"/><text fill="#000000" font-family="sans-serif" font-size="11" lengthAdjust="spacingAndGlyphs" textLength="155" x="1352.5" y="213.0908">void AddSubscriberToChannel()</text><ellipse cx="1343.5" cy="223.9258" fill="#84BE84" rx="3" ry="3" style="stroke: #038048; stroke-width: 1.0;"/><text fill="#000000" font-family="sans-serif" font-size="11" lengthAdjust="spacingAndGlyphs" textLength="102" x="1352.5" y="226.9268">void CreateChannel()</text><ellipse cx="1343.5" cy="237.7617" fill="#84BE84" rx="3" ry="3" style="stroke: #038048; stroke-width: 1.0;"/><text fill="#000000" font-family="sans-serif" font-size="11" lengthAdjust="spacingAndGlyphs" textLength="80" x="1352.5" y="240.7627">bool Subscribe()</text><ellipse cx="1343.5" cy="251.5977" fill="#84BE84" rx="3" ry="3" style="stroke: #038048; stroke-width: 1.0;"/><text fill="#000000" font-family="sans-serif" font-size="11" lengthAdjust="spacingAndGlyphs" textLength="92" x="1352.5" y="254.5986">bool Unsubscribe()</text><ellipse cx="1343.5" cy="265.4336" fill="#84BE84" rx="3" ry="3" style="stroke: #038048; stroke-width: 1.0;"/><text fill="#000000" font-family="sans-serif" font-size="11" lengthAdjust="spacingAndGlyphs" textLength="152" x="1352.5" y="268.4346">bool PublishGameStateUpdate()</text><ellipse cx="1343.5" cy="279.2695" fill="#84BE84" rx="3" ry="3" style="stroke: #038048; stroke-width: 1.0;"/><text fill="#000000" font-family="sans-serif" font-size="11" lengthAdjust="spacingAndGlyphs" textLength="156" x="1352.5" y="282.2705">bool ProcessClientStateUpdate()</text><!--class GameStateManager--><rect fill="#FEFECE" filter="url(#fhy0c8ytmtn1d)" height="61.8359" id="GameStateManager" style="stroke: #A80036; stroke-width: 1.5;" width="182" x="1342" y="8"/><ellipse cx="1375" cy="24" fill="#ADD1B2" rx="11" ry="11" style="stroke: #A80036; stroke-width: 1.0;"/><path d="M1377.7656,19.875 Q1377.9219,19.6563 1378.1094,19.5469 Q1378.2969,19.4375 1378.5156,19.4375 Q1378.8906,19.4375 1379.125,19.6953 Q1379.3594,19.9531 1379.3594,20.5625 L1379.3594,22.0156 Q1379.3594,22.625 1379.125,22.8906 Q1378.8906,23.1563 1378.5156,23.1563 Q1378.1719,23.1563 1377.9688,22.9531 Q1377.7656,22.7656 1377.6563,22.25 Q1377.6094,21.8906 1377.4219,21.7031 Q1377.0938,21.3281 1376.4844,21.1094 Q1375.875,20.8906 1375.25,20.8906 Q1374.4844,20.8906 1373.8516,21.2188 Q1373.2188,21.5469 1372.7266,22.2969 Q1372.2344,23.0469 1372.2344,24.0781 L1372.2344,25.1719 Q1372.2344,26.4063 1373.125,27.2266 Q1374.0156,28.0469 1375.6094,28.0469 Q1376.5469,28.0469 1377.2031,27.7969 Q1377.5938,27.6406 1378.0156,27.2031 Q1378.2813,26.9375 1378.4297,26.8594 Q1378.5781,26.7813 1378.7813,26.7813 Q1379.1094,26.7813 1379.3672,27.0391 Q1379.625,27.2969 1379.625,27.6406 Q1379.625,27.9844 1379.2813,28.3906 Q1378.7813,28.9688 1377.9844,29.2969 Q1376.9063,29.75 1375.6094,29.75 Q1374.0938,29.75 1372.8906,29.125 Q1371.9063,28.625 1371.2188,27.5547 Q1370.5313,26.4844 1370.5313,25.2031 L1370.5313,24.0469 Q1370.5313,22.7188 1371.1484,21.5703 Q1371.7656,20.4219 1372.8594,19.8047 Q1373.9531,19.1875 1375.1875,19.1875 Q1375.9219,19.1875 1376.5703,19.3516 Q1377.2188,19.5156 1377.7656,19.875 Z "/><text fill="#000000" font-family="sans-serif" font-size="12" lengthAdjust="spacingAndGlyphs" textLength="110" x="1393" y="28.9102">GameStateManager</text><line style="stroke: #A80036; stroke-width: 1.5;" x1="1343" x2="1523" y1="40" y2="40"/><line style="stroke: #A80036; stroke-width: 1.5;" x1="1343" x2="1523" y1="48" y2="48"/><ellipse cx="1353" cy="60.418" fill="#84BE84" rx="3" ry="3" style="stroke: #038048; stroke-width: 1.0;"/><text fill="#000000" font-family="sans-serif" font-size="11" lengthAdjust="spacingAndGlyphs" textLength="156" x="1362" y="63.4189">bool ProcessClientStateUpdate()</text><!--class ComServiceServer--><rect fill="#FEFECE" filter="url(#fhy0c8ytmtn1d)" height="75.6719" id="ComServiceServer" style="stroke: #A80036; stroke-width: 1.5;" width="134" x="1355" y="383.5"/><ellipse cx="1370" cy="399.5" fill="#ADD1B2" rx="11" ry="11" style="stroke: #A80036; stroke-width: 1.0;"/><path d="M1372.7656,395.375 Q1372.9219,395.1563 1373.1094,395.0469 Q1373.2969,394.9375 1373.5156,394.9375 Q1373.8906,394.9375 1374.125,395.1953 Q1374.3594,395.4531 1374.3594,396.0625 L1374.3594,397.5156 Q1374.3594,398.125 1374.125,398.3906 Q1373.8906,398.6563 1373.5156,398.6563 Q1373.1719,398.6563 1372.9688,398.4531 Q1372.7656,398.2656 1372.6563,397.75 Q1372.6094,397.3906 1372.4219,397.2031 Q1372.0938,396.8281 1371.4844,396.6094 Q1370.875,396.3906 1370.25,396.3906 Q1369.4844,396.3906 1368.8516,396.7188 Q1368.2188,397.0469 1367.7266,397.7969 Q1367.2344,398.5469 1367.2344,399.5781 L1367.2344,400.6719 Q1367.2344,401.9063 1368.125,402.7266 Q1369.0156,403.5469 1370.6094,403.5469 Q1371.5469,403.5469 1372.2031,403.2969 Q1372.5938,403.1406 1373.0156,402.7031 Q1373.2813,402.4375 1373.4297,402.3594 Q1373.5781,402.2813 1373.7813,402.2813 Q1374.1094,402.2813 1374.3672,402.5391 Q1374.625,402.7969 1374.625,403.1406 Q1374.625,403.4844 1374.2813,403.8906 Q1373.7813,404.4688 1372.9844,404.7969 Q1371.9063,405.25 1370.6094,405.25 Q1369.0938,405.25 1367.8906,404.625 Q1366.9063,404.125 1366.2188,403.0547 Q1365.5313,401.9844 1365.5313,400.7031 L1365.5313,399.5469 Q1365.5313,398.2188 1366.1484,397.0703 Q1366.7656,395.9219 1367.8594,395.3047 Q1368.9531,394.6875 1370.1875,394.6875 Q1370.9219,394.6875 1371.5703,394.8516 Q1372.2188,395.0156 1372.7656,395.375 Z "/><text fill="#000000" font-family="sans-serif" font-size="12" lengthAdjust="spacingAndGlyphs" textLength="102" x="1384" y="404.4102">ComServiceServer</text><line style="stroke: #A80036; stroke-width: 1.5;" x1="1356" x2="1488" y1="415.5" y2="415.5"/><line style="stroke: #A80036; stroke-width: 1.5;" x1="1356" x2="1488" y1="423.5" y2="423.5"/><ellipse cx="1366" cy="435.918" fill="#84BE84" rx="3" ry="3" style="stroke: #038048; stroke-width: 1.0;"/><text fill="#000000" font-family="sans-serif" font-size="11" lengthAdjust="spacingAndGlyphs" textLength="91" x="1375" y="438.9189">void StartService()</text><ellipse cx="1366" cy="449.7539" fill="#84BE84" rx="3" ry="3" style="stroke: #038048; stroke-width: 1.0;"/><text fill="#000000" font-family="sans-serif" font-size="11" lengthAdjust="spacingAndGlyphs" textLength="90" x="1375" y="452.7549">void StopService()</text><!--class ClientStateManager--><rect fill="#FEFECE" filter="url(#fhy0c8ytmtn1d)" height="75.6719" id="ClientStateManager" style="stroke: #A80036; stroke-width: 1.5;" width="140" x="683" y="171.5"/><ellipse cx="698" cy="187.5" fill="#ADD1B2" rx="11" ry="11" style="stroke: #A80036; stroke-width: 1.0;"/><path d="M700.7656,183.375 Q700.9219,183.1563 701.1094,183.0469 Q701.2969,182.9375 701.5156,182.9375 Q701.8906,182.9375 702.125,183.1953 Q702.3594,183.4531 702.3594,184.0625 L702.3594,185.5156 Q702.3594,186.125 702.125,186.3906 Q701.8906,186.6563 701.5156,186.6563 Q701.1719,186.6563 700.9688,186.4531 Q700.7656,186.2656 700.6563,185.75 Q700.6094,185.3906 700.4219,185.2031 Q700.0938,184.8281 699.4844,184.6094 Q698.875,184.3906 698.25,184.3906 Q697.4844,184.3906 696.8516,184.7188 Q696.2188,185.0469 695.7266,185.7969 Q695.2344,186.5469 695.2344,187.5781 L695.2344,188.6719 Q695.2344,189.9063 696.125,190.7266 Q697.0156,191.5469 698.6094,191.5469 Q699.5469,191.5469 700.2031,191.2969 Q700.5938,191.1406 701.0156,190.7031 Q701.2813,190.4375 701.4297,190.3594 Q701.5781,190.2813 701.7813,190.2813 Q702.1094,190.2813 702.3672,190.5391 Q702.625,190.7969 702.625,191.1406 Q702.625,191.4844 702.2813,191.8906 Q701.7813,192.4688 700.9844,192.7969 Q699.9063,193.25 698.6094,193.25 Q697.0938,193.25 695.8906,192.625 Q694.9063,192.125 694.2188,191.0547 Q693.5313,189.9844 693.5313,188.7031 L693.5313,187.5469 Q693.5313,186.2188 694.1484,185.0703 Q694.7656,183.9219 695.8594,183.3047 Q696.9531,182.6875 698.1875,182.6875 Q698.9219,182.6875 699.5703,182.8516 Q700.2188,183.0156 700.7656,183.375 Z "/><text fill="#000000" font-family="sans-serif" font-size="12" lengthAdjust="spacingAndGlyphs" textLength="108" x="712" y="192.4102">ClientStateManager</text><line style="stroke: #A80036; stroke-width: 1.5;" x1="684" x2="822" y1="203.5" y2="203.5"/><line style="stroke: #A80036; stroke-width: 1.5;" x1="684" x2="822" y1="211.5" y2="211.5"/><ellipse cx="694" cy="223.918" fill="#84BE84" rx="3" ry="3" style="stroke: #038048; stroke-width: 1.0;"/><text fill="#000000" font-family="sans-serif" font-size="11" lengthAdjust="spacingAndGlyphs" textLength="78" x="703" y="226.9189">void JoinGame()</text><ellipse cx="694" cy="237.7539" fill="#84BE84" rx="3" ry="3" style="stroke: #038048; stroke-width: 1.0;"/><text fill="#000000" font-family="sans-serif" font-size="11" lengthAdjust="spacingAndGlyphs" textLength="101" x="703" y="240.7549">bool SendDeckSize()</text><!--class PubSubClient--><rect fill="#FEFECE" filter="url(#fhy0c8ytmtn1d)" height="103.3438" id="PubSubClient" style="stroke: #A80036; stroke-width: 1.5;" width="167" x="588.5" y="370"/><ellipse cx="630.05" cy="386" fill="#ADD1B2" rx="11" ry="11" style="stroke: #A80036; stroke-width: 1.0;"/><path d="M632.8156,381.875 Q632.9719,381.6563 633.1594,381.5469 Q633.3469,381.4375 633.5656,381.4375 Q633.9406,381.4375 634.175,381.6953 Q634.4094,381.9531 634.4094,382.5625 L634.4094,384.0156 Q634.4094,384.625 634.175,384.8906 Q633.9406,385.1563 633.5656,385.1563 Q633.2219,385.1563 633.0188,384.9531 Q632.8156,384.7656 632.7063,384.25 Q632.6594,383.8906 632.4719,383.7031 Q632.1438,383.3281 631.5344,383.1094 Q630.925,382.8906 630.3,382.8906 Q629.5344,382.8906 628.9016,383.2188 Q628.2688,383.5469 627.7766,384.2969 Q627.2844,385.0469 627.2844,386.0781 L627.2844,387.1719 Q627.2844,388.4063 628.175,389.2266 Q629.0656,390.0469 630.6594,390.0469 Q631.5969,390.0469 632.2531,389.7969 Q632.6438,389.6406 633.0656,389.2031 Q633.3313,388.9375 633.4797,388.8594 Q633.6281,388.7813 633.8313,388.7813 Q634.1594,388.7813 634.4172,389.0391 Q634.675,389.2969 634.675,389.6406 Q634.675,389.9844 634.3313,390.3906 Q633.8313,390.9688 633.0344,391.2969 Q631.9563,391.75 630.6594,391.75 Q629.1438,391.75 627.9406,391.125 Q626.9563,390.625 626.2688,389.5547 Q625.5813,388.4844 625.5813,387.2031 L625.5813,386.0469 Q625.5813,384.7188 626.1984,383.5703 Q626.8156,382.4219 627.9094,381.8047 Q629.0031,381.1875 630.2375,381.1875 Q630.9719,381.1875 631.6203,381.3516 Q632.2688,381.5156 632.8156,381.875 Z "/><text fill="#000000" font-family="sans-serif" font-size="12" lengthAdjust="spacingAndGlyphs" textLength="76" x="649.95" y="390.9102">PubSubClient</text><line style="stroke: #A80036; stroke-width: 1.5;" x1="589.5" x2="754.5" y1="402" y2="402"/><line style="stroke: #A80036; stroke-width: 1.5;" x1="589.5" x2="754.5" y1="410" y2="410"/><ellipse cx="599.5" cy="422.418" fill="#84BE84" rx="3" ry="3" style="stroke: #038048; stroke-width: 1.0;"/><text fill="#000000" font-family="sans-serif" font-size="11" lengthAdjust="spacingAndGlyphs" textLength="97" x="608.5" y="425.4189">bool ClientConnect()</text><ellipse cx="599.5" cy="436.2539" fill="#84BE84" rx="3" ry="3" style="stroke: #038048; stroke-width: 1.0;"/><text fill="#000000" font-family="sans-serif" font-size="11" lengthAdjust="spacingAndGlyphs" textLength="80" x="608.5" y="439.2549">bool Subscribe()</text><ellipse cx="599.5" cy="450.0898" fill="#84BE84" rx="3" ry="3" style="stroke: #038048; stroke-width: 1.0;"/><text fill="#000000" font-family="sans-serif" font-size="11" lengthAdjust="spacingAndGlyphs" textLength="92" x="608.5" y="453.0908">bool Unsubscribe()</text><ellipse cx="599.5" cy="463.9258" fill="#84BE84" rx="3" ry="3" style="stroke: #038048; stroke-width: 1.0;"/><text fill="#000000" font-family="sans-serif" font-size="11" lengthAdjust="spacingAndGlyphs" textLength="141" x="608.5" y="466.9268">bool SendClientStateUpdate()</text><!--class ComClient--><rect fill="#FEFECE" filter="url(#fhy0c8ytmtn1d)" height="75.6719" id="ComClient" style="stroke: #A80036; stroke-width: 1.5;" width="142" x="601" y="561"/><ellipse cx="638.95" cy="577" fill="#ADD1B2" rx="11" ry="11" style="stroke: #A80036; stroke-width: 1.0;"/><path d="M641.7156,572.875 Q641.8719,572.6563 642.0594,572.5469 Q642.2469,572.4375 642.4656,572.4375 Q642.8406,572.4375 643.075,572.6953 Q643.3094,572.9531 643.3094,573.5625 L643.3094,575.0156 Q643.3094,575.625 643.075,575.8906 Q642.8406,576.1563 642.4656,576.1563 Q642.1219,576.1563 641.9188,575.9531 Q641.7156,575.7656 641.6063,575.25 Q641.5594,574.8906 641.3719,574.7031 Q641.0438,574.3281 640.4344,574.1094 Q639.825,573.8906 639.2,573.8906 Q638.4344,573.8906 637.8016,574.2188 Q637.1688,574.5469 636.6766,575.2969 Q636.1844,576.0469 636.1844,577.0781 L636.1844,578.1719 Q636.1844,579.4063 637.075,580.2266 Q637.9656,581.0469 639.5594,581.0469 Q640.4969,581.0469 641.1531,580.7969 Q641.5438,580.6406 641.9656,580.2031 Q642.2313,579.9375 642.3797,579.8594 Q642.5281,579.7813 642.7313,579.7813 Q643.0594,579.7813 643.3172,580.0391 Q643.575,580.2969 643.575,580.6406 Q643.575,580.9844 643.2313,581.3906 Q642.7313,581.9688 641.9344,582.2969 Q640.8563,582.75 639.5594,582.75 Q638.0438,582.75 636.8406,582.125 Q635.8563,581.625 635.1688,580.5547 Q634.4813,579.4844 634.4813,578.2031 L634.4813,577.0469 Q634.4813,575.7188 635.0984,574.5703 Q635.7156,573.4219 636.8094,572.8047 Q637.9031,572.1875 639.1375,572.1875 Q639.8719,572.1875 640.5203,572.3516 Q641.1688,572.5156 641.7156,572.875 Z "/><text fill="#000000" font-family="sans-serif" font-size="12" lengthAdjust="spacingAndGlyphs" textLength="59" x="658.05" y="581.9102">ComClient</text><line style="stroke: #A80036; stroke-width: 1.5;" x1="602" x2="742" y1="593" y2="593"/><line style="stroke: #A80036; stroke-width: 1.5;" x1="602" x2="742" y1="601" y2="601"/><ellipse cx="612" cy="613.418" fill="#84BE84" rx="3" ry="3" style="stroke: #038048; stroke-width: 1.0;"/><text fill="#000000" font-family="sans-serif" font-size="11" lengthAdjust="spacingAndGlyphs" textLength="80" x="621" y="616.4189">bool Subscribe()</text><ellipse cx="612" cy="627.2539" fill="#84BE84" rx="3" ry="3" style="stroke: #038048; stroke-width: 1.0;"/><text fill="#000000" font-family="sans-serif" font-size="11" lengthAdjust="spacingAndGlyphs" textLength="116" x="621" y="630.2549">bool ClientStateUpdate()</text><!--class CallbackServiceServer--><rect fill="#FEFECE" filter="url(#fhy0c8ytmtn1d)" height="89.5078" id="CallbackServiceServer" style="stroke: #A80036; stroke-width: 1.5;" width="196" x="791" y="376.5"/><ellipse cx="824.45" cy="392.5" fill="#ADD1B2" rx="11" ry="11" style="stroke: #A80036; stroke-width: 1.0;"/><path d="M827.2156,388.375 Q827.3719,388.1563 827.5594,388.0469 Q827.7469,387.9375 827.9656,387.9375 Q828.3406,387.9375 828.575,388.1953 Q828.8094,388.4531 828.8094,389.0625 L828.8094,390.5156 Q828.8094,391.125 828.575,391.3906 Q828.3406,391.6563 827.9656,391.6563 Q827.6219,391.6563 827.4188,391.4531 Q827.2156,391.2656 827.1063,390.75 Q827.0594,390.3906 826.8719,390.2031 Q826.5438,389.8281 825.9344,389.6094 Q825.325,389.3906 824.7,389.3906 Q823.9344,389.3906 823.3016,389.7188 Q822.6688,390.0469 822.1766,390.7969 Q821.6844,391.5469 821.6844,392.5781 L821.6844,393.6719 Q821.6844,394.9063 822.575,395.7266 Q823.4656,396.5469 825.0594,396.5469 Q825.9969,396.5469 826.6531,396.2969 Q827.0438,396.1406 827.4656,395.7031 Q827.7313,395.4375 827.8797,395.3594 Q828.0281,395.2813 828.2313,395.2813 Q828.5594,395.2813 828.8172,395.5391 Q829.075,395.7969 829.075,396.1406 Q829.075,396.4844 828.7313,396.8906 Q828.2313,397.4688 827.4344,397.7969 Q826.3563,398.25 825.0594,398.25 Q823.5438,398.25 822.3406,397.625 Q821.3563,397.125 820.6688,396.0547 Q819.9813,394.9844 819.9813,393.7031 L819.9813,392.5469 Q819.9813,391.2188 820.5984,390.0703 Q821.2156,388.9219 822.3094,388.3047 Q823.4031,387.6875 824.6375,387.6875 Q825.3719,387.6875 826.0203,387.8516 Q826.6688,388.0156 827.2156,388.375 Z "/><text fill="#000000" font-family="sans-serif" font-size="12" lengthAdjust="spacingAndGlyphs" textLength="123" x="842.55" y="397.4102">CallbackServiceServer</text><line style="stroke: #A80036; stroke-width: 1.5;" x1="792" x2="986" y1="408.5" y2="408.5"/><line style="stroke: #A80036; stroke-width: 1.5;" x1="792" x2="986" y1="416.5" y2="416.5"/><ellipse cx="802" cy="428.918" fill="#84BE84" rx="3" ry="3" style="stroke: #038048; stroke-width: 1.0;"/><text fill="#000000" font-family="sans-serif" font-size="11" lengthAdjust="spacingAndGlyphs" textLength="91" x="811" y="431.9189">void StartService()</text><ellipse cx="802" cy="442.7539" fill="#84BE84" rx="3" ry="3" style="stroke: #038048; stroke-width: 1.0;"/><text fill="#000000" font-family="sans-serif" font-size="11" lengthAdjust="spacingAndGlyphs" textLength="90" x="811" y="445.7549">void StopService()</text><ellipse cx="802" cy="456.5898" fill="#84BE84" rx="3" ry="3" style="stroke: #038048; stroke-width: 1.0;"/><text fill="#000000" font-family="sans-serif" font-size="11" lengthAdjust="spacingAndGlyphs" textLength="170" x="811" y="459.5908">bool UpdateClientGameStateView()</text><!--class CallbackService--><rect fill="#FEFECE" filter="url(#fhy0c8ytmtn1d)" height="61.8359" id="CallbackService" style="stroke: #A80036; stroke-width: 1.5;" width="365" x="821.5" y="568"/><ellipse cx="955.75" cy="584" fill="#ADD1B2" rx="11" ry="11" style="stroke: #A80036; stroke-width: 1.0;"/><path d="M958.5156,579.875 Q958.6719,579.6563 958.8594,579.5469 Q959.0469,579.4375 959.2656,579.4375 Q959.6406,579.4375 959.875,579.6953 Q960.1094,579.9531 960.1094,580.5625 L960.1094,582.0156 Q960.1094,582.625 959.875,582.8906 Q959.6406,583.1563 959.2656,583.1563 Q958.9219,583.1563 958.7188,582.9531 Q958.5156,582.7656 958.4063,582.25 Q958.3594,581.8906 958.1719,581.7031 Q957.8438,581.3281 957.2344,581.1094 Q956.625,580.8906 956,580.8906 Q955.2344,580.8906 954.6016,581.2188 Q953.9688,581.5469 953.4766,582.2969 Q952.9844,583.0469 952.9844,584.0781 L952.9844,585.1719 Q952.9844,586.4063 953.875,587.2266 Q954.7656,588.0469 956.3594,588.0469 Q957.2969,588.0469 957.9531,587.7969 Q958.3438,587.6406 958.7656,587.2031 Q959.0313,586.9375 959.1797,586.8594 Q959.3281,586.7813 959.5313,586.7813 Q959.8594,586.7813 960.1172,587.0391 Q960.375,587.2969 960.375,587.6406 Q960.375,587.9844 960.0313,588.3906 Q959.5313,588.9688 958.7344,589.2969 Q957.6563,589.75 956.3594,589.75 Q954.8438,589.75 953.6406,589.125 Q952.6563,588.625 951.9688,587.5547 Q951.2813,586.4844 951.2813,585.2031 L951.2813,584.0469 Q951.2813,582.7188 951.8984,581.5703 Q952.5156,580.4219 953.6094,579.8047 Q954.7031,579.1875 955.9375,579.1875 Q956.6719,579.1875 957.3203,579.3516 Q957.9688,579.5156 958.5156,579.875 Z "/><text fill="#000000" font-family="sans-serif" font-size="12" lengthAdjust="spacingAndGlyphs" textLength="88" x="976.25" y="588.9102">CallbackService</text><line style="stroke: #A80036; stroke-width: 1.5;" x1="822.5" x2="1185.5" y1="600" y2="600"/><line style="stroke: #A80036; stroke-width: 1.5;" x1="822.5" x2="1185.5" y1="608" y2="608"/><ellipse cx="832.5" cy="620.418" fill="#84BE84" rx="3" ry="3" style="stroke: #038048; stroke-width: 1.0;"/><text fill="#000000" font-family="sans-serif" font-size="11" lengthAdjust="spacingAndGlyphs" textLength="339" x="841.5" y="623.4189">GameStateUpdateReply GameStateUpdate(GameStateUpdateRequest)</text><!--class ComServiceParent--><rect fill="#FEFECE" filter="url(#fhy0c8ytmtn1d)" height="61.8359" id="ComServiceParent" style="stroke: #A80036; stroke-width: 1.5;" width="201" x="1022.5" y="390.5"/><ellipse cx="1067.25" cy="406.5" fill="#ADD1B2" rx="11" ry="11" style="stroke: #A80036; stroke-width: 1.0;"/><path d="M1070.0156,402.375 Q1070.1719,402.1563 1070.3594,402.0469 Q1070.5469,401.9375 1070.7656,401.9375 Q1071.1406,401.9375 1071.375,402.1953 Q1071.6094,402.4531 1071.6094,403.0625 L1071.6094,404.5156 Q1071.6094,405.125 1071.375,405.3906 Q1071.1406,405.6563 1070.7656,405.6563 Q1070.4219,405.6563 1070.2188,405.4531 Q1070.0156,405.2656 1069.9063,404.75 Q1069.8594,404.3906 1069.6719,404.2031 Q1069.3438,403.8281 1068.7344,403.6094 Q1068.125,403.3906 1067.5,403.3906 Q1066.7344,403.3906 1066.1016,403.7188 Q1065.4688,404.0469 1064.9766,404.7969 Q1064.4844,405.5469 1064.4844,406.5781 L1064.4844,407.6719 Q1064.4844,408.9063 1065.375,409.7266 Q1066.2656,410.5469 1067.8594,410.5469 Q1068.7969,410.5469 1069.4531,410.2969 Q1069.8438,410.1406 1070.2656,409.7031 Q1070.5313,409.4375 1070.6797,409.3594 Q1070.8281,409.2813 1071.0313,409.2813 Q1071.3594,409.2813 1071.6172,409.5391 Q1071.875,409.7969 1071.875,410.1406 Q1071.875,410.4844 1071.5313,410.8906 Q1071.0313,411.4688 1070.2344,411.7969 Q1069.1563,412.25 1067.8594,412.25 Q1066.3438,412.25 1065.1406,411.625 Q1064.1563,411.125 1063.4688,410.0547 Q1062.7813,408.9844 1062.7813,407.7031 L1062.7813,406.5469 Q1062.7813,405.2188 1063.3984,404.0703 Q1064.0156,402.9219 1065.1094,402.3047 Q1066.2031,401.6875 1067.4375,401.6875 Q1068.1719,401.6875 1068.8203,401.8516 Q1069.4688,402.0156 1070.0156,402.375 Z "/><text fill="#000000" font-family="sans-serif" font-size="12" lengthAdjust="spacingAndGlyphs" textLength="103" x="1087.75" y="411.4102">ComServiceParent</text><line style="stroke: #A80036; stroke-width: 1.5;" x1="1023.5" x2="1222.5" y1="422.5" y2="422.5"/><line style="stroke: #A80036; stroke-width: 1.5;" x1="1023.5" x2="1222.5" y1="430.5" y2="430.5"/><ellipse cx="1033.5" cy="442.918" fill="#84BE84" rx="3" ry="3" style="stroke: #038048; stroke-width: 1.0;"/><text fill="#000000" font-family="sans-serif" font-size="11" lengthAdjust="spacingAndGlyphs" textLength="175" x="1042.5" y="445.9189">PingReply PingService(PingRequest)</text><!--class NetworkServiceBase--><rect fill="#FEFECE" filter="url(#fhy0c8ytmtn1d)" height="89.5078" id="NetworkServiceBase" style="stroke: #A80036; stroke-width: 1.5;" width="370" x="927" y="164.5"/><ellipse cx="1050.75" cy="180.5" fill="#ADD1B2" rx="11" ry="11" style="stroke: #A80036; stroke-width: 1.0;"/><path d="M1053.5156,176.375 Q1053.6719,176.1563 1053.8594,176.0469 Q1054.0469,175.9375 1054.2656,175.9375 Q1054.6406,175.9375 1054.875,176.1953 Q1055.1094,176.4531 1055.1094,177.0625 L1055.1094,178.5156 Q1055.1094,179.125 1054.875,179.3906 Q1054.6406,179.6563 1054.2656,179.6563 Q1053.9219,179.6563 1053.7188,179.4531 Q1053.5156,179.2656 1053.4063,178.75 Q1053.3594,178.3906 1053.1719,178.2031 Q1052.8438,177.8281 1052.2344,177.6094 Q1051.625,177.3906 1051,177.3906 Q1050.2344,177.3906 1049.6016,177.7188 Q1048.9688,178.0469 1048.4766,178.7969 Q1047.9844,179.5469 1047.9844,180.5781 L1047.9844,181.6719 Q1047.9844,182.9063 1048.875,183.7266 Q1049.7656,184.5469 1051.3594,184.5469 Q1052.2969,184.5469 1052.9531,184.2969 Q1053.3438,184.1406 1053.7656,183.7031 Q1054.0313,183.4375 1054.1797,183.3594 Q1054.3281,183.2813 1054.5313,183.2813 Q1054.8594,183.2813 1055.1172,183.5391 Q1055.375,183.7969 1055.375,184.1406 Q1055.375,184.4844 1055.0313,184.8906 Q1054.5313,185.4688 1053.7344,185.7969 Q1052.6563,186.25 1051.3594,186.25 Q1049.8438,186.25 1048.6406,185.625 Q1047.6563,185.125 1046.9688,184.0547 Q1046.2813,182.9844 1046.2813,181.7031 L1046.2813,180.5469 Q1046.2813,179.2188 1046.8984,178.0703 Q1047.5156,176.9219 1048.6094,176.3047 Q1049.7031,175.6875 1050.9375,175.6875 Q1051.6719,175.6875 1052.3203,175.8516 Q1052.9688,176.0156 1053.5156,176.375 Z "/><text fill="#000000" font-family="sans-serif" font-size="12" lengthAdjust="spacingAndGlyphs" textLength="114" x="1071.25" y="185.4102">NetworkServiceBase</text><line style="stroke: #A80036; stroke-width: 1.5;" x1="928" x2="1296" y1="196.5" y2="196.5"/><line style="stroke: #A80036; stroke-width: 1.5;" x1="928" x2="1296" y1="204.5" y2="204.5"/><ellipse cx="938" cy="216.918" fill="#84BE84" rx="3" ry="3" style="stroke: #038048; stroke-width: 1.0;"/><text fill="#000000" font-family="sans-serif" font-size="11" font-style="italic" lengthAdjust="spacingAndGlyphs" textLength="183" x="947" y="219.9189">PingReply PingService(PingRequest)</text><ellipse cx="938" cy="230.7539" fill="#84BE84" rx="3" ry="3" style="stroke: #038048; stroke-width: 1.0;"/><text fill="#000000" font-family="sans-serif" font-size="11" font-style="italic" lengthAdjust="spacingAndGlyphs" textLength="236" x="947" y="233.7549">SubscribeReply Subscribe(SubscribeRequest)</text><ellipse cx="938" cy="244.5898" fill="#84BE84" rx="3" ry="3" style="stroke: #038048; stroke-width: 1.0;"/><text fill="#000000" font-family="sans-serif" font-size="11" font-style="italic" lengthAdjust="spacingAndGlyphs" textLength="344" x="947" y="247.5908">ClientStateUpdateReply ClientStateUpdate(ClientStateUpdateRequest)</text><path d="M284,704 L284,730.3516 L488,730.3516 L488,714 L478,704 L284,704 " fill="#FBFB77" filter="url(#fhy0c8ytmtn1d)" style="stroke: #A80036; stroke-width: 1.0;"/><path d="M478,704 L478,714 L488,714 L478,704 " fill="#FBFB77" style="stroke: #A80036; stroke-width: 1.0;"/><text fill="#000000" font-family="sans-serif" font-size="13" lengthAdjust="spacingAndGlyphs" textLength="183" x="290" y="722.4951">Implements stubs for RPC calls</text><!--class NetworkServiceClient--><rect fill="#FEFECE" filter="url(#fhy0c8ytmtn1d)" height="89.5078" id="NetworkServiceClient" style="stroke: #A80036; stroke-width: 1.5;" width="359" x="206.5" y="554"/><ellipse cx="323.25" cy="570" fill="#ADD1B2" rx="11" ry="11" style="stroke: #A80036; stroke-width: 1.0;"/><path d="M326.0156,565.875 Q326.1719,565.6563 326.3594,565.5469 Q326.5469,565.4375 326.7656,565.4375 Q327.1406,565.4375 327.375,565.6953 Q327.6094,565.9531 327.6094,566.5625 L327.6094,568.0156 Q327.6094,568.625 327.375,568.8906 Q327.1406,569.1563 326.7656,569.1563 Q326.4219,569.1563 326.2188,568.9531 Q326.0156,568.7656 325.9063,568.25 Q325.8594,567.8906 325.6719,567.7031 Q325.3438,567.3281 324.7344,567.1094 Q324.125,566.8906 323.5,566.8906 Q322.7344,566.8906 322.1016,567.2188 Q321.4688,567.5469 320.9766,568.2969 Q320.4844,569.0469 320.4844,570.0781 L320.4844,571.1719 Q320.4844,572.4063 321.375,573.2266 Q322.2656,574.0469 323.8594,574.0469 Q324.7969,574.0469 325.4531,573.7969 Q325.8438,573.6406 326.2656,573.2031 Q326.5313,572.9375 326.6797,572.8594 Q326.8281,572.7813 327.0313,572.7813 Q327.3594,572.7813 327.6172,573.0391 Q327.875,573.2969 327.875,573.6406 Q327.875,573.9844 327.5313,574.3906 Q327.0313,574.9688 326.2344,575.2969 Q325.1563,575.75 323.8594,575.75 Q322.3438,575.75 321.1406,575.125 Q320.1563,574.625 319.4688,573.5547 Q318.7813,572.4844 318.7813,571.2031 L318.7813,570.0469 Q318.7813,568.7188 319.3984,567.5703 Q320.0156,566.4219 321.1094,565.8047 Q322.2031,565.1875 323.4375,565.1875 Q324.1719,565.1875 324.8203,565.3516 Q325.4688,565.5156 326.0156,565.875 Z "/><text fill="#000000" font-family="sans-serif" font-size="12" lengthAdjust="spacingAndGlyphs" textLength="117" x="343.75" y="574.9102">NetworkServiceClient</text><line style="stroke: #A80036; stroke-width: 1.5;" x1="207.5" x2="564.5" y1="586" y2="586"/><line style="stroke: #A80036; stroke-width: 1.5;" x1="207.5" x2="564.5" y1="594" y2="594"/><ellipse cx="217.5" cy="606.418" fill="#84BE84" rx="3" ry="3" style="stroke: #038048; stroke-width: 1.0;"/><text fill="#000000" font-family="sans-serif" font-size="11" lengthAdjust="spacingAndGlyphs" textLength="175" x="226.5" y="609.4189">PingReply PingService(PingRequest)</text><ellipse cx="217.5" cy="620.2539" fill="#84BE84" rx="3" ry="3" style="stroke: #038048; stroke-width: 1.0;"/><text fill="#000000" font-family="sans-serif" font-size="11" lengthAdjust="spacingAndGlyphs" textLength="225" x="226.5" y="623.2549">SubscribeReply Subscribe(SubscribeRequest)</text><ellipse cx="217.5" cy="634.0898" fill="#84BE84" rx="3" ry="3" style="stroke: #038048; stroke-width: 1.0;"/><text fill="#000000" font-family="sans-serif" font-size="11" lengthAdjust="spacingAndGlyphs" textLength="333" x="226.5" y="637.0908">ClientStateUpdateReply ClientStateUpdate(ClientStateUpdateRequest)</text><path d="M1022.5,704 L1022.5,730.3516 L1381.5,730.3516 L1381.5,714 L1371.5,704 L1022.5,704 " fill="#FBFB77" filter="url(#fhy0c8ytmtn1d)" style="stroke: #A80036; stroke-width: 1.0;"/><path d="M1371.5,704 L1371.5,714 L1381.5,714 L1371.5,704 " fill="#FBFB77" style="stroke: #A80036; stroke-width: 1.0;"/><text fill="#000000" font-family="sans-serif" font-size="13" lengthAdjust="spacingAndGlyphs" textLength="338" x="1028.5" y="722.4951">Implements only those RPC calls supported by the service</text><!--class ComService--><rect fill="#FEFECE" filter="url(#fhy0c8ytmtn1d)" height="75.6719" id="ComService" style="stroke: #A80036; stroke-width: 1.5;" width="359" x="1221.5" y="561"/><ellipse cx="1363.25" cy="577" fill="#ADD1B2" rx="11" ry="11" style="stroke: #A80036; stroke-width: 1.0;"/><path d="M1366.0156,572.875 Q1366.1719,572.6563 1366.3594,572.5469 Q1366.5469,572.4375 1366.7656,572.4375 Q1367.1406,572.4375 1367.375,572.6953 Q1367.6094,572.9531 1367.6094,573.5625 L1367.6094,575.0156 Q1367.6094,575.625 1367.375,575.8906 Q1367.1406,576.1563 1366.7656,576.1563 Q1366.4219,576.1563 1366.2188,575.9531 Q1366.0156,575.7656 1365.9063,575.25 Q1365.8594,574.8906 1365.6719,574.7031 Q1365.3438,574.3281 1364.7344,574.1094 Q1364.125,573.8906 1363.5,573.8906 Q1362.7344,573.8906 1362.1016,574.2188 Q1361.4688,574.5469 1360.9766,575.2969 Q1360.4844,576.0469 1360.4844,577.0781 L1360.4844,578.1719 Q1360.4844,579.4063 1361.375,580.2266 Q1362.2656,581.0469 1363.8594,581.0469 Q1364.7969,581.0469 1365.4531,580.7969 Q1365.8438,580.6406 1366.2656,580.2031 Q1366.5313,579.9375 1366.6797,579.8594 Q1366.8281,579.7813 1367.0313,579.7813 Q1367.3594,579.7813 1367.6172,580.0391 Q1367.875,580.2969 1367.875,580.6406 Q1367.875,580.9844 1367.5313,581.3906 Q1367.0313,581.9688 1366.2344,582.2969 Q1365.1563,582.75 1363.8594,582.75 Q1362.3438,582.75 1361.1406,582.125 Q1360.1563,581.625 1359.4688,580.5547 Q1358.7813,579.4844 1358.7813,578.2031 L1358.7813,577.0469 Q1358.7813,575.7188 1359.3984,574.5703 Q1360.0156,573.4219 1361.1094,572.8047 Q1362.2031,572.1875 1363.4375,572.1875 Q1364.1719,572.1875 1364.8203,572.3516 Q1365.4688,572.5156 1366.0156,572.875 Z "/><text fill="#000000" font-family="sans-serif" font-size="12" lengthAdjust="spacingAndGlyphs" textLength="67" x="1383.75" y="581.9102">ComService</text><line style="stroke: #A80036; stroke-width: 1.5;" x1="1222.5" x2="1579.5" y1="593" y2="593"/><line style="stroke: #A80036; stroke-width: 1.5;" x1="1222.5" x2="1579.5" y1="601" y2="601"/><ellipse cx="1232.5" cy="613.418" fill="#84BE84" rx="3" ry="3" style="stroke: #038048; stroke-width: 1.0;"/><text fill="#000000" font-family="sans-serif" font-size="11" lengthAdjust="spacingAndGlyphs" textLength="225" x="1241.5" y="616.4189">SubscribeReply Subscribe(SubscribeRequest)</text><ellipse cx="1232.5" cy="627.2539" fill="#84BE84" rx="3" ry="3" style="stroke: #038048; stroke-width: 1.0;"/><text fill="#000000" font-family="sans-serif" font-size="11" lengthAdjust="spacingAndGlyphs" textLength="333" x="1241.5" y="630.2549">ClientStateUpdateReply ClientStateUpdate(ClientStateUpdateRequest)</text><!--link Subscriber to CallbackClient--><path d="M99,507.245 C99,529.013 99,551.029 99,567.924 " fill="none" id="Subscriber-CallbackClient" style="stroke: #A80036; stroke-width: 1.0;"/><polygon fill="#A80036" points="99,494.136,95,500.136,99,506.136,103,500.136,99,494.136" style="stroke: #A80036; stroke-width: 1.0;"/><!--link ComParent to CallbackClient--><path d="M319.38,463.238 C267.057,495.233 195.386,539.06 148.173,567.931 " fill="none" id="ComParent-CallbackClient" style="stroke: #A80036; stroke-width: 1.0;"/><polygon fill="none" points="315.948,457.131,336.663,452.67,323.252,469.075,315.948,457.131" style="stroke: #A80036; stroke-width: 1.0;"/><!--link GameStateManager to PubSubService--><path d="M1433,83.535 C1433,97.704 1433,113.896 1433,129.821 " fill="none" id="GameStateManager-PubSubService" style="stroke: #A80036; stroke-width: 1.0;"/><polygon fill="#A80036" points="1433,70.124,1429,76.124,1433,82.124,1437,76.124,1433,70.124" style="stroke: #A80036; stroke-width: 1.0;"/><!--link PubSubService to ComServiceServer--><path d="M1428.19,302.294 C1426.7,330.859 1425.13,360.749 1423.95,383.326 " fill="none" id="PubSubService-ComServiceServer" style="stroke: #A80036; stroke-width: 1.0;"/><polygon fill="#A80036" points="1428.87,289.294,1424.5617,295.0766,1428.2425,301.2776,1432.5508,295.495,1428.87,289.294" style="stroke: #A80036; stroke-width: 1.0;"/><!--link ClientStateManager to PubSubClient--><path d="M733.862,260.118 C721.129,293.127 704.451,336.368 691.621,369.631 " fill="none" id="ClientStateManager-PubSubClient" style="stroke: #A80036; stroke-width: 1.0;"/><polygon fill="#A80036" points="738.705,247.56,732.8136,251.7183,734.3862,258.7559,740.2776,254.5975,738.705,247.56" style="stroke: #A80036; stroke-width: 1.0;"/><!--link PubSubClient to ComClient--><path d="M672,486.406 C672,511.382 672,539.147 672,560.734 " fill="none" id="PubSubClient-ComClient" style="stroke: #A80036; stroke-width: 1.0;"/><polygon fill="#A80036" points="672,473.262,668,479.262,672,485.262,676,479.262,672,473.262" style="stroke: #A80036; stroke-width: 1.0;"/><!--link ClientStateManager to CallbackServiceServer--><path d="M784.138,258.581 C807.051,293.962 837.967,341.699 860.287,376.164 " fill="none" id="ClientStateManager-CallbackServiceServer" style="stroke: #A80036; stroke-width: 1.0;"/><polygon fill="#A80036" points="777.001,247.56,776.9047,254.7705,783.5235,257.6326,783.6198,250.4221,777.001,247.56" style="stroke: #A80036; stroke-width: 1.0;"/><!--link CallbackServiceServer to CallbackService--><path d="M925.283,477.871 C944.777,507.62 968.055,543.145 984.219,567.812 " fill="none" id="CallbackServiceServer-CallbackService" style="stroke: #A80036; stroke-width: 1.0;"/><polygon fill="#A80036" points="918.019,466.786,917.9616,473.9969,924.5958,476.8232,924.6531,469.6124,918.019,466.786" style="stroke: #A80036; stroke-width: 1.0;"/><!--link ComServiceParent to CallbackService--><path d="M1091.17,469.438 C1069.97,500.712 1042.73,540.884 1024.39,567.931 " fill="none" id="ComServiceParent-CallbackService" style="stroke: #A80036; stroke-width: 1.0;"/><polygon fill="none" points="1085.53,465.294,1102.54,452.67,1097.11,473.151,1085.53,465.294" style="stroke: #A80036; stroke-width: 1.0;"/><!--link NetworkServiceBase to ComServiceParent--><path d="M1115.36,274.58 C1117.37,313.099 1119.85,360.329 1121.42,390.422 " fill="none" id="NetworkServiceBase-ComServiceParent" style="stroke: #A80036; stroke-width: 1.0;"/><polygon fill="none" points="1108.36,274.862,1114.31,254.523,1122.34,274.129,1108.36,274.862" style="stroke: #A80036; stroke-width: 1.0;"/><!--link ComParent to ComClient--><path d="M452.394,463.241 C500.467,492.741 564.93,532.298 611.568,560.917 " fill="none" id="ComParent-ComClient" style="stroke: #A80036; stroke-width: 1.0;"/><polygon fill="none" points="448.55,469.096,435.165,452.67,455.873,457.164,448.55,469.096" style="stroke: #A80036; stroke-width: 1.0;"/><!--link NetworkServiceClient to N1--><path d="M373.577,644.1855 C372.547,665.5704 373.951,689.6155 377.789,703.7497 " fill="none" id="NetworkServiceClient-N1" style="stroke: #A80036; stroke-width: 1.0; stroke-dasharray: 7.0,7.0;"/><!--link NetworkServiceClient to N1--><!--link ComService to N2--><path d="M1337.49,637.0221 C1297.9,660.0962 1249.54,688.2898 1222.61,703.9839 " fill="none" id="ComService-N2" style="stroke: #A80036; stroke-width: 1.0; stroke-dasharray: 7.0,7.0;"/><!--link CallbackService to N2--><path d="M1055.25,630.0237 C1096.27,654.0561 1151.67,686.5151 1181.29,703.867 " fill="none" id="CallbackService-N2" style="stroke: #A80036; stroke-width: 1.0; stroke-dasharray: 7.0,7.0;"/><!--link ComServiceServer to ComService--><path d="M1415.97,472.917 C1412.61,500.959 1408.51,535.252 1405.45,560.835 " fill="none" id="ComServiceServer-ComService" style="stroke: #A80036; stroke-width: 1.0;"/><polygon fill="#A80036" points="1417.55,459.719,1412.8653,465.2011,1416.1239,471.634,1420.8086,466.1518,1417.55,459.719" style="stroke: #A80036; stroke-width: 1.0;"/><!--link ComServiceParent to ComService--><path d="M1187.84,463.436 C1234.54,492.915 1297.02,532.361 1342.26,560.917 " fill="none" id="ComServiceParent-ComService" style="stroke: #A80036; stroke-width: 1.0;"/><polygon fill="none" points="1183.97,469.265,1170.79,452.67,1191.44,457.427,1183.97,469.265" style="stroke: #A80036; stroke-width: 1.0;"/><!--link ComParent to NetworkServiceClient--><path d="M386,465.9 C386,492.652 386,526.863 386,553.767 " fill="none" id="ComParent-NetworkServiceClient" style="stroke: #A80036; stroke-width: 1.0;"/><polygon fill="#A80036" points="386,452.67,382,458.67,386,464.67,390,458.67,386,452.67" style="stroke: #A80036; stroke-width: 1.0;"/><!--
@startuml

class Subscriber {
	- string URI
	- string playerName

	+ string GetURI()
	+ string GetPlayerName()
	+ CallbackClient GetCallbackClient()
	+ void CallbackClientConnect()
	+ bool PublishToClient()
}

Subscriber *- - CallbackClient
ComParent <|- - CallbackClient

class PubSubService {
	- List<string> clientChannels
	- Dictionary<string, List<Subscriber>>

	- void AddSubscriberToChannel()
	+ void CreateChannel()
	+ bool Subscribe()
	+ bool Unsubscribe()
	+ bool PublishGameStateUpdate()
	+ bool ProcessClientStateUpdate()
}

GameStateManager *- - PubSubService
PubSubService *- - ComServiceServer

ClientStateManager *- - PubSubClient
PubSubClient *- - ComClient
ClientStateManager *- - CallbackServiceServer
CallbackServiceServer *- - CallbackService
ComServiceParent <|- - CallbackService
NetworkServiceBase <|- - ComServiceParent
ComParent <|- - ComClient

class GameStateManager {
	+ bool ProcessClientStateUpdate()
}

class ClientStateManager {
	+ void JoinGame()
	+ bool SendDeckSize()
}

class PubSubClient {
	+ bool ClientConnect()
	+ bool Subscribe()
	+ bool Unsubscribe()
	+ bool SendClientStateUpdate()
}

note "Implements stubs for RPC calls" as N1
NetworkServiceClient .. N1
NetworkServiceClient ..[hidden] N1

class NetworkServiceClient {
	+ PingReply PingService(PingRequest)
	+ SubscribeReply Subscribe(SubscribeRequest)
	+ ClientStateUpdateReply ClientStateUpdate(ClientStateUpdateRequest)
}

class NetworkServiceBase {
	+ //PingReply PingService(PingRequest)//
	+ //SubscribeReply Subscribe(SubscribeRequest)//
	+ //ClientStateUpdateReply ClientStateUpdate(ClientStateUpdateRequest)//
}

class ComClient {
	+ bool Subscribe()
	+ bool ClientStateUpdate()
}

class ComServiceServer {
	+ void StartService()
	+ void StopService()
}


note "Implements only those RPC calls supported by the service" as N2
ComService .. N2
CallbackService .. N2

class ComService {
	+ SubscribeReply Subscribe(SubscribeRequest)
	+ ClientStateUpdateReply ClientStateUpdate(ClientStateUpdateRequest)
}

ComServiceServer *- - ComService
ComServiceParent <|- - ComService

class CallbackServiceServer {
	+ void StartService()
	+ void StopService()
	+ bool UpdateClientGameStateView()
}

class CallbackService {
	+ GameStateUpdateReply GameStateUpdate(GameStateUpdateRequest)
}

class CallbackClient {
	+ bool GameStateUpdate()
}

ComParent *- - NetworkServiceClient

class ComParent {
	+ bool PingService()
}

class ComServiceParent {
	+ PingReply PingService(PingRequest)
}

@enduml

PlantUML version 1.2018.03(Thu Apr 05 12:59:15 EDT 2018)
(GPL source distribution)
Java Runtime: Java(TM) SE Runtime Environment
JVM: Java HotSpot(TM) Client VM
Java Version: 1.8.0_161-b12
Operating System: Windows 10
OS Version: 10.0
Default Encoding: Cp1252
Language: en
Country: US
--></g></svg>