<?xml version="1.0" encoding="UTF-8" standalone="no"?><svg xmlns="http://www.w3.org/2000/svg" xmlns:xlink="http://www.w3.org/1999/xlink" contentScriptType="application/ecmascript" contentStyleType="text/css" height="1024px" preserveAspectRatio="none" style="width:1724px;height:1024px;" version="1.1" viewBox="0 0 1724 1024" width="1724px" zoomAndPan="magnify"><defs><filter height="300%" id="f1nx4ice9zslcw" width="300%" x="-1" y="-1"><feGaussianBlur result="blurOut" stdDeviation="2.0"/><feColorMatrix in="blurOut" result="blurOut2" type="matrix" values="0 0 0 0 0 0 0 0 0 0 0 0 0 0 0 0 0 0 .4 0"/><feOffset dx="4.0" dy="4.0" in="blurOut2" result="blurOut3"/><feBlend in="SourceGraphic" in2="blurOut3" mode="normal"/></filter></defs><g><line style="stroke: #A80036; stroke-width: 1.0; stroke-dasharray: 5.0,5.0;" x1="80" x2="80" y1="39.6094" y2="983.1563"/><line style="stroke: #A80036; stroke-width: 1.0; stroke-dasharray: 5.0,5.0;" x1="220" x2="220" y1="39.6094" y2="983.1563"/><line style="stroke: #A80036; stroke-width: 1.0; stroke-dasharray: 5.0,5.0;" x1="388.5" x2="388.5" y1="39.6094" y2="983.1563"/><line style="stroke: #A80036; stroke-width: 1.0; stroke-dasharray: 5.0,5.0;" x1="513.5" x2="513.5" y1="39.6094" y2="983.1563"/><line style="stroke: #A80036; stroke-width: 1.0; stroke-dasharray: 5.0,5.0;" x1="647.5" x2="647.5" y1="39.6094" y2="983.1563"/><line style="stroke: #A80036; stroke-width: 1.0; stroke-dasharray: 5.0,5.0;" x1="806.5" x2="806.5" y1="39.6094" y2="983.1563"/><line style="stroke: #A80036; stroke-width: 1.0; stroke-dasharray: 5.0,5.0;" x1="968.5" x2="968.5" y1="39.6094" y2="983.1563"/><line style="stroke: #A80036; stroke-width: 1.0; stroke-dasharray: 5.0,5.0;" x1="1118.5" x2="1118.5" y1="39.6094" y2="983.1563"/><line style="stroke: #A80036; stroke-width: 1.0; stroke-dasharray: 5.0,5.0;" x1="1242.5" x2="1242.5" y1="39.6094" y2="983.1563"/><line style="stroke: #A80036; stroke-width: 1.0; stroke-dasharray: 5.0,5.0;" x1="1358.5" x2="1358.5" y1="39.6094" y2="983.1563"/><line style="stroke: #A80036; stroke-width: 1.0; stroke-dasharray: 5.0,5.0;" x1="1461.5" x2="1461.5" y1="39.6094" y2="983.1563"/><line style="stroke: #A80036; stroke-width: 1.0; stroke-dasharray: 5.0,5.0;" x1="1556.5" x2="1556.5" y1="39.6094" y2="983.1563"/><line style="stroke: #A80036; stroke-width: 1.0; stroke-dasharray: 5.0,5.0;" x1="1663.5" x2="1663.5" y1="39.6094" y2="983.1563"/><rect fill="#FEFECE" filter="url(#f1nx4ice9zslcw)" height="31.6094" style="stroke: #A80036; stroke-width: 1.5;" width="141" x="8" y="3"/><text fill="#000000" font-family="sans-serif" font-size="14" lengthAdjust="spacingAndGlyphs" textLength="127" x="15" y="24.5332">GameStateManager</text><rect fill="#FEFECE" filter="url(#f1nx4ice9zslcw)" height="31.6094" style="stroke: #A80036; stroke-width: 1.5;" width="141" x="8" y="982.1563"/><text fill="#000000" font-family="sans-serif" font-size="14" lengthAdjust="spacingAndGlyphs" textLength="127" x="15" y="1003.6895">GameStateManager</text><rect fill="#FEFECE" filter="url(#f1nx4ice9zslcw)" height="31.6094" style="stroke: #A80036; stroke-width: 1.5;" width="111" x="163" y="3"/><text fill="#000000" font-family="sans-serif" font-size="14" lengthAdjust="spacingAndGlyphs" textLength="97" x="170" y="24.5332">PubSubService</text><rect fill="#FEFECE" filter="url(#f1nx4ice9zslcw)" height="31.6094" style="stroke: #A80036; stroke-width: 1.5;" width="111" x="163" y="982.1563"/><text fill="#000000" font-family="sans-serif" font-size="14" lengthAdjust="spacingAndGlyphs" textLength="97" x="170" y="1003.6895">PubSubService</text><rect fill="#FEFECE" filter="url(#f1nx4ice9zslcw)" height="31.6094" style="stroke: #A80036; stroke-width: 1.5;" width="132" x="320.5" y="3"/><text fill="#000000" font-family="sans-serif" font-size="14" lengthAdjust="spacingAndGlyphs" textLength="118" x="327.5" y="24.5332">ComServiceServer</text><rect fill="#FEFECE" filter="url(#f1nx4ice9zslcw)" height="31.6094" style="stroke: #A80036; stroke-width: 1.5;" width="132" x="320.5" y="982.1563"/><text fill="#000000" font-family="sans-serif" font-size="14" lengthAdjust="spacingAndGlyphs" textLength="118" x="327.5" y="1003.6895">ComServiceServer</text><rect fill="#FEFECE" filter="url(#f1nx4ice9zslcw)" height="31.6094" style="stroke: #A80036; stroke-width: 1.5;" width="90" x="466.5" y="3"/><text fill="#000000" font-family="sans-serif" font-size="14" lengthAdjust="spacingAndGlyphs" textLength="76" x="473.5" y="24.5332">ComService</text><rect fill="#FEFECE" filter="url(#f1nx4ice9zslcw)" height="31.6094" style="stroke: #A80036; stroke-width: 1.5;" width="90" x="466.5" y="982.1563"/><text fill="#000000" font-family="sans-serif" font-size="14" lengthAdjust="spacingAndGlyphs" textLength="76" x="473.5" y="1003.6895">ComService</text><rect fill="#FEFECE" filter="url(#f1nx4ice9zslcw)" height="31.6094" style="stroke: #A80036; stroke-width: 1.5;" width="151" x="570.5" y="3"/><text fill="#000000" font-family="sans-serif" font-size="14" lengthAdjust="spacingAndGlyphs" textLength="137" x="577.5" y="24.5332">Master Client Network</text><rect fill="#FEFECE" filter="url(#f1nx4ice9zslcw)" height="31.6094" style="stroke: #A80036; stroke-width: 1.5;" width="151" x="570.5" y="982.1563"/><text fill="#000000" font-family="sans-serif" font-size="14" lengthAdjust="spacingAndGlyphs" textLength="137" x="577.5" y="1003.6895">Master Client Network</text><rect fill="#FEFECE" filter="url(#f1nx4ice9zslcw)" height="31.6094" style="stroke: #A80036; stroke-width: 1.5;" width="139" x="735.5" y="3"/><text fill="#000000" font-family="sans-serif" font-size="14" lengthAdjust="spacingAndGlyphs" textLength="125" x="742.5" y="24.5332">ClientStateManager</text><rect fill="#FEFECE" filter="url(#f1nx4ice9zslcw)" height="31.6094" style="stroke: #A80036; stroke-width: 1.5;" width="139" x="735.5" y="982.1563"/><text fill="#000000" font-family="sans-serif" font-size="14" lengthAdjust="spacingAndGlyphs" textLength="125" x="742.5" y="1003.6895">ClientStateManager</text><rect fill="#FEFECE" filter="url(#f1nx4ice9zslcw)" height="31.6094" style="stroke: #A80036; stroke-width: 1.5;" width="157" x="888.5" y="3"/><text fill="#000000" font-family="sans-serif" font-size="14" lengthAdjust="spacingAndGlyphs" textLength="143" x="895.5" y="24.5332">CallbackServiceServer</text><rect fill="#FEFECE" filter="url(#f1nx4ice9zslcw)" height="31.6094" style="stroke: #A80036; stroke-width: 1.5;" width="157" x="888.5" y="982.1563"/><text fill="#000000" font-family="sans-serif" font-size="14" lengthAdjust="spacingAndGlyphs" textLength="143" x="895.5" y="1003.6895">CallbackServiceServer</text><rect fill="#FEFECE" filter="url(#f1nx4ice9zslcw)" height="31.6094" style="stroke: #A80036; stroke-width: 1.5;" width="115" x="1059.5" y="3"/><text fill="#000000" font-family="sans-serif" font-size="14" lengthAdjust="spacingAndGlyphs" textLength="101" x="1066.5" y="24.5332">CallbackService</text><rect fill="#FEFECE" filter="url(#f1nx4ice9zslcw)" height="31.6094" style="stroke: #A80036; stroke-width: 1.5;" width="115" x="1059.5" y="982.1563"/><text fill="#000000" font-family="sans-serif" font-size="14" lengthAdjust="spacingAndGlyphs" textLength="101" x="1066.5" y="1003.6895">CallbackService</text><rect fill="#FEFECE" filter="url(#f1nx4ice9zslcw)" height="31.6094" style="stroke: #A80036; stroke-width: 1.5;" width="104" x="1188.5" y="3"/><text fill="#000000" font-family="sans-serif" font-size="14" lengthAdjust="spacingAndGlyphs" textLength="90" x="1195.5" y="24.5332">Client Network</text><rect fill="#FEFECE" filter="url(#f1nx4ice9zslcw)" height="31.6094" style="stroke: #A80036; stroke-width: 1.5;" width="104" x="1188.5" y="982.1563"/><text fill="#000000" font-family="sans-serif" font-size="14" lengthAdjust="spacingAndGlyphs" textLength="90" x="1195.5" y="1003.6895">Client Network</text><rect fill="#FEFECE" filter="url(#f1nx4ice9zslcw)" height="31.6094" style="stroke: #A80036; stroke-width: 1.5;" width="100" x="1306.5" y="3"/><text fill="#000000" font-family="sans-serif" font-size="14" lengthAdjust="spacingAndGlyphs" textLength="86" x="1313.5" y="24.5332">PubSubClient</text><rect fill="#FEFECE" filter="url(#f1nx4ice9zslcw)" height="31.6094" style="stroke: #A80036; stroke-width: 1.5;" width="100" x="1306.5" y="982.1563"/><text fill="#000000" font-family="sans-serif" font-size="14" lengthAdjust="spacingAndGlyphs" textLength="86" x="1313.5" y="1003.6895">PubSubClient</text><rect fill="#FEFECE" filter="url(#f1nx4ice9zslcw)" height="31.6094" style="stroke: #A80036; stroke-width: 1.5;" width="79" x="1420.5" y="3"/><text fill="#000000" font-family="sans-serif" font-size="14" lengthAdjust="spacingAndGlyphs" textLength="65" x="1427.5" y="24.5332">ComClient</text><rect fill="#FEFECE" filter="url(#f1nx4ice9zslcw)" height="31.6094" style="stroke: #A80036; stroke-width: 1.5;" width="79" x="1420.5" y="982.1563"/><text fill="#000000" font-family="sans-serif" font-size="14" lengthAdjust="spacingAndGlyphs" textLength="65" x="1427.5" y="1003.6895">ComClient</text><rect fill="#FEFECE" filter="url(#f1nx4ice9zslcw)" height="31.6094" style="stroke: #A80036; stroke-width: 1.5;" width="82" x="1513.5" y="3"/><text fill="#000000" font-family="sans-serif" font-size="14" lengthAdjust="spacingAndGlyphs" textLength="68" x="1520.5" y="24.5332">Subscriber</text><rect fill="#FEFECE" filter="url(#f1nx4ice9zslcw)" height="31.6094" style="stroke: #A80036; stroke-width: 1.5;" width="82" x="1513.5" y="982.1563"/><text fill="#000000" font-family="sans-serif" font-size="14" lengthAdjust="spacingAndGlyphs" textLength="68" x="1520.5" y="1003.6895">Subscriber</text><rect fill="#FEFECE" filter="url(#f1nx4ice9zslcw)" height="31.6094" style="stroke: #A80036; stroke-width: 1.5;" width="104" x="1609.5" y="3"/><text fill="#000000" font-family="sans-serif" font-size="14" lengthAdjust="spacingAndGlyphs" textLength="90" x="1616.5" y="24.5332">CallbackClient</text><rect fill="#FEFECE" filter="url(#f1nx4ice9zslcw)" height="31.6094" style="stroke: #A80036; stroke-width: 1.5;" width="104" x="1609.5" y="982.1563"/><text fill="#000000" font-family="sans-serif" font-size="14" lengthAdjust="spacingAndGlyphs" textLength="90" x="1616.5" y="1003.6895">CallbackClient</text><polygon fill="#A80036" points="208.5,67.9609,218.5,71.9609,208.5,75.9609,212.5,71.9609" style="stroke: #A80036; stroke-width: 1.0;"/><line style="stroke: #A80036; stroke-width: 1.0;" x1="80.5" x2="214.5" y1="71.9609" y2="71.9609"/><text fill="#000000" font-family="sans-serif" font-size="13" lengthAdjust="spacingAndGlyphs" textLength="63" x="87.5" y="67.1045">create new</text><polygon fill="#A80036" points="376.5,98.3125,386.5,102.3125,376.5,106.3125,380.5,102.3125" style="stroke: #A80036; stroke-width: 1.0;"/><line style="stroke: #A80036; stroke-width: 1.0;" x1="220.5" x2="382.5" y1="102.3125" y2="102.3125"/><text fill="#000000" font-family="sans-serif" font-size="13" lengthAdjust="spacingAndGlyphs" textLength="63" x="227.5" y="97.4561">create new</text><polygon fill="#A80036" points="376.5,128.6641,386.5,132.6641,376.5,136.6641,380.5,132.6641" style="stroke: #A80036; stroke-width: 1.0;"/><line style="stroke: #A80036; stroke-width: 1.0;" x1="220.5" x2="382.5" y1="132.6641" y2="132.6641"/><text fill="#000000" font-family="sans-serif" font-size="13" lengthAdjust="spacingAndGlyphs" textLength="78" x="227.5" y="127.8076">StartService()</text><polygon fill="#A80036" points="501.5,159.0156,511.5,163.0156,501.5,167.0156,505.5,163.0156" style="stroke: #A80036; stroke-width: 1.0;"/><line style="stroke: #A80036; stroke-width: 1.0;" x1="388.5" x2="507.5" y1="163.0156" y2="163.0156"/><text fill="#000000" font-family="sans-serif" font-size="13" lengthAdjust="spacingAndGlyphs" textLength="63" x="395.5" y="158.1592">create new</text><polygon fill="#A80036" points="636,189.3672,646,193.3672,636,197.3672,640,193.3672" style="stroke: #A80036; stroke-width: 1.0;"/><line style="stroke: #A80036; stroke-width: 1.0;" x1="513.5" x2="642" y1="193.3672" y2="193.3672"/><text fill="#000000" font-family="sans-serif" font-size="13" lengthAdjust="spacingAndGlyphs" textLength="39" x="520.5" y="188.5107">bind to</text><polygon fill="#A80036" points="957,219.7188,967,223.7188,957,227.7188,961,223.7188" style="stroke: #A80036; stroke-width: 1.0;"/><line style="stroke: #A80036; stroke-width: 1.0;" x1="807" x2="963" y1="223.7188" y2="223.7188"/><text fill="#000000" font-family="sans-serif" font-size="13" lengthAdjust="spacingAndGlyphs" textLength="63" x="814" y="218.8623">create new</text><polygon fill="#A80036" points="957,250.0703,967,254.0703,957,258.0703,961,254.0703" style="stroke: #A80036; stroke-width: 1.0;"/><line style="stroke: #A80036; stroke-width: 1.0;" x1="807" x2="963" y1="254.0703" y2="254.0703"/><text fill="#000000" font-family="sans-serif" font-size="13" lengthAdjust="spacingAndGlyphs" textLength="78" x="814" y="249.2139">StartService()</text><polygon fill="#A80036" points="1107,280.4219,1117,284.4219,1107,288.4219,1111,284.4219" style="stroke: #A80036; stroke-width: 1.0;"/><line style="stroke: #A80036; stroke-width: 1.0;" x1="969" x2="1113" y1="284.4219" y2="284.4219"/><text fill="#000000" font-family="sans-serif" font-size="13" lengthAdjust="spacingAndGlyphs" textLength="63" x="976" y="279.5654">create new</text><polygon fill="#A80036" points="1230.5,310.7734,1240.5,314.7734,1230.5,318.7734,1234.5,314.7734" style="stroke: #A80036; stroke-width: 1.0;"/><line style="stroke: #A80036; stroke-width: 1.0;" x1="1119" x2="1236.5" y1="314.7734" y2="314.7734"/><text fill="#000000" font-family="sans-serif" font-size="13" lengthAdjust="spacingAndGlyphs" textLength="39" x="1126" y="309.917">bind to</text><polygon fill="#A80036" points="1346.5,341.125,1356.5,345.125,1346.5,349.125,1350.5,345.125" style="stroke: #A80036; stroke-width: 1.0;"/><line style="stroke: #A80036; stroke-width: 1.0;" x1="807" x2="1352.5" y1="345.125" y2="345.125"/><text fill="#000000" font-family="sans-serif" font-size="13" lengthAdjust="spacingAndGlyphs" textLength="63" x="814" y="340.2686">create new</text><polygon fill="#A80036" points="1450,371.4766,1460,375.4766,1450,379.4766,1454,375.4766" style="stroke: #A80036; stroke-width: 1.0;"/><line style="stroke: #A80036; stroke-width: 1.0;" x1="1358.5" x2="1456" y1="375.4766" y2="375.4766"/><text fill="#000000" font-family="sans-serif" font-size="13" lengthAdjust="spacingAndGlyphs" textLength="63" x="1365.5" y="370.6201">create new</text><polygon fill="#A80036" points="1346.5,401.8281,1356.5,405.8281,1346.5,409.8281,1350.5,405.8281" style="stroke: #A80036; stroke-width: 1.0;"/><line style="stroke: #A80036; stroke-width: 1.0;" x1="807" x2="1352.5" y1="405.8281" y2="405.8281"/><text fill="#000000" font-family="sans-serif" font-size="13" lengthAdjust="spacingAndGlyphs" textLength="89" x="814" y="400.9717">ClientConnect()</text><polygon fill="#A80036" points="1450,432.1797,1460,436.1797,1450,440.1797,1454,436.1797" style="stroke: #A80036; stroke-width: 1.0;"/><line style="stroke: #A80036; stroke-width: 1.0;" x1="1358.5" x2="1456" y1="436.1797" y2="436.1797"/><text fill="#000000" font-family="sans-serif" font-size="13" lengthAdjust="spacingAndGlyphs" textLength="76" x="1365.5" y="431.3232">PingService()</text><polygon fill="#A80036" points="524.5,462.5313,514.5,466.5313,524.5,470.5313,520.5,466.5313" style="stroke: #A80036; stroke-width: 1.0;"/><line style="stroke: #A80036; stroke-width: 1.0;" x1="518.5" x2="1461" y1="466.5313" y2="466.5313"/><text fill="#000000" font-family="sans-serif" font-size="13" lengthAdjust="spacingAndGlyphs" textLength="154" x="530.5" y="461.6748">PingService() RPC request</text><polygon fill="#A80036" points="1450,492.8828,1460,496.8828,1450,500.8828,1454,496.8828" style="stroke: #A80036; stroke-width: 1.0;"/><line style="stroke: #A80036; stroke-width: 1.0;" x1="513.5" x2="1456" y1="496.8828" y2="496.8828"/><text fill="#000000" font-family="sans-serif" font-size="13" lengthAdjust="spacingAndGlyphs" textLength="164" x="520.5" y="492.0264">PingService() RPC response</text><polygon fill="#A80036" points="1346.5,523.2344,1356.5,527.2344,1346.5,531.2344,1350.5,527.2344" style="stroke: #A80036; stroke-width: 1.0;"/><line style="stroke: #A80036; stroke-width: 1.0;" x1="807" x2="1352.5" y1="527.2344" y2="527.2344"/><text fill="#000000" font-family="sans-serif" font-size="13" lengthAdjust="spacingAndGlyphs" textLength="167" x="814" y="522.3779">JoinGame() calls Subscribe()</text><polygon fill="#A80036" points="1450,553.5859,1460,557.5859,1450,561.5859,1454,557.5859" style="stroke: #A80036; stroke-width: 1.0;"/><line style="stroke: #A80036; stroke-width: 1.0;" x1="1358.5" x2="1456" y1="557.5859" y2="557.5859"/><text fill="#000000" font-family="sans-serif" font-size="13" lengthAdjust="spacingAndGlyphs" textLength="66" x="1365.5" y="552.7295">Subscribe()</text><polygon fill="#A80036" points="524.5,583.9375,514.5,587.9375,524.5,591.9375,520.5,587.9375" style="stroke: #A80036; stroke-width: 1.0;"/><line style="stroke: #A80036; stroke-width: 1.0;" x1="518.5" x2="1461" y1="587.9375" y2="587.9375"/><text fill="#000000" font-family="sans-serif" font-size="13" lengthAdjust="spacingAndGlyphs" textLength="144" x="530.5" y="583.0811">Subscribe() RPC request</text><polygon fill="#A80036" points="231.5,614.2891,221.5,618.2891,231.5,622.2891,227.5,618.2891" style="stroke: #A80036; stroke-width: 1.0;"/><line style="stroke: #A80036; stroke-width: 1.0;" x1="225.5" x2="512.5" y1="618.2891" y2="618.2891"/><text fill="#000000" font-family="sans-serif" font-size="13" lengthAdjust="spacingAndGlyphs" textLength="66" x="237.5" y="613.4326">Subscribe()</text><line style="stroke: #A80036; stroke-width: 1.0;" x1="220.5" x2="262.5" y1="648.6406" y2="648.6406"/><line style="stroke: #A80036; stroke-width: 1.0;" x1="262.5" x2="262.5" y1="648.6406" y2="661.6406"/><line style="stroke: #A80036; stroke-width: 1.0;" x1="221.5" x2="262.5" y1="661.6406" y2="661.6406"/><polygon fill="#A80036" points="231.5,657.6406,221.5,661.6406,231.5,665.6406,227.5,661.6406" style="stroke: #A80036; stroke-width: 1.0;"/><text fill="#000000" font-family="sans-serif" font-size="13" lengthAdjust="spacingAndGlyphs" textLength="154" x="227.5" y="643.7842">AddSubscriberToChannel()</text><polygon fill="#A80036" points="1544.5,687.9922,1554.5,691.9922,1544.5,695.9922,1548.5,691.9922" style="stroke: #A80036; stroke-width: 1.0;"/><line style="stroke: #A80036; stroke-width: 1.0;" x1="220.5" x2="1550.5" y1="691.9922" y2="691.9922"/><text fill="#000000" font-family="sans-serif" font-size="13" lengthAdjust="spacingAndGlyphs" textLength="63" x="227.5" y="687.1357">create new</text><polygon fill="#A80036" points="1651.5,718.3438,1661.5,722.3438,1651.5,726.3438,1655.5,722.3438" style="stroke: #A80036; stroke-width: 1.0;"/><line style="stroke: #A80036; stroke-width: 1.0;" x1="1556.5" x2="1657.5" y1="722.3438" y2="722.3438"/><text fill="#000000" font-family="sans-serif" font-size="13" lengthAdjust="spacingAndGlyphs" textLength="63" x="1563.5" y="717.4873">create new</text><polygon fill="#A80036" points="1544.5,748.6953,1554.5,752.6953,1544.5,756.6953,1548.5,752.6953" style="stroke: #A80036; stroke-width: 1.0;"/><line style="stroke: #A80036; stroke-width: 1.0;" x1="220.5" x2="1550.5" y1="752.6953" y2="752.6953"/><text fill="#000000" font-family="sans-serif" font-size="13" lengthAdjust="spacingAndGlyphs" textLength="139" x="227.5" y="747.8389">CallbackClientConnect()</text><polygon fill="#A80036" points="1651.5,779.0469,1661.5,783.0469,1651.5,787.0469,1655.5,783.0469" style="stroke: #A80036; stroke-width: 1.0;"/><line style="stroke: #A80036; stroke-width: 1.0;" x1="1556.5" x2="1657.5" y1="783.0469" y2="783.0469"/><text fill="#000000" font-family="sans-serif" font-size="13" lengthAdjust="spacingAndGlyphs" textLength="76" x="1563.5" y="778.1904">PingService()</text><polygon fill="#A80036" points="1130,809.3984,1120,813.3984,1130,817.3984,1126,813.3984" style="stroke: #A80036; stroke-width: 1.0;"/><line style="stroke: #A80036; stroke-width: 1.0;" x1="1124" x2="1662.5" y1="813.3984" y2="813.3984"/><text fill="#000000" font-family="sans-serif" font-size="13" lengthAdjust="spacingAndGlyphs" textLength="154" x="1136" y="808.542">PingService() RPC request</text><polygon fill="#A80036" points="1651.5,839.75,1661.5,843.75,1651.5,847.75,1655.5,843.75" style="stroke: #A80036; stroke-width: 1.0;"/><line style="stroke: #A80036; stroke-width: 1.0;" x1="1119" x2="1657.5" y1="843.75" y2="843.75"/><text fill="#000000" font-family="sans-serif" font-size="13" lengthAdjust="spacingAndGlyphs" textLength="164" x="1126" y="838.8936">PingService() RPC response</text><polygon fill="#A80036" points="1651.5,870.1016,1661.5,874.1016,1651.5,878.1016,1655.5,874.1016" style="stroke: #A80036; stroke-width: 1.0;"/><line style="stroke: #A80036; stroke-width: 1.0;" x1="1556.5" x2="1657.5" y1="874.1016" y2="874.1016"/><text fill="#000000" font-family="sans-serif" font-size="13" lengthAdjust="spacingAndGlyphs" textLength="66" x="1563.5" y="869.2451">Subscribe()</text><polygon fill="#A80036" points="1130,900.4531,1120,904.4531,1130,908.4531,1126,904.4531" style="stroke: #A80036; stroke-width: 1.0;"/><line style="stroke: #A80036; stroke-width: 1.0;" x1="1124" x2="1662.5" y1="904.4531" y2="904.4531"/><text fill="#000000" font-family="sans-serif" font-size="13" lengthAdjust="spacingAndGlyphs" textLength="144" x="1136" y="899.5967">Subscribe() RPC request</text><polygon fill="#A80036" points="1651.5,930.8047,1661.5,934.8047,1651.5,938.8047,1655.5,934.8047" style="stroke: #A80036; stroke-width: 1.0;"/><line style="stroke: #A80036; stroke-width: 1.0;" x1="1119" x2="1657.5" y1="934.8047" y2="934.8047"/><text fill="#000000" font-family="sans-serif" font-size="13" lengthAdjust="spacingAndGlyphs" textLength="154" x="1126" y="929.9482">Subscribe() RPC response</text><polygon fill="#A80036" points="1450,961.1563,1460,965.1563,1450,969.1563,1454,965.1563" style="stroke: #A80036; stroke-width: 1.0;"/><line style="stroke: #A80036; stroke-width: 1.0;" x1="513.5" x2="1456" y1="965.1563" y2="965.1563"/><text fill="#000000" font-family="sans-serif" font-size="13" lengthAdjust="spacingAndGlyphs" textLength="154" x="520.5" y="960.2998">Subscribe() RPC response</text><!--
@startuml

GameStateManager -> PubSubService : create new
PubSubService -> ComServiceServer : create new
PubSubService -> ComServiceServer : StartService()
ComServiceServer -> ComService : create new
ComService -> "Master Client Network" : bind to

ClientStateManager -> CallbackServiceServer : create new
ClientStateManager -> CallbackServiceServer : StartService()
CallbackServiceServer -> CallbackService : create new
CallbackService -> "Client Network" : bind to

ClientStateManager -> PubSubClient : create new
PubSubClient -> ComClient : create new

ClientStateManager -> PubSubClient : ClientConnect()
PubSubClient -> ComClient : PingService()
ComClient -> ComService : PingService() RPC request
ComService -> ComClient : PingService() RPC response

ClientStateManager -> PubSubClient : JoinGame() calls Subscribe()
PubSubClient -> ComClient : Subscribe()
ComClient -> ComService : Subscribe() RPC request
ComService -> PubSubService : Subscribe()
PubSubService -> PubSubService : AddSubscriberToChannel()
PubSubService -> Subscriber : create new
Subscriber -> CallbackClient : create new
PubSubService -> Subscriber : CallbackClientConnect()
Subscriber -> CallbackClient : PingService()
CallbackClient -> CallbackService : PingService() RPC request
CallbackService -> CallbackClient : PingService() RPC response
Subscriber -> CallbackClient : Subscribe()
CallbackClient -> CallbackService : Subscribe() RPC request
CallbackService -> CallbackClient : Subscribe() RPC response
ComService -> ComClient : Subscribe() RPC response

@enduml

PlantUML version 1.2018.03(Thu Apr 05 12:59:15 EDT 2018)
(GPL source distribution)
Java Runtime: Java(TM) SE Runtime Environment
JVM: Java HotSpot(TM) Client VM
Java Version: 1.8.0_161-b12
Operating System: Windows 10
OS Version: 10.0
Default Encoding: Cp1252
Language: en
Country: US
--></g></svg>