<?xml version="1.0" encoding="UTF-8" standalone="no"?><svg xmlns="http://www.w3.org/2000/svg" xmlns:xlink="http://www.w3.org/1999/xlink" contentScriptType="application/ecmascript" contentStyleType="text/css" height="543px" preserveAspectRatio="none" style="width:814px;height:543px;" version="1.1" viewBox="0 0 814 543" width="814px" zoomAndPan="magnify"><defs><filter height="300%" id="f1h7wujwzsuzjd" width="300%" x="-1" y="-1"><feGaussianBlur result="blurOut" stdDeviation="2.0"/><feColorMatrix in="blurOut" result="blurOut2" type="matrix" values="0 0 0 0 0 0 0 0 0 0 0 0 0 0 0 0 0 0 .4 0"/><feOffset dx="4.0" dy="4.0" in="blurOut2" result="blurOut3"/><feBlend in="SourceGraphic" in2="blurOut3" mode="normal"/></filter></defs><g><!--class MonoBehaviour--><rect fill="#FEFECE" filter="url(#f1h7wujwzsuzjd)" height="75.6719" id="MonoBehaviour" style="stroke: #A80036; stroke-width: 1.5;" width="117" x="190.5" y="8"/><ellipse cx="205.5" cy="24" fill="#ADD1B2" rx="11" ry="11" style="stroke: #A80036; stroke-width: 1.0;"/><path d="M208.2656,19.875 Q208.4219,19.6563 208.6094,19.5469 Q208.7969,19.4375 209.0156,19.4375 Q209.3906,19.4375 209.625,19.6953 Q209.8594,19.9531 209.8594,20.5625 L209.8594,22.0156 Q209.8594,22.625 209.625,22.8906 Q209.3906,23.1563 209.0156,23.1563 Q208.6719,23.1563 208.4688,22.9531 Q208.2656,22.7656 208.1563,22.25 Q208.1094,21.8906 207.9219,21.7031 Q207.5938,21.3281 206.9844,21.1094 Q206.375,20.8906 205.75,20.8906 Q204.9844,20.8906 204.3516,21.2188 Q203.7188,21.5469 203.2266,22.2969 Q202.7344,23.0469 202.7344,24.0781 L202.7344,25.1719 Q202.7344,26.4063 203.625,27.2266 Q204.5156,28.0469 206.1094,28.0469 Q207.0469,28.0469 207.7031,27.7969 Q208.0938,27.6406 208.5156,27.2031 Q208.7813,26.9375 208.9297,26.8594 Q209.0781,26.7813 209.2813,26.7813 Q209.6094,26.7813 209.8672,27.0391 Q210.125,27.2969 210.125,27.6406 Q210.125,27.9844 209.7813,28.3906 Q209.2813,28.9688 208.4844,29.2969 Q207.4063,29.75 206.1094,29.75 Q204.5938,29.75 203.3906,29.125 Q202.4063,28.625 201.7188,27.5547 Q201.0313,26.4844 201.0313,25.2031 L201.0313,24.0469 Q201.0313,22.7188 201.6484,21.5703 Q202.2656,20.4219 203.3594,19.8047 Q204.4531,19.1875 205.6875,19.1875 Q206.4219,19.1875 207.0703,19.3516 Q207.7188,19.5156 208.2656,19.875 Z "/><text fill="#000000" font-family="sans-serif" font-size="12" lengthAdjust="spacingAndGlyphs" textLength="85" x="219.5" y="28.9102">MonoBehaviour</text><line style="stroke: #A80036; stroke-width: 1.5;" x1="191.5" x2="306.5" y1="40" y2="40"/><line style="stroke: #A80036; stroke-width: 1.5;" x1="191.5" x2="306.5" y1="48" y2="48"/><text fill="#000000" font-family="sans-serif" font-size="11" lengthAdjust="spacingAndGlyphs" textLength="89" x="196.5" y="63.4189">private void start()</text><text fill="#000000" font-family="sans-serif" font-size="11" lengthAdjust="spacingAndGlyphs" textLength="100" x="196.5" y="77.2549">private void update()</text><!--class MainGameScript--><rect fill="#FEFECE" filter="url(#f1h7wujwzsuzjd)" height="48" id="MainGameScript" style="stroke: #A80036; stroke-width: 1.5;" width="123" x="45.5" y="178.5"/><ellipse cx="60.5" cy="194.5" fill="#ADD1B2" rx="11" ry="11" style="stroke: #A80036; stroke-width: 1.0;"/><path d="M63.2656,190.375 Q63.4219,190.1563 63.6094,190.0469 Q63.7969,189.9375 64.0156,189.9375 Q64.3906,189.9375 64.625,190.1953 Q64.8594,190.4531 64.8594,191.0625 L64.8594,192.5156 Q64.8594,193.125 64.625,193.3906 Q64.3906,193.6563 64.0156,193.6563 Q63.6719,193.6563 63.4688,193.4531 Q63.2656,193.2656 63.1563,192.75 Q63.1094,192.3906 62.9219,192.2031 Q62.5938,191.8281 61.9844,191.6094 Q61.375,191.3906 60.75,191.3906 Q59.9844,191.3906 59.3516,191.7188 Q58.7188,192.0469 58.2266,192.7969 Q57.7344,193.5469 57.7344,194.5781 L57.7344,195.6719 Q57.7344,196.9063 58.625,197.7266 Q59.5156,198.5469 61.1094,198.5469 Q62.0469,198.5469 62.7031,198.2969 Q63.0938,198.1406 63.5156,197.7031 Q63.7813,197.4375 63.9297,197.3594 Q64.0781,197.2813 64.2813,197.2813 Q64.6094,197.2813 64.8672,197.5391 Q65.125,197.7969 65.125,198.1406 Q65.125,198.4844 64.7813,198.8906 Q64.2813,199.4688 63.4844,199.7969 Q62.4063,200.25 61.1094,200.25 Q59.5938,200.25 58.3906,199.625 Q57.4063,199.125 56.7188,198.0547 Q56.0313,196.9844 56.0313,195.7031 L56.0313,194.5469 Q56.0313,193.2188 56.6484,192.0703 Q57.2656,190.9219 58.3594,190.3047 Q59.4531,189.6875 60.6875,189.6875 Q61.4219,189.6875 62.0703,189.8516 Q62.7188,190.0156 63.2656,190.375 Z "/><text fill="#000000" font-family="sans-serif" font-size="12" lengthAdjust="spacingAndGlyphs" textLength="91" x="74.5" y="199.4102">MainGameScript</text><line style="stroke: #A80036; stroke-width: 1.5;" x1="46.5" x2="167.5" y1="210.5" y2="210.5"/><line style="stroke: #A80036; stroke-width: 1.5;" x1="46.5" x2="167.5" y1="218.5" y2="218.5"/><!--class GameStateMachine--><rect fill="#FEFECE" filter="url(#f1h7wujwzsuzjd)" height="117.1797" id="GameStateMachine" style="stroke: #A80036; stroke-width: 1.5;" width="374" x="204" y="144"/><ellipse cx="332.75" cy="160" fill="#A9DCDF" rx="11" ry="11" style="stroke: #A80036; stroke-width: 1.0;"/><path d="M334.9375,161.7656 L330.7969,161.7656 L330.375,162.7969 L330.7969,162.7969 Q331.4063,162.7969 331.6719,163.0313 Q331.9375,163.2656 331.9375,163.6563 Q331.9375,164.0313 331.6719,164.2656 Q331.4063,164.5 330.7969,164.5 L328.5,164.5 Q327.8906,164.5 327.6328,164.2656 Q327.375,164.0313 327.375,163.6406 Q327.375,163.2656 327.6484,163.0234 Q327.9219,162.7813 328.5469,162.7969 L331.2188,156.1406 L330.1094,156.1406 Q329.5,156.1406 329.2344,155.9063 Q328.9688,155.6719 328.9688,155.2813 Q328.9688,154.9063 329.2344,154.6719 Q329.5,154.4375 330.1094,154.4375 L333.7813,154.4375 L337.1719,162.7969 Q337.7656,162.7969 337.9531,162.9375 Q338.3438,163.2031 338.3438,163.6563 Q338.3438,164.0313 338.0859,164.2656 Q337.8281,164.5 337.2188,164.5 L334.9219,164.5 Q334.3125,164.5 334.0469,164.2656 Q333.7813,164.0313 333.7813,163.6406 Q333.7813,163.2656 334.0469,163.0313 Q334.3125,162.7969 334.9219,162.7969 L335.3438,162.7969 L334.9375,161.7656 Z M334.2188,160.0625 L332.8594,156.6875 L331.4844,160.0625 L334.2188,160.0625 Z "/><text fill="#000000" font-family="sans-serif" font-size="12" font-style="italic" lengthAdjust="spacingAndGlyphs" textLength="108" x="353.25" y="164.9102">GameStateMachine</text><line style="stroke: #A80036; stroke-width: 1.5;" x1="205" x2="577" y1="176" y2="176"/><polygon fill="none" points="215,184.418,211,190.418,219,190.418" style="stroke: #1963A0; stroke-width: 1.0;"/><text fill="#000000" font-family="sans-serif" font-size="11" lengthAdjust="spacingAndGlyphs" textLength="132" x="224" y="191.4189">TransitionData currentState</text><line style="stroke: #A80036; stroke-width: 1.5;" x1="205" x2="577" y1="197.8359" y2="197.8359"/><ellipse cx="215" cy="210.2539" fill="#84BE84" rx="3" ry="3" style="stroke: #038048; stroke-width: 1.0;"/><text fill="#000000" font-family="sans-serif" font-size="11" lengthAdjust="spacingAndGlyphs" textLength="290" x="224" y="213.2549">void SyncGameState(GameState, Dictionary&lt;string, object&gt;)</text><text fill="#000000" font-family="sans-serif" font-size="11" lengthAdjust="spacingAndGlyphs" textLength="0" x="227" y="227.0908"/><polygon fill="#4177AF" points="215,233.9258,211,239.9258,219,239.9258" style="stroke: #1963A0; stroke-width: 1.0;"/><text fill="#000000" font-family="sans-serif" font-size="11" lengthAdjust="spacingAndGlyphs" textLength="105" x="224" y="240.9268">void MainGameLoop()</text><polygon fill="#4177AF" points="215,247.7617,211,253.7617,219,253.7617" style="stroke: #1963A0; stroke-width: 1.0;"/><text fill="#000000" font-family="sans-serif" font-size="11" lengthAdjust="spacingAndGlyphs" textLength="348" x="224" y="254.7627">TransitionData UpdateGameState(GameState, Dictionary&lt;string, object&gt;)</text><!--class GameStateManager--><rect fill="#FEFECE" filter="url(#f1h7wujwzsuzjd)" height="75.6719" id="GameStateManager" style="stroke: #A80036; stroke-width: 1.5;" width="182" x="202" y="321"/><ellipse cx="235" cy="337" fill="#ADD1B2" rx="11" ry="11" style="stroke: #A80036; stroke-width: 1.0;"/><path d="M237.7656,332.875 Q237.9219,332.6563 238.1094,332.5469 Q238.2969,332.4375 238.5156,332.4375 Q238.8906,332.4375 239.125,332.6953 Q239.3594,332.9531 239.3594,333.5625 L239.3594,335.0156 Q239.3594,335.625 239.125,335.8906 Q238.8906,336.1563 238.5156,336.1563 Q238.1719,336.1563 237.9688,335.9531 Q237.7656,335.7656 237.6563,335.25 Q237.6094,334.8906 237.4219,334.7031 Q237.0938,334.3281 236.4844,334.1094 Q235.875,333.8906 235.25,333.8906 Q234.4844,333.8906 233.8516,334.2188 Q233.2188,334.5469 232.7266,335.2969 Q232.2344,336.0469 232.2344,337.0781 L232.2344,338.1719 Q232.2344,339.4063 233.125,340.2266 Q234.0156,341.0469 235.6094,341.0469 Q236.5469,341.0469 237.2031,340.7969 Q237.5938,340.6406 238.0156,340.2031 Q238.2813,339.9375 238.4297,339.8594 Q238.5781,339.7813 238.7813,339.7813 Q239.1094,339.7813 239.3672,340.0391 Q239.625,340.2969 239.625,340.6406 Q239.625,340.9844 239.2813,341.3906 Q238.7813,341.9688 237.9844,342.2969 Q236.9063,342.75 235.6094,342.75 Q234.0938,342.75 232.8906,342.125 Q231.9063,341.625 231.2188,340.5547 Q230.5313,339.4844 230.5313,338.2031 L230.5313,337.0469 Q230.5313,335.7188 231.1484,334.5703 Q231.7656,333.4219 232.8594,332.8047 Q233.9531,332.1875 235.1875,332.1875 Q235.9219,332.1875 236.5703,332.3516 Q237.2188,332.5156 237.7656,332.875 Z "/><text fill="#000000" font-family="sans-serif" font-size="12" lengthAdjust="spacingAndGlyphs" textLength="110" x="253" y="341.9102">GameStateManager</text><line style="stroke: #A80036; stroke-width: 1.5;" x1="203" x2="383" y1="353" y2="353"/><line style="stroke: #A80036; stroke-width: 1.5;" x1="203" x2="383" y1="361" y2="361"/><ellipse cx="213" cy="373.418" fill="#84BE84" rx="3" ry="3" style="stroke: #038048; stroke-width: 1.0;"/><text fill="#000000" font-family="sans-serif" font-size="11" lengthAdjust="spacingAndGlyphs" textLength="156" x="222" y="376.4189">bool ProcessClientStateUpdate()</text><ellipse cx="213" cy="387.2539" fill="#84BE84" rx="3" ry="3" style="stroke: #038048; stroke-width: 1.0;"/><text fill="#000000" font-family="sans-serif" font-size="11" lengthAdjust="spacingAndGlyphs" textLength="94" x="222" y="390.2549">bool OnPlayerJoin()</text><!--class PubSubService--><rect fill="#FEFECE" filter="url(#f1h7wujwzsuzjd)" height="75.6719" id="PubSubService" style="stroke: #A80036; stroke-width: 1.5;" width="182" x="6" y="457"/><ellipse cx="50.75" cy="473" fill="#ADD1B2" rx="11" ry="11" style="stroke: #A80036; stroke-width: 1.0;"/><path d="M53.5156,468.875 Q53.6719,468.6563 53.8594,468.5469 Q54.0469,468.4375 54.2656,468.4375 Q54.6406,468.4375 54.875,468.6953 Q55.1094,468.9531 55.1094,469.5625 L55.1094,471.0156 Q55.1094,471.625 54.875,471.8906 Q54.6406,472.1563 54.2656,472.1563 Q53.9219,472.1563 53.7188,471.9531 Q53.5156,471.7656 53.4063,471.25 Q53.3594,470.8906 53.1719,470.7031 Q52.8438,470.3281 52.2344,470.1094 Q51.625,469.8906 51,469.8906 Q50.2344,469.8906 49.6016,470.2188 Q48.9688,470.5469 48.4766,471.2969 Q47.9844,472.0469 47.9844,473.0781 L47.9844,474.1719 Q47.9844,475.4063 48.875,476.2266 Q49.7656,477.0469 51.3594,477.0469 Q52.2969,477.0469 52.9531,476.7969 Q53.3438,476.6406 53.7656,476.2031 Q54.0313,475.9375 54.1797,475.8594 Q54.3281,475.7813 54.5313,475.7813 Q54.8594,475.7813 55.1172,476.0391 Q55.375,476.2969 55.375,476.6406 Q55.375,476.9844 55.0313,477.3906 Q54.5313,477.9688 53.7344,478.2969 Q52.6563,478.75 51.3594,478.75 Q49.8438,478.75 48.6406,478.125 Q47.6563,477.625 46.9688,476.5547 Q46.2813,475.4844 46.2813,474.2031 L46.2813,473.0469 Q46.2813,471.7188 46.8984,470.5703 Q47.5156,469.4219 48.6094,468.8047 Q49.7031,468.1875 50.9375,468.1875 Q51.6719,468.1875 52.3203,468.3516 Q52.9688,468.5156 53.5156,468.875 Z "/><text fill="#000000" font-family="sans-serif" font-size="12" lengthAdjust="spacingAndGlyphs" textLength="84" x="71.25" y="477.9102">PubSubService</text><line style="stroke: #A80036; stroke-width: 1.5;" x1="7" x2="187" y1="489" y2="489"/><line style="stroke: #A80036; stroke-width: 1.5;" x1="7" x2="187" y1="497" y2="497"/><ellipse cx="17" cy="509.418" fill="#84BE84" rx="3" ry="3" style="stroke: #038048; stroke-width: 1.0;"/><text fill="#000000" font-family="sans-serif" font-size="11" lengthAdjust="spacingAndGlyphs" textLength="152" x="26" y="512.4189">bool PublishGameStateUpdate()</text><ellipse cx="17" cy="523.2539" fill="#84BE84" rx="3" ry="3" style="stroke: #038048; stroke-width: 1.0;"/><text fill="#000000" font-family="sans-serif" font-size="11" lengthAdjust="spacingAndGlyphs" textLength="156" x="26" y="526.2549">bool ProcessClientStateUpdate()</text><!--class CallbackClient--><rect fill="#FEFECE" filter="url(#f1h7wujwzsuzjd)" height="61.8359" id="CallbackClient" style="stroke: #A80036; stroke-width: 1.5;" width="144" x="223" y="464"/><ellipse cx="252.4" cy="480" fill="#ADD1B2" rx="11" ry="11" style="stroke: #A80036; stroke-width: 1.0;"/><path d="M255.1656,475.875 Q255.3219,475.6563 255.5094,475.5469 Q255.6969,475.4375 255.9156,475.4375 Q256.2906,475.4375 256.525,475.6953 Q256.7594,475.9531 256.7594,476.5625 L256.7594,478.0156 Q256.7594,478.625 256.525,478.8906 Q256.2906,479.1563 255.9156,479.1563 Q255.5719,479.1563 255.3688,478.9531 Q255.1656,478.7656 255.0563,478.25 Q255.0094,477.8906 254.8219,477.7031 Q254.4938,477.3281 253.8844,477.1094 Q253.275,476.8906 252.65,476.8906 Q251.8844,476.8906 251.2516,477.2188 Q250.6188,477.5469 250.1266,478.2969 Q249.6344,479.0469 249.6344,480.0781 L249.6344,481.1719 Q249.6344,482.4063 250.525,483.2266 Q251.4156,484.0469 253.0094,484.0469 Q253.9469,484.0469 254.6031,483.7969 Q254.9938,483.6406 255.4156,483.2031 Q255.6813,482.9375 255.8297,482.8594 Q255.9781,482.7813 256.1813,482.7813 Q256.5094,482.7813 256.7672,483.0391 Q257.025,483.2969 257.025,483.6406 Q257.025,483.9844 256.6813,484.3906 Q256.1813,484.9688 255.3844,485.2969 Q254.3063,485.75 253.0094,485.75 Q251.4938,485.75 250.2906,485.125 Q249.3063,484.625 248.6188,483.5547 Q247.9313,482.4844 247.9313,481.2031 L247.9313,480.0469 Q247.9313,478.7188 248.5484,477.5703 Q249.1656,476.4219 250.2594,475.8047 Q251.3531,475.1875 252.5875,475.1875 Q253.3219,475.1875 253.9703,475.3516 Q254.6188,475.5156 255.1656,475.875 Z "/><text fill="#000000" font-family="sans-serif" font-size="12" lengthAdjust="spacingAndGlyphs" textLength="80" x="269.6" y="484.9102">CallbackClient</text><line style="stroke: #A80036; stroke-width: 1.5;" x1="224" x2="366" y1="496" y2="496"/><line style="stroke: #A80036; stroke-width: 1.5;" x1="224" x2="366" y1="504" y2="504"/><ellipse cx="234" cy="516.418" fill="#84BE84" rx="3" ry="3" style="stroke: #038048; stroke-width: 1.0;"/><text fill="#000000" font-family="sans-serif" font-size="11" lengthAdjust="spacingAndGlyphs" textLength="118" x="243" y="519.4189">bool GameStateUpdate()</text><!--class ClientStateManager--><rect fill="#FEFECE" filter="url(#f1h7wujwzsuzjd)" height="75.6719" id="ClientStateManager" style="stroke: #A80036; stroke-width: 1.5;" width="140" x="419" y="321"/><ellipse cx="434" cy="337" fill="#ADD1B2" rx="11" ry="11" style="stroke: #A80036; stroke-width: 1.0;"/><path d="M436.7656,332.875 Q436.9219,332.6563 437.1094,332.5469 Q437.2969,332.4375 437.5156,332.4375 Q437.8906,332.4375 438.125,332.6953 Q438.3594,332.9531 438.3594,333.5625 L438.3594,335.0156 Q438.3594,335.625 438.125,335.8906 Q437.8906,336.1563 437.5156,336.1563 Q437.1719,336.1563 436.9688,335.9531 Q436.7656,335.7656 436.6563,335.25 Q436.6094,334.8906 436.4219,334.7031 Q436.0938,334.3281 435.4844,334.1094 Q434.875,333.8906 434.25,333.8906 Q433.4844,333.8906 432.8516,334.2188 Q432.2188,334.5469 431.7266,335.2969 Q431.2344,336.0469 431.2344,337.0781 L431.2344,338.1719 Q431.2344,339.4063 432.125,340.2266 Q433.0156,341.0469 434.6094,341.0469 Q435.5469,341.0469 436.2031,340.7969 Q436.5938,340.6406 437.0156,340.2031 Q437.2813,339.9375 437.4297,339.8594 Q437.5781,339.7813 437.7813,339.7813 Q438.1094,339.7813 438.3672,340.0391 Q438.625,340.2969 438.625,340.6406 Q438.625,340.9844 438.2813,341.3906 Q437.7813,341.9688 436.9844,342.2969 Q435.9063,342.75 434.6094,342.75 Q433.0938,342.75 431.8906,342.125 Q430.9063,341.625 430.2188,340.5547 Q429.5313,339.4844 429.5313,338.2031 L429.5313,337.0469 Q429.5313,335.7188 430.1484,334.5703 Q430.7656,333.4219 431.8594,332.8047 Q432.9531,332.1875 434.1875,332.1875 Q434.9219,332.1875 435.5703,332.3516 Q436.2188,332.5156 436.7656,332.875 Z "/><text fill="#000000" font-family="sans-serif" font-size="12" lengthAdjust="spacingAndGlyphs" textLength="108" x="448" y="341.9102">ClientStateManager</text><line style="stroke: #A80036; stroke-width: 1.5;" x1="420" x2="558" y1="353" y2="353"/><line style="stroke: #A80036; stroke-width: 1.5;" x1="420" x2="558" y1="361" y2="361"/><ellipse cx="430" cy="373.418" fill="#84BE84" rx="3" ry="3" style="stroke: #038048; stroke-width: 1.0;"/><text fill="#000000" font-family="sans-serif" font-size="11" lengthAdjust="spacingAndGlyphs" textLength="78" x="439" y="376.4189">void JoinGame()</text><ellipse cx="430" cy="387.2539" fill="#84BE84" rx="3" ry="3" style="stroke: #038048; stroke-width: 1.0;"/><text fill="#000000" font-family="sans-serif" font-size="11" lengthAdjust="spacingAndGlyphs" textLength="101" x="439" y="390.2549">bool SendDeckSize()</text><!--class PubSubClient--><rect fill="#FEFECE" filter="url(#f1h7wujwzsuzjd)" height="61.8359" id="PubSubClient" style="stroke: #A80036; stroke-width: 1.5;" width="167" x="404.5" y="464"/><ellipse cx="446.05" cy="480" fill="#ADD1B2" rx="11" ry="11" style="stroke: #A80036; stroke-width: 1.0;"/><path d="M448.8156,475.875 Q448.9719,475.6563 449.1594,475.5469 Q449.3469,475.4375 449.5656,475.4375 Q449.9406,475.4375 450.175,475.6953 Q450.4094,475.9531 450.4094,476.5625 L450.4094,478.0156 Q450.4094,478.625 450.175,478.8906 Q449.9406,479.1563 449.5656,479.1563 Q449.2219,479.1563 449.0188,478.9531 Q448.8156,478.7656 448.7063,478.25 Q448.6594,477.8906 448.4719,477.7031 Q448.1438,477.3281 447.5344,477.1094 Q446.925,476.8906 446.3,476.8906 Q445.5344,476.8906 444.9016,477.2188 Q444.2688,477.5469 443.7766,478.2969 Q443.2844,479.0469 443.2844,480.0781 L443.2844,481.1719 Q443.2844,482.4063 444.175,483.2266 Q445.0656,484.0469 446.6594,484.0469 Q447.5969,484.0469 448.2531,483.7969 Q448.6438,483.6406 449.0656,483.2031 Q449.3313,482.9375 449.4797,482.8594 Q449.6281,482.7813 449.8313,482.7813 Q450.1594,482.7813 450.4172,483.0391 Q450.675,483.2969 450.675,483.6406 Q450.675,483.9844 450.3313,484.3906 Q449.8313,484.9688 449.0344,485.2969 Q447.9563,485.75 446.6594,485.75 Q445.1438,485.75 443.9406,485.125 Q442.9563,484.625 442.2688,483.5547 Q441.5813,482.4844 441.5813,481.2031 L441.5813,480.0469 Q441.5813,478.7188 442.1984,477.5703 Q442.8156,476.4219 443.9094,475.8047 Q445.0031,475.1875 446.2375,475.1875 Q446.9719,475.1875 447.6203,475.3516 Q448.2688,475.5156 448.8156,475.875 Z "/><text fill="#000000" font-family="sans-serif" font-size="12" lengthAdjust="spacingAndGlyphs" textLength="76" x="465.95" y="484.9102">PubSubClient</text><line style="stroke: #A80036; stroke-width: 1.5;" x1="405.5" x2="570.5" y1="496" y2="496"/><line style="stroke: #A80036; stroke-width: 1.5;" x1="405.5" x2="570.5" y1="504" y2="504"/><ellipse cx="415.5" cy="516.418" fill="#84BE84" rx="3" ry="3" style="stroke: #038048; stroke-width: 1.0;"/><text fill="#000000" font-family="sans-serif" font-size="11" lengthAdjust="spacingAndGlyphs" textLength="141" x="424.5" y="519.4189">bool SendClientStateUpdate()</text><!--class CallbackServiceServer--><rect fill="#FEFECE" filter="url(#f1h7wujwzsuzjd)" height="61.8359" id="CallbackServiceServer" style="stroke: #A80036; stroke-width: 1.5;" width="196" x="607" y="464"/><ellipse cx="640.45" cy="480" fill="#ADD1B2" rx="11" ry="11" style="stroke: #A80036; stroke-width: 1.0;"/><path d="M643.2156,475.875 Q643.3719,475.6563 643.5594,475.5469 Q643.7469,475.4375 643.9656,475.4375 Q644.3406,475.4375 644.575,475.6953 Q644.8094,475.9531 644.8094,476.5625 L644.8094,478.0156 Q644.8094,478.625 644.575,478.8906 Q644.3406,479.1563 643.9656,479.1563 Q643.6219,479.1563 643.4188,478.9531 Q643.2156,478.7656 643.1063,478.25 Q643.0594,477.8906 642.8719,477.7031 Q642.5438,477.3281 641.9344,477.1094 Q641.325,476.8906 640.7,476.8906 Q639.9344,476.8906 639.3016,477.2188 Q638.6688,477.5469 638.1766,478.2969 Q637.6844,479.0469 637.6844,480.0781 L637.6844,481.1719 Q637.6844,482.4063 638.575,483.2266 Q639.4656,484.0469 641.0594,484.0469 Q641.9969,484.0469 642.6531,483.7969 Q643.0438,483.6406 643.4656,483.2031 Q643.7313,482.9375 643.8797,482.8594 Q644.0281,482.7813 644.2313,482.7813 Q644.5594,482.7813 644.8172,483.0391 Q645.075,483.2969 645.075,483.6406 Q645.075,483.9844 644.7313,484.3906 Q644.2313,484.9688 643.4344,485.2969 Q642.3563,485.75 641.0594,485.75 Q639.5438,485.75 638.3406,485.125 Q637.3563,484.625 636.6688,483.5547 Q635.9813,482.4844 635.9813,481.2031 L635.9813,480.0469 Q635.9813,478.7188 636.5984,477.5703 Q637.2156,476.4219 638.3094,475.8047 Q639.4031,475.1875 640.6375,475.1875 Q641.3719,475.1875 642.0203,475.3516 Q642.6688,475.5156 643.2156,475.875 Z "/><text fill="#000000" font-family="sans-serif" font-size="12" lengthAdjust="spacingAndGlyphs" textLength="123" x="658.55" y="484.9102">CallbackServiceServer</text><line style="stroke: #A80036; stroke-width: 1.5;" x1="608" x2="802" y1="496" y2="496"/><line style="stroke: #A80036; stroke-width: 1.5;" x1="608" x2="802" y1="504" y2="504"/><ellipse cx="618" cy="516.418" fill="#84BE84" rx="3" ry="3" style="stroke: #038048; stroke-width: 1.0;"/><text fill="#000000" font-family="sans-serif" font-size="11" lengthAdjust="spacingAndGlyphs" textLength="170" x="627" y="519.4189">bool UpdateClientGameStateView()</text><!--link MonoBehaviour to MainGameScript--><path d="M201.397,98.793 C176.658,125.71 147.653,157.269 128.389,178.229 " fill="none" id="MonoBehaviour-MainGameScript" style="stroke: #A80036; stroke-width: 1.0;"/><polygon fill="none" points="196.3,93.995,214.987,84.007,206.607,103.469,196.3,93.995" style="stroke: #A80036; stroke-width: 1.0;"/><!--link MonoBehaviour to GameStateMachine--><path d="M296.835,99.045 C310.105,113.484 324.588,129.242 338.128,143.974 " fill="none" id="MonoBehaviour-GameStateMachine" style="stroke: #A80036; stroke-width: 1.0;"/><polygon fill="none" points="291.393,103.469,283.013,84.007,301.7,93.995,291.393,103.469" style="stroke: #A80036; stroke-width: 1.0;"/><!--link GameStateMachine to GameStateManager--><path d="M343.656,278.14 C334.31,292.874 324.883,307.735 316.739,320.575 " fill="none" id="GameStateMachine-GameStateManager" style="stroke: #A80036; stroke-width: 1.0;"/><polygon fill="none" points="337.884,274.17,354.508,261.03,349.707,281.669,337.884,274.17" style="stroke: #A80036; stroke-width: 1.0;"/><!--link GameStateManager to PubSubService--><path d="M227.892,404.513 C203.104,421.46 175.14,440.5777 151.442,456.7792 " fill="none" id="GameStateManager-PubSubService" style="stroke: #A80036; stroke-width: 1.0;"/><polygon fill="#A80036" points="238.663,397.149,231.4524,397.2329,228.7566,403.9212,235.9672,403.8372,238.663,397.149" style="stroke: #A80036; stroke-width: 1.0;"/><!--link GameStateManager to CallbackClient--><path d="M293.755,410.574 C294.022,428.442 294.313,447.9698 294.547,463.6378 " fill="none" id="GameStateManager-CallbackClient" style="stroke: #A80036; stroke-width: 1.0;"/><polygon fill="#A80036" points="293.557,397.326,289.6471,403.3851,293.7363,409.3247,297.6462,403.2655,293.557,397.326" style="stroke: #A80036; stroke-width: 1.0;"/><!--link GameStateMachine to ClientStateManager--><path d="M438.344,278.14 C447.69,292.874 457.117,307.735 465.261,320.575 " fill="none" id="GameStateMachine-ClientStateManager" style="stroke: #A80036; stroke-width: 1.0;"/><polygon fill="none" points="432.293,281.669,427.492,261.03,444.116,274.17,432.293,281.669" style="stroke: #A80036; stroke-width: 1.0;"/><!--link ClientStateManager to PubSubClient--><path d="M488.623,410.574 C488.489,428.442 488.344,447.9698 488.227,463.6378 " fill="none" id="ClientStateManager-PubSubClient" style="stroke: #A80036; stroke-width: 1.0;"/><polygon fill="#A80036" points="488.721,397.326,484.6763,403.2959,488.6313,409.3257,492.6761,403.3557,488.721,397.326" style="stroke: #A80036; stroke-width: 1.0;"/><!--link ClientStateManager to CallbackServiceServer--><path d="M560.287,404.224 C591.894,423.833 628.263,446.3949 656.635,463.9956 " fill="none" id="ClientStateManager-CallbackServiceServer" style="stroke: #A80036; stroke-width: 1.0;"/><polygon fill="#A80036" points="548.881,397.149,551.8705,403.7112,559.0777,403.4756,556.0883,396.9134,548.881,397.149" style="stroke: #A80036; stroke-width: 1.0;"/><!--
@startuml

class MonoBehaviour {
	private void start()
	private void update()
}

class MainGameScript {

}

MonoBehaviour <|- - MainGameScript

abstract class GameStateMachine {
	~ TransitionData currentState

	+ void SyncGameState(GameState, Dictionary<string, object>)

	~ void MainGameLoop()
	~ TransitionData UpdateGameState(GameState, Dictionary<string, object>)
}

MonoBehaviour <|- - GameStateMachine


class GameStateManager {
	+ bool ProcessClientStateUpdate()
	+ bool OnPlayerJoin()
}

class PubSubService {
	+ bool PublishGameStateUpdate()
	+ bool ProcessClientStateUpdate()
}

class CallbackClient {
	+ bool GameStateUpdate()
}

GameStateMachine <|- - GameStateManager
GameStateManager *- - PubSubService
GameStateManager *- - CallbackClient


class ClientStateManager {
	+ void JoinGame()
	+ bool SendDeckSize()
}

class PubSubClient {
	+ bool SendClientStateUpdate()
}

class CallbackServiceServer {
	+ bool UpdateClientGameStateView()
}

GameStateMachine <|- - ClientStateManager
ClientStateManager *- - PubSubClient
ClientStateManager *- - CallbackServiceServer

@enduml

PlantUML version 1.2018.03(Thu Apr 05 12:59:15 EDT 2018)
(GPL source distribution)
Java Runtime: Java(TM) SE Runtime Environment
JVM: Java HotSpot(TM) Client VM
Java Version: 1.8.0_161-b12
Operating System: Windows 10
OS Version: 10.0
Default Encoding: Cp1252
Language: en
Country: US
--></g></svg>