<?xml version="1.0" encoding="UTF-8" standalone="no"?><svg xmlns="http://www.w3.org/2000/svg" xmlns:xlink="http://www.w3.org/1999/xlink" contentScriptType="application/ecmascript" contentStyleType="text/css" height="1024px" preserveAspectRatio="none" style="width:1767px;height:1024px;" version="1.1" viewBox="0 0 1767 1024" width="1767px" zoomAndPan="magnify"><defs><filter height="300%" id="f1q86nn87xmpsw" width="300%" x="-1" y="-1"><feGaussianBlur result="blurOut" stdDeviation="2.0"/><feColorMatrix in="blurOut" result="blurOut2" type="matrix" values="0 0 0 0 0 0 0 0 0 0 0 0 0 0 0 0 0 0 .4 0"/><feOffset dx="4.0" dy="4.0" in="blurOut2" result="blurOut3"/><feBlend in="SourceGraphic" in2="blurOut3" mode="normal"/></filter></defs><g><line style="stroke: #A80036; stroke-width: 1.0; stroke-dasharray: 5.0,5.0;" x1="74" x2="74" y1="39.6094" y2="983.1563"/><line style="stroke: #A80036; stroke-width: 1.0; stroke-dasharray: 5.0,5.0;" x1="207" x2="207" y1="39.6094" y2="983.1563"/><line style="stroke: #A80036; stroke-width: 1.0; stroke-dasharray: 5.0,5.0;" x1="375.5" x2="375.5" y1="39.6094" y2="983.1563"/><line style="stroke: #A80036; stroke-width: 1.0; stroke-dasharray: 5.0,5.0;" x1="500.5" x2="500.5" y1="39.6094" y2="983.1563"/><line style="stroke: #A80036; stroke-width: 1.0; stroke-dasharray: 5.0,5.0;" x1="634.5" x2="634.5" y1="39.6094" y2="983.1563"/><line style="stroke: #A80036; stroke-width: 1.0; stroke-dasharray: 5.0,5.0;" x1="792.5" x2="792.5" y1="39.6094" y2="983.1563"/><line style="stroke: #A80036; stroke-width: 1.0; stroke-dasharray: 5.0,5.0;" x1="983.5" x2="983.5" y1="39.6094" y2="983.1563"/><line style="stroke: #A80036; stroke-width: 1.0; stroke-dasharray: 5.0,5.0;" x1="1125.5" x2="1125.5" y1="39.6094" y2="983.1563"/><line style="stroke: #A80036; stroke-width: 1.0; stroke-dasharray: 5.0,5.0;" x1="1275.5" x2="1275.5" y1="39.6094" y2="983.1563"/><line style="stroke: #A80036; stroke-width: 1.0; stroke-dasharray: 5.0,5.0;" x1="1399.5" x2="1399.5" y1="39.6094" y2="983.1563"/><line style="stroke: #A80036; stroke-width: 1.0; stroke-dasharray: 5.0,5.0;" x1="1504.5" x2="1504.5" y1="39.6094" y2="983.1563"/><line style="stroke: #A80036; stroke-width: 1.0; stroke-dasharray: 5.0,5.0;" x1="1599.5" x2="1599.5" y1="39.6094" y2="983.1563"/><line style="stroke: #A80036; stroke-width: 1.0; stroke-dasharray: 5.0,5.0;" x1="1706.5" x2="1706.5" y1="39.6094" y2="983.1563"/><rect fill="#FEFECE" filter="url(#f1q86nn87xmpsw)" height="31.6094" style="stroke: #A80036; stroke-width: 1.5;" width="128" x="8" y="3"/><text fill="#000000" font-family="sans-serif" font-size="14" lengthAdjust="spacingAndGlyphs" textLength="114" x="15" y="24.5332">GameStateMaster</text><rect fill="#FEFECE" filter="url(#f1q86nn87xmpsw)" height="31.6094" style="stroke: #A80036; stroke-width: 1.5;" width="128" x="8" y="982.1563"/><text fill="#000000" font-family="sans-serif" font-size="14" lengthAdjust="spacingAndGlyphs" textLength="114" x="15" y="1003.6895">GameStateMaster</text><rect fill="#FEFECE" filter="url(#f1q86nn87xmpsw)" height="31.6094" style="stroke: #A80036; stroke-width: 1.5;" width="111" x="150" y="3"/><text fill="#000000" font-family="sans-serif" font-size="14" lengthAdjust="spacingAndGlyphs" textLength="97" x="157" y="24.5332">PubSubService</text><rect fill="#FEFECE" filter="url(#f1q86nn87xmpsw)" height="31.6094" style="stroke: #A80036; stroke-width: 1.5;" width="111" x="150" y="982.1563"/><text fill="#000000" font-family="sans-serif" font-size="14" lengthAdjust="spacingAndGlyphs" textLength="97" x="157" y="1003.6895">PubSubService</text><rect fill="#FEFECE" filter="url(#f1q86nn87xmpsw)" height="31.6094" style="stroke: #A80036; stroke-width: 1.5;" width="132" x="307.5" y="3"/><text fill="#000000" font-family="sans-serif" font-size="14" lengthAdjust="spacingAndGlyphs" textLength="118" x="314.5" y="24.5332">ComServiceServer</text><rect fill="#FEFECE" filter="url(#f1q86nn87xmpsw)" height="31.6094" style="stroke: #A80036; stroke-width: 1.5;" width="132" x="307.5" y="982.1563"/><text fill="#000000" font-family="sans-serif" font-size="14" lengthAdjust="spacingAndGlyphs" textLength="118" x="314.5" y="1003.6895">ComServiceServer</text><rect fill="#FEFECE" filter="url(#f1q86nn87xmpsw)" height="31.6094" style="stroke: #A80036; stroke-width: 1.5;" width="90" x="453.5" y="3"/><text fill="#000000" font-family="sans-serif" font-size="14" lengthAdjust="spacingAndGlyphs" textLength="76" x="460.5" y="24.5332">ComService</text><rect fill="#FEFECE" filter="url(#f1q86nn87xmpsw)" height="31.6094" style="stroke: #A80036; stroke-width: 1.5;" width="90" x="453.5" y="982.1563"/><text fill="#000000" font-family="sans-serif" font-size="14" lengthAdjust="spacingAndGlyphs" textLength="76" x="460.5" y="1003.6895">ComService</text><rect fill="#FEFECE" filter="url(#f1q86nn87xmpsw)" height="31.6094" style="stroke: #A80036; stroke-width: 1.5;" width="151" x="557.5" y="3"/><text fill="#000000" font-family="sans-serif" font-size="14" lengthAdjust="spacingAndGlyphs" textLength="137" x="564.5" y="24.5332">Master Client Network</text><rect fill="#FEFECE" filter="url(#f1q86nn87xmpsw)" height="31.6094" style="stroke: #A80036; stroke-width: 1.5;" width="151" x="557.5" y="982.1563"/><text fill="#000000" font-family="sans-serif" font-size="14" lengthAdjust="spacingAndGlyphs" textLength="137" x="564.5" y="1003.6895">Master Client Network</text><rect fill="#FEFECE" filter="url(#f1q86nn87xmpsw)" height="31.6094" style="stroke: #A80036; stroke-width: 1.5;" width="136" x="722.5" y="3"/><text fill="#000000" font-family="sans-serif" font-size="14" lengthAdjust="spacingAndGlyphs" textLength="122" x="729.5" y="24.5332">ClientNetworkScript</text><rect fill="#FEFECE" filter="url(#f1q86nn87xmpsw)" height="31.6094" style="stroke: #A80036; stroke-width: 1.5;" width="136" x="722.5" y="982.1563"/><text fill="#000000" font-family="sans-serif" font-size="14" lengthAdjust="spacingAndGlyphs" textLength="122" x="729.5" y="1003.6895">ClientNetworkScript</text><rect fill="#FEFECE" filter="url(#f1q86nn87xmpsw)" height="31.6094" style="stroke: #A80036; stroke-width: 1.5;" width="100" x="931.5" y="3"/><text fill="#000000" font-family="sans-serif" font-size="14" lengthAdjust="spacingAndGlyphs" textLength="86" x="938.5" y="24.5332">PubSubClient</text><rect fill="#FEFECE" filter="url(#f1q86nn87xmpsw)" height="31.6094" style="stroke: #A80036; stroke-width: 1.5;" width="100" x="931.5" y="982.1563"/><text fill="#000000" font-family="sans-serif" font-size="14" lengthAdjust="spacingAndGlyphs" textLength="86" x="938.5" y="1003.6895">PubSubClient</text><rect fill="#FEFECE" filter="url(#f1q86nn87xmpsw)" height="31.6094" style="stroke: #A80036; stroke-width: 1.5;" width="157" x="1045.5" y="3"/><text fill="#000000" font-family="sans-serif" font-size="14" lengthAdjust="spacingAndGlyphs" textLength="143" x="1052.5" y="24.5332">CallbackServiceServer</text><rect fill="#FEFECE" filter="url(#f1q86nn87xmpsw)" height="31.6094" style="stroke: #A80036; stroke-width: 1.5;" width="157" x="1045.5" y="982.1563"/><text fill="#000000" font-family="sans-serif" font-size="14" lengthAdjust="spacingAndGlyphs" textLength="143" x="1052.5" y="1003.6895">CallbackServiceServer</text><rect fill="#FEFECE" filter="url(#f1q86nn87xmpsw)" height="31.6094" style="stroke: #A80036; stroke-width: 1.5;" width="115" x="1216.5" y="3"/><text fill="#000000" font-family="sans-serif" font-size="14" lengthAdjust="spacingAndGlyphs" textLength="101" x="1223.5" y="24.5332">CallbackService</text><rect fill="#FEFECE" filter="url(#f1q86nn87xmpsw)" height="31.6094" style="stroke: #A80036; stroke-width: 1.5;" width="115" x="1216.5" y="982.1563"/><text fill="#000000" font-family="sans-serif" font-size="14" lengthAdjust="spacingAndGlyphs" textLength="101" x="1223.5" y="1003.6895">CallbackService</text><rect fill="#FEFECE" filter="url(#f1q86nn87xmpsw)" height="31.6094" style="stroke: #A80036; stroke-width: 1.5;" width="104" x="1345.5" y="3"/><text fill="#000000" font-family="sans-serif" font-size="14" lengthAdjust="spacingAndGlyphs" textLength="90" x="1352.5" y="24.5332">Client Network</text><rect fill="#FEFECE" filter="url(#f1q86nn87xmpsw)" height="31.6094" style="stroke: #A80036; stroke-width: 1.5;" width="104" x="1345.5" y="982.1563"/><text fill="#000000" font-family="sans-serif" font-size="14" lengthAdjust="spacingAndGlyphs" textLength="90" x="1352.5" y="1003.6895">Client Network</text><rect fill="#FEFECE" filter="url(#f1q86nn87xmpsw)" height="31.6094" style="stroke: #A80036; stroke-width: 1.5;" width="79" x="1463.5" y="3"/><text fill="#000000" font-family="sans-serif" font-size="14" lengthAdjust="spacingAndGlyphs" textLength="65" x="1470.5" y="24.5332">ComClient</text><rect fill="#FEFECE" filter="url(#f1q86nn87xmpsw)" height="31.6094" style="stroke: #A80036; stroke-width: 1.5;" width="79" x="1463.5" y="982.1563"/><text fill="#000000" font-family="sans-serif" font-size="14" lengthAdjust="spacingAndGlyphs" textLength="65" x="1470.5" y="1003.6895">ComClient</text><rect fill="#FEFECE" filter="url(#f1q86nn87xmpsw)" height="31.6094" style="stroke: #A80036; stroke-width: 1.5;" width="82" x="1556.5" y="3"/><text fill="#000000" font-family="sans-serif" font-size="14" lengthAdjust="spacingAndGlyphs" textLength="68" x="1563.5" y="24.5332">Subscriber</text><rect fill="#FEFECE" filter="url(#f1q86nn87xmpsw)" height="31.6094" style="stroke: #A80036; stroke-width: 1.5;" width="82" x="1556.5" y="982.1563"/><text fill="#000000" font-family="sans-serif" font-size="14" lengthAdjust="spacingAndGlyphs" textLength="68" x="1563.5" y="1003.6895">Subscriber</text><rect fill="#FEFECE" filter="url(#f1q86nn87xmpsw)" height="31.6094" style="stroke: #A80036; stroke-width: 1.5;" width="104" x="1652.5" y="3"/><text fill="#000000" font-family="sans-serif" font-size="14" lengthAdjust="spacingAndGlyphs" textLength="90" x="1659.5" y="24.5332">CallbackClient</text><rect fill="#FEFECE" filter="url(#f1q86nn87xmpsw)" height="31.6094" style="stroke: #A80036; stroke-width: 1.5;" width="104" x="1652.5" y="982.1563"/><text fill="#000000" font-family="sans-serif" font-size="14" lengthAdjust="spacingAndGlyphs" textLength="90" x="1659.5" y="1003.6895">CallbackClient</text><polygon fill="#A80036" points="195.5,67.9609,205.5,71.9609,195.5,75.9609,199.5,71.9609" style="stroke: #A80036; stroke-width: 1.0;"/><line style="stroke: #A80036; stroke-width: 1.0;" x1="74" x2="201.5" y1="71.9609" y2="71.9609"/><text fill="#000000" font-family="sans-serif" font-size="13" lengthAdjust="spacingAndGlyphs" textLength="63" x="81" y="67.1045">create new</text><polygon fill="#A80036" points="363.5,98.3125,373.5,102.3125,363.5,106.3125,367.5,102.3125" style="stroke: #A80036; stroke-width: 1.0;"/><line style="stroke: #A80036; stroke-width: 1.0;" x1="207.5" x2="369.5" y1="102.3125" y2="102.3125"/><text fill="#000000" font-family="sans-serif" font-size="13" lengthAdjust="spacingAndGlyphs" textLength="63" x="214.5" y="97.4561">create new</text><polygon fill="#A80036" points="363.5,128.6641,373.5,132.6641,363.5,136.6641,367.5,132.6641" style="stroke: #A80036; stroke-width: 1.0;"/><line style="stroke: #A80036; stroke-width: 1.0;" x1="207.5" x2="369.5" y1="132.6641" y2="132.6641"/><text fill="#000000" font-family="sans-serif" font-size="13" lengthAdjust="spacingAndGlyphs" textLength="78" x="214.5" y="127.8076">StartService()</text><polygon fill="#A80036" points="488.5,159.0156,498.5,163.0156,488.5,167.0156,492.5,163.0156" style="stroke: #A80036; stroke-width: 1.0;"/><line style="stroke: #A80036; stroke-width: 1.0;" x1="375.5" x2="494.5" y1="163.0156" y2="163.0156"/><text fill="#000000" font-family="sans-serif" font-size="13" lengthAdjust="spacingAndGlyphs" textLength="63" x="382.5" y="158.1592">create new</text><polygon fill="#A80036" points="623,189.3672,633,193.3672,623,197.3672,627,193.3672" style="stroke: #A80036; stroke-width: 1.0;"/><line style="stroke: #A80036; stroke-width: 1.0;" x1="500.5" x2="629" y1="193.3672" y2="193.3672"/><text fill="#000000" font-family="sans-serif" font-size="13" lengthAdjust="spacingAndGlyphs" textLength="39" x="507.5" y="188.5107">bind to</text><polygon fill="#A80036" points="971.5,219.7188,981.5,223.7188,971.5,227.7188,975.5,223.7188" style="stroke: #A80036; stroke-width: 1.0;"/><line style="stroke: #A80036; stroke-width: 1.0;" x1="792.5" x2="977.5" y1="223.7188" y2="223.7188"/><text fill="#000000" font-family="sans-serif" font-size="13" lengthAdjust="spacingAndGlyphs" textLength="63" x="799.5" y="218.8623">create new</text><polygon fill="#A80036" points="1114,250.0703,1124,254.0703,1114,258.0703,1118,254.0703" style="stroke: #A80036; stroke-width: 1.0;"/><line style="stroke: #A80036; stroke-width: 1.0;" x1="792.5" x2="1120" y1="254.0703" y2="254.0703"/><text fill="#000000" font-family="sans-serif" font-size="13" lengthAdjust="spacingAndGlyphs" textLength="63" x="799.5" y="249.2139">create new</text><polygon fill="#A80036" points="1114,280.4219,1124,284.4219,1114,288.4219,1118,284.4219" style="stroke: #A80036; stroke-width: 1.0;"/><line style="stroke: #A80036; stroke-width: 1.0;" x1="792.5" x2="1120" y1="284.4219" y2="284.4219"/><text fill="#000000" font-family="sans-serif" font-size="13" lengthAdjust="spacingAndGlyphs" textLength="78" x="799.5" y="279.5654">StartService()</text><polygon fill="#A80036" points="1264,310.7734,1274,314.7734,1264,318.7734,1268,314.7734" style="stroke: #A80036; stroke-width: 1.0;"/><line style="stroke: #A80036; stroke-width: 1.0;" x1="1126" x2="1270" y1="314.7734" y2="314.7734"/><text fill="#000000" font-family="sans-serif" font-size="13" lengthAdjust="spacingAndGlyphs" textLength="63" x="1133" y="309.917">create new</text><polygon fill="#A80036" points="1387.5,341.125,1397.5,345.125,1387.5,349.125,1391.5,345.125" style="stroke: #A80036; stroke-width: 1.0;"/><line style="stroke: #A80036; stroke-width: 1.0;" x1="1276" x2="1393.5" y1="345.125" y2="345.125"/><text fill="#000000" font-family="sans-serif" font-size="13" lengthAdjust="spacingAndGlyphs" textLength="39" x="1283" y="340.2686">bind to</text><polygon fill="#A80036" points="1493,371.4766,1503,375.4766,1493,379.4766,1497,375.4766" style="stroke: #A80036; stroke-width: 1.0;"/><line style="stroke: #A80036; stroke-width: 1.0;" x1="983.5" x2="1499" y1="375.4766" y2="375.4766"/><text fill="#000000" font-family="sans-serif" font-size="13" lengthAdjust="spacingAndGlyphs" textLength="63" x="990.5" y="370.6201">create new</text><polygon fill="#A80036" points="971.5,401.8281,981.5,405.8281,971.5,409.8281,975.5,405.8281" style="stroke: #A80036; stroke-width: 1.0;"/><line style="stroke: #A80036; stroke-width: 1.0;" x1="792.5" x2="977.5" y1="405.8281" y2="405.8281"/><text fill="#000000" font-family="sans-serif" font-size="13" lengthAdjust="spacingAndGlyphs" textLength="89" x="799.5" y="400.9717">ClientConnect()</text><polygon fill="#A80036" points="1493,432.1797,1503,436.1797,1493,440.1797,1497,436.1797" style="stroke: #A80036; stroke-width: 1.0;"/><line style="stroke: #A80036; stroke-width: 1.0;" x1="983.5" x2="1499" y1="436.1797" y2="436.1797"/><text fill="#000000" font-family="sans-serif" font-size="13" lengthAdjust="spacingAndGlyphs" textLength="76" x="990.5" y="431.3232">PingService()</text><polygon fill="#A80036" points="511.5,462.5313,501.5,466.5313,511.5,470.5313,507.5,466.5313" style="stroke: #A80036; stroke-width: 1.0;"/><line style="stroke: #A80036; stroke-width: 1.0;" x1="505.5" x2="1504" y1="466.5313" y2="466.5313"/><text fill="#000000" font-family="sans-serif" font-size="13" lengthAdjust="spacingAndGlyphs" textLength="154" x="517.5" y="461.6748">PingService() RPC request</text><polygon fill="#A80036" points="1493,492.8828,1503,496.8828,1493,500.8828,1497,496.8828" style="stroke: #A80036; stroke-width: 1.0;"/><line style="stroke: #A80036; stroke-width: 1.0;" x1="500.5" x2="1499" y1="496.8828" y2="496.8828"/><text fill="#000000" font-family="sans-serif" font-size="13" lengthAdjust="spacingAndGlyphs" textLength="164" x="507.5" y="492.0264">PingService() RPC response</text><polygon fill="#A80036" points="971.5,523.2344,981.5,527.2344,971.5,531.2344,975.5,527.2344" style="stroke: #A80036; stroke-width: 1.0;"/><line style="stroke: #A80036; stroke-width: 1.0;" x1="792.5" x2="977.5" y1="527.2344" y2="527.2344"/><text fill="#000000" font-family="sans-serif" font-size="13" lengthAdjust="spacingAndGlyphs" textLength="167" x="799.5" y="522.3779">JoinGame() calls Subscribe()</text><polygon fill="#A80036" points="1493,553.5859,1503,557.5859,1493,561.5859,1497,557.5859" style="stroke: #A80036; stroke-width: 1.0;"/><line style="stroke: #A80036; stroke-width: 1.0;" x1="983.5" x2="1499" y1="557.5859" y2="557.5859"/><text fill="#000000" font-family="sans-serif" font-size="13" lengthAdjust="spacingAndGlyphs" textLength="66" x="990.5" y="552.7295">Subscribe()</text><polygon fill="#A80036" points="511.5,583.9375,501.5,587.9375,511.5,591.9375,507.5,587.9375" style="stroke: #A80036; stroke-width: 1.0;"/><line style="stroke: #A80036; stroke-width: 1.0;" x1="505.5" x2="1504" y1="587.9375" y2="587.9375"/><text fill="#000000" font-family="sans-serif" font-size="13" lengthAdjust="spacingAndGlyphs" textLength="144" x="517.5" y="583.0811">Subscribe() RPC request</text><polygon fill="#A80036" points="218.5,614.2891,208.5,618.2891,218.5,622.2891,214.5,618.2891" style="stroke: #A80036; stroke-width: 1.0;"/><line style="stroke: #A80036; stroke-width: 1.0;" x1="212.5" x2="499.5" y1="618.2891" y2="618.2891"/><text fill="#000000" font-family="sans-serif" font-size="13" lengthAdjust="spacingAndGlyphs" textLength="66" x="224.5" y="613.4326">Subscribe()</text><line style="stroke: #A80036; stroke-width: 1.0;" x1="207.5" x2="249.5" y1="648.6406" y2="648.6406"/><line style="stroke: #A80036; stroke-width: 1.0;" x1="249.5" x2="249.5" y1="648.6406" y2="661.6406"/><line style="stroke: #A80036; stroke-width: 1.0;" x1="208.5" x2="249.5" y1="661.6406" y2="661.6406"/><polygon fill="#A80036" points="218.5,657.6406,208.5,661.6406,218.5,665.6406,214.5,661.6406" style="stroke: #A80036; stroke-width: 1.0;"/><text fill="#000000" font-family="sans-serif" font-size="13" lengthAdjust="spacingAndGlyphs" textLength="154" x="214.5" y="643.7842">AddSubscriberToChannel()</text><polygon fill="#A80036" points="1587.5,687.9922,1597.5,691.9922,1587.5,695.9922,1591.5,691.9922" style="stroke: #A80036; stroke-width: 1.0;"/><line style="stroke: #A80036; stroke-width: 1.0;" x1="207.5" x2="1593.5" y1="691.9922" y2="691.9922"/><text fill="#000000" font-family="sans-serif" font-size="13" lengthAdjust="spacingAndGlyphs" textLength="63" x="214.5" y="687.1357">create new</text><polygon fill="#A80036" points="1694.5,718.3438,1704.5,722.3438,1694.5,726.3438,1698.5,722.3438" style="stroke: #A80036; stroke-width: 1.0;"/><line style="stroke: #A80036; stroke-width: 1.0;" x1="1599.5" x2="1700.5" y1="722.3438" y2="722.3438"/><text fill="#000000" font-family="sans-serif" font-size="13" lengthAdjust="spacingAndGlyphs" textLength="63" x="1606.5" y="717.4873">create new</text><polygon fill="#A80036" points="1587.5,748.6953,1597.5,752.6953,1587.5,756.6953,1591.5,752.6953" style="stroke: #A80036; stroke-width: 1.0;"/><line style="stroke: #A80036; stroke-width: 1.0;" x1="207.5" x2="1593.5" y1="752.6953" y2="752.6953"/><text fill="#000000" font-family="sans-serif" font-size="13" lengthAdjust="spacingAndGlyphs" textLength="139" x="214.5" y="747.8389">CallbackClientConnect()</text><polygon fill="#A80036" points="1694.5,779.0469,1704.5,783.0469,1694.5,787.0469,1698.5,783.0469" style="stroke: #A80036; stroke-width: 1.0;"/><line style="stroke: #A80036; stroke-width: 1.0;" x1="1599.5" x2="1700.5" y1="783.0469" y2="783.0469"/><text fill="#000000" font-family="sans-serif" font-size="13" lengthAdjust="spacingAndGlyphs" textLength="76" x="1606.5" y="778.1904">PingService()</text><polygon fill="#A80036" points="1287,809.3984,1277,813.3984,1287,817.3984,1283,813.3984" style="stroke: #A80036; stroke-width: 1.0;"/><line style="stroke: #A80036; stroke-width: 1.0;" x1="1281" x2="1705.5" y1="813.3984" y2="813.3984"/><text fill="#000000" font-family="sans-serif" font-size="13" lengthAdjust="spacingAndGlyphs" textLength="154" x="1293" y="808.542">PingService() RPC request</text><polygon fill="#A80036" points="1694.5,839.75,1704.5,843.75,1694.5,847.75,1698.5,843.75" style="stroke: #A80036; stroke-width: 1.0;"/><line style="stroke: #A80036; stroke-width: 1.0;" x1="1276" x2="1700.5" y1="843.75" y2="843.75"/><text fill="#000000" font-family="sans-serif" font-size="13" lengthAdjust="spacingAndGlyphs" textLength="164" x="1283" y="838.8936">PingService() RPC response</text><polygon fill="#A80036" points="1694.5,870.1016,1704.5,874.1016,1694.5,878.1016,1698.5,874.1016" style="stroke: #A80036; stroke-width: 1.0;"/><line style="stroke: #A80036; stroke-width: 1.0;" x1="1599.5" x2="1700.5" y1="874.1016" y2="874.1016"/><text fill="#000000" font-family="sans-serif" font-size="13" lengthAdjust="spacingAndGlyphs" textLength="66" x="1606.5" y="869.2451">Subscribe()</text><polygon fill="#A80036" points="1287,900.4531,1277,904.4531,1287,908.4531,1283,904.4531" style="stroke: #A80036; stroke-width: 1.0;"/><line style="stroke: #A80036; stroke-width: 1.0;" x1="1281" x2="1705.5" y1="904.4531" y2="904.4531"/><text fill="#000000" font-family="sans-serif" font-size="13" lengthAdjust="spacingAndGlyphs" textLength="144" x="1293" y="899.5967">Subscribe() RPC request</text><polygon fill="#A80036" points="1694.5,930.8047,1704.5,934.8047,1694.5,938.8047,1698.5,934.8047" style="stroke: #A80036; stroke-width: 1.0;"/><line style="stroke: #A80036; stroke-width: 1.0;" x1="1276" x2="1700.5" y1="934.8047" y2="934.8047"/><text fill="#000000" font-family="sans-serif" font-size="13" lengthAdjust="spacingAndGlyphs" textLength="154" x="1283" y="929.9482">Subscribe() RPC response</text><polygon fill="#A80036" points="1493,961.1563,1503,965.1563,1493,969.1563,1497,965.1563" style="stroke: #A80036; stroke-width: 1.0;"/><line style="stroke: #A80036; stroke-width: 1.0;" x1="500.5" x2="1499" y1="965.1563" y2="965.1563"/><text fill="#000000" font-family="sans-serif" font-size="13" lengthAdjust="spacingAndGlyphs" textLength="154" x="507.5" y="960.2998">Subscribe() RPC response</text><!--
@startuml

GameStateMaster -> PubSubService : create new
PubSubService -> ComServiceServer : create new
PubSubService -> ComServiceServer : StartService()
ComServiceServer -> ComService : create new
ComService -> "Master Client Network" : bind to

ClientNetworkScript -> PubSubClient : create new
ClientNetworkScript -> CallbackServiceServer : create new
ClientNetworkScript -> CallbackServiceServer : StartService()
CallbackServiceServer -> CallbackService : create new
CallbackService -> "Client Network" : bind to

PubSubClient -> ComClient : create new

ClientNetworkScript -> PubSubClient : ClientConnect()
PubSubClient -> ComClient : PingService()
ComClient -> ComService : PingService() RPC request
ComService -> ComClient : PingService() RPC response

ClientNetworkScript -> PubSubClient : JoinGame() calls Subscribe()
PubSubClient -> ComClient : Subscribe()
ComClient -> ComService : Subscribe() RPC request
ComService -> PubSubService : Subscribe()
PubSubService -> PubSubService : AddSubscriberToChannel()
PubSubService -> Subscriber : create new
Subscriber -> CallbackClient : create new
PubSubService -> Subscriber : CallbackClientConnect()
Subscriber -> CallbackClient : PingService()
CallbackClient -> CallbackService : PingService() RPC request
CallbackService -> CallbackClient : PingService() RPC response
Subscriber -> CallbackClient : Subscribe()
CallbackClient -> CallbackService : Subscribe() RPC request
CallbackService -> CallbackClient : Subscribe() RPC response
ComService -> ComClient : Subscribe() RPC response

@enduml

PlantUML version 1.2018.03(Thu Apr 05 12:59:15 EDT 2018)
(GPL source distribution)
Java Runtime: Java(TM) SE Runtime Environment
JVM: Java HotSpot(TM) Client VM
Java Version: 1.8.0_161-b12
Operating System: Windows 10
OS Version: 10.0
Default Encoding: Cp1252
Language: en
Country: US
--></g></svg>