<?xml version="1.0" encoding="UTF-8" standalone="no"?><svg xmlns="http://www.w3.org/2000/svg" xmlns:xlink="http://www.w3.org/1999/xlink" contentScriptType="application/ecmascript" contentStyleType="text/css" height="682px" preserveAspectRatio="none" style="width:1398px;height:682px;" version="1.1" viewBox="0 0 1398 682" width="1398px" zoomAndPan="magnify"><defs><filter height="300%" id="f104sekif5rkuy" width="300%" x="-1" y="-1"><feGaussianBlur result="blurOut" stdDeviation="2.0"/><feColorMatrix in="blurOut" result="blurOut2" type="matrix" values="0 0 0 0 0 0 0 0 0 0 0 0 0 0 0 0 0 0 .4 0"/><feOffset dx="4.0" dy="4.0" in="blurOut2" result="blurOut3"/><feBlend in="SourceGraphic" in2="blurOut3" mode="normal"/></filter></defs><g><!--class Subscriber--><rect fill="#FEFECE" filter="url(#f104sekif5rkuy)" height="144.8516" id="Subscriber" style="stroke: #A80036; stroke-width: 1.5;" width="186" x="99.5" y="8"/><ellipse cx="158.25" cy="24" fill="#ADD1B2" rx="11" ry="11" style="stroke: #A80036; stroke-width: 1.0;"/><path d="M161.0156,19.875 Q161.1719,19.6563 161.3594,19.5469 Q161.5469,19.4375 161.7656,19.4375 Q162.1406,19.4375 162.375,19.6953 Q162.6094,19.9531 162.6094,20.5625 L162.6094,22.0156 Q162.6094,22.625 162.375,22.8906 Q162.1406,23.1563 161.7656,23.1563 Q161.4219,23.1563 161.2188,22.9531 Q161.0156,22.7656 160.9063,22.25 Q160.8594,21.8906 160.6719,21.7031 Q160.3438,21.3281 159.7344,21.1094 Q159.125,20.8906 158.5,20.8906 Q157.7344,20.8906 157.1016,21.2188 Q156.4688,21.5469 155.9766,22.2969 Q155.4844,23.0469 155.4844,24.0781 L155.4844,25.1719 Q155.4844,26.4063 156.375,27.2266 Q157.2656,28.0469 158.8594,28.0469 Q159.7969,28.0469 160.4531,27.7969 Q160.8438,27.6406 161.2656,27.2031 Q161.5313,26.9375 161.6797,26.8594 Q161.8281,26.7813 162.0313,26.7813 Q162.3594,26.7813 162.6172,27.0391 Q162.875,27.2969 162.875,27.6406 Q162.875,27.9844 162.5313,28.3906 Q162.0313,28.9688 161.2344,29.2969 Q160.1563,29.75 158.8594,29.75 Q157.3438,29.75 156.1406,29.125 Q155.1563,28.625 154.4688,27.5547 Q153.7813,26.4844 153.7813,25.2031 L153.7813,24.0469 Q153.7813,22.7188 154.3984,21.5703 Q155.0156,20.4219 156.1094,19.8047 Q157.2031,19.1875 158.4375,19.1875 Q159.1719,19.1875 159.8203,19.3516 Q160.4688,19.5156 161.0156,19.875 Z "/><text fill="#000000" font-family="sans-serif" font-size="12" lengthAdjust="spacingAndGlyphs" textLength="60" x="178.75" y="28.9102">Subscriber</text><line style="stroke: #A80036; stroke-width: 1.5;" x1="100.5" x2="284.5" y1="40" y2="40"/><rect fill="none" height="6" style="stroke: #C82930; stroke-width: 1.0;" width="6" x="107.5" y="49.418"/><text fill="#000000" font-family="sans-serif" font-size="11" lengthAdjust="spacingAndGlyphs" textLength="46" x="119.5" y="55.4189">string URI</text><rect fill="none" height="6" style="stroke: #C82930; stroke-width: 1.0;" width="6" x="107.5" y="63.2539"/><text fill="#000000" font-family="sans-serif" font-size="11" lengthAdjust="spacingAndGlyphs" textLength="87" x="119.5" y="69.2549">string playerName</text><line style="stroke: #A80036; stroke-width: 1.5;" x1="100.5" x2="284.5" y1="75.6719" y2="75.6719"/><ellipse cx="110.5" cy="88.0898" fill="#84BE84" rx="3" ry="3" style="stroke: #038048; stroke-width: 1.0;"/><text fill="#000000" font-family="sans-serif" font-size="11" lengthAdjust="spacingAndGlyphs" textLength="71" x="119.5" y="91.0908">string GetURI()</text><ellipse cx="110.5" cy="101.9258" fill="#84BE84" rx="3" ry="3" style="stroke: #038048; stroke-width: 1.0;"/><text fill="#000000" font-family="sans-serif" font-size="11" lengthAdjust="spacingAndGlyphs" textLength="112" x="119.5" y="104.9268">string GetPlayerName()</text><ellipse cx="110.5" cy="115.7617" fill="#84BE84" rx="3" ry="3" style="stroke: #038048; stroke-width: 1.0;"/><text fill="#000000" font-family="sans-serif" font-size="11" lengthAdjust="spacingAndGlyphs" textLength="160" x="119.5" y="118.7627">CallbackClient GetCallbackClient()</text><ellipse cx="110.5" cy="129.5977" fill="#84BE84" rx="3" ry="3" style="stroke: #038048; stroke-width: 1.0;"/><text fill="#000000" font-family="sans-serif" font-size="11" lengthAdjust="spacingAndGlyphs" textLength="137" x="119.5" y="132.5986">void CallbackClientConnect()</text><ellipse cx="110.5" cy="143.4336" fill="#84BE84" rx="3" ry="3" style="stroke: #038048; stroke-width: 1.0;"/><text fill="#000000" font-family="sans-serif" font-size="11" lengthAdjust="spacingAndGlyphs" textLength="103" x="119.5" y="146.4346">bool PublishToClient()</text><!--class CallbackClient--><rect fill="#FEFECE" filter="url(#f104sekif5rkuy)" height="75.6719" id="CallbackClient" style="stroke: #A80036; stroke-width: 1.5;" width="373" x="6" y="254.5"/><ellipse cx="148.25" cy="270.5" fill="#ADD1B2" rx="11" ry="11" style="stroke: #A80036; stroke-width: 1.0;"/><path d="M151.0156,266.375 Q151.1719,266.1563 151.3594,266.0469 Q151.5469,265.9375 151.7656,265.9375 Q152.1406,265.9375 152.375,266.1953 Q152.6094,266.4531 152.6094,267.0625 L152.6094,268.5156 Q152.6094,269.125 152.375,269.3906 Q152.1406,269.6563 151.7656,269.6563 Q151.4219,269.6563 151.2188,269.4531 Q151.0156,269.2656 150.9063,268.75 Q150.8594,268.3906 150.6719,268.2031 Q150.3438,267.8281 149.7344,267.6094 Q149.125,267.3906 148.5,267.3906 Q147.7344,267.3906 147.1016,267.7188 Q146.4688,268.0469 145.9766,268.7969 Q145.4844,269.5469 145.4844,270.5781 L145.4844,271.6719 Q145.4844,272.9063 146.375,273.7266 Q147.2656,274.5469 148.8594,274.5469 Q149.7969,274.5469 150.4531,274.2969 Q150.8438,274.1406 151.2656,273.7031 Q151.5313,273.4375 151.6797,273.3594 Q151.8281,273.2813 152.0313,273.2813 Q152.3594,273.2813 152.6172,273.5391 Q152.875,273.7969 152.875,274.1406 Q152.875,274.4844 152.5313,274.8906 Q152.0313,275.4688 151.2344,275.7969 Q150.1563,276.25 148.8594,276.25 Q147.3438,276.25 146.1406,275.625 Q145.1563,275.125 144.4688,274.0547 Q143.7813,272.9844 143.7813,271.7031 L143.7813,270.5469 Q143.7813,269.2188 144.3984,268.0703 Q145.0156,266.9219 146.1094,266.3047 Q147.2031,265.6875 148.4375,265.6875 Q149.1719,265.6875 149.8203,265.8516 Q150.4688,266.0156 151.0156,266.375 Z "/><text fill="#000000" font-family="sans-serif" font-size="12" lengthAdjust="spacingAndGlyphs" textLength="80" x="168.75" y="275.4102">CallbackClient</text><line style="stroke: #A80036; stroke-width: 1.5;" x1="7" x2="378" y1="286.5" y2="286.5"/><line style="stroke: #A80036; stroke-width: 1.5;" x1="7" x2="378" y1="294.5" y2="294.5"/><ellipse cx="17" cy="306.918" fill="#84BE84" rx="3" ry="3" style="stroke: #038048; stroke-width: 1.0;"/><text fill="#000000" font-family="sans-serif" font-size="11" font-style="italic" lengthAdjust="spacingAndGlyphs" textLength="183" x="26" y="309.9189">PingReply PingService(PingRequest)</text><ellipse cx="17" cy="320.7539" fill="#84BE84" rx="3" ry="3" style="stroke: #038048; stroke-width: 1.0;"/><text fill="#000000" font-family="sans-serif" font-size="11" font-style="italic" lengthAdjust="spacingAndGlyphs" textLength="347" x="26" y="323.7549">GameStateUpdateReply GameStateUpdate(GameStateUpdateRequest)</text><!--class PubSubService--><rect fill="#FEFECE" filter="url(#f104sekif5rkuy)" height="158.6875" id="PubSubService" style="stroke: #A80036; stroke-width: 1.5;" width="201" x="414" y="213"/><ellipse cx="468.25" cy="229" fill="#ADD1B2" rx="11" ry="11" style="stroke: #A80036; stroke-width: 1.0;"/><path d="M471.0156,224.875 Q471.1719,224.6563 471.3594,224.5469 Q471.5469,224.4375 471.7656,224.4375 Q472.1406,224.4375 472.375,224.6953 Q472.6094,224.9531 472.6094,225.5625 L472.6094,227.0156 Q472.6094,227.625 472.375,227.8906 Q472.1406,228.1563 471.7656,228.1563 Q471.4219,228.1563 471.2188,227.9531 Q471.0156,227.7656 470.9063,227.25 Q470.8594,226.8906 470.6719,226.7031 Q470.3438,226.3281 469.7344,226.1094 Q469.125,225.8906 468.5,225.8906 Q467.7344,225.8906 467.1016,226.2188 Q466.4688,226.5469 465.9766,227.2969 Q465.4844,228.0469 465.4844,229.0781 L465.4844,230.1719 Q465.4844,231.4063 466.375,232.2266 Q467.2656,233.0469 468.8594,233.0469 Q469.7969,233.0469 470.4531,232.7969 Q470.8438,232.6406 471.2656,232.2031 Q471.5313,231.9375 471.6797,231.8594 Q471.8281,231.7813 472.0313,231.7813 Q472.3594,231.7813 472.6172,232.0391 Q472.875,232.2969 472.875,232.6406 Q472.875,232.9844 472.5313,233.3906 Q472.0313,233.9688 471.2344,234.2969 Q470.1563,234.75 468.8594,234.75 Q467.3438,234.75 466.1406,234.125 Q465.1563,233.625 464.4688,232.5547 Q463.7813,231.4844 463.7813,230.2031 L463.7813,229.0469 Q463.7813,227.7188 464.3984,226.5703 Q465.0156,225.4219 466.1094,224.8047 Q467.2031,224.1875 468.4375,224.1875 Q469.1719,224.1875 469.8203,224.3516 Q470.4688,224.5156 471.0156,224.875 Z "/><text fill="#000000" font-family="sans-serif" font-size="12" lengthAdjust="spacingAndGlyphs" textLength="84" x="488.75" y="233.9102">PubSubService</text><line style="stroke: #A80036; stroke-width: 1.5;" x1="415" x2="614" y1="245" y2="245"/><rect fill="none" height="6" style="stroke: #C82930; stroke-width: 1.0;" width="6" x="422" y="254.418"/><text fill="#000000" font-family="sans-serif" font-size="11" lengthAdjust="spacingAndGlyphs" textLength="129" x="434" y="260.4189">List&lt;string&gt; clientChannels</text><rect fill="none" height="6" style="stroke: #C82930; stroke-width: 1.0;" width="6" x="422" y="268.2539"/><text fill="#000000" font-family="sans-serif" font-size="11" lengthAdjust="spacingAndGlyphs" textLength="175" x="434" y="274.2549">Dictionary&lt;string, List&lt;Subscriber&gt;&gt;</text><line style="stroke: #A80036; stroke-width: 1.5;" x1="415" x2="614" y1="280.6719" y2="280.6719"/><rect fill="#F24D5C" height="6" style="stroke: #C82930; stroke-width: 1.0;" width="6" x="422" y="290.0898"/><text fill="#000000" font-family="sans-serif" font-size="11" lengthAdjust="spacingAndGlyphs" textLength="155" x="434" y="296.0908">void AddSubscriberToChannel()</text><ellipse cx="425" cy="306.9258" fill="#84BE84" rx="3" ry="3" style="stroke: #038048; stroke-width: 1.0;"/><text fill="#000000" font-family="sans-serif" font-size="11" lengthAdjust="spacingAndGlyphs" textLength="102" x="434" y="309.9268">void CreateChannel()</text><ellipse cx="425" cy="320.7617" fill="#84BE84" rx="3" ry="3" style="stroke: #038048; stroke-width: 1.0;"/><text fill="#000000" font-family="sans-serif" font-size="11" lengthAdjust="spacingAndGlyphs" textLength="80" x="434" y="323.7627">bool Subscribe()</text><ellipse cx="425" cy="334.5977" fill="#84BE84" rx="3" ry="3" style="stroke: #038048; stroke-width: 1.0;"/><text fill="#000000" font-family="sans-serif" font-size="11" lengthAdjust="spacingAndGlyphs" textLength="92" x="434" y="337.5986">bool Unsubscribe()</text><ellipse cx="425" cy="348.4336" fill="#84BE84" rx="3" ry="3" style="stroke: #038048; stroke-width: 1.0;"/><text fill="#000000" font-family="sans-serif" font-size="11" lengthAdjust="spacingAndGlyphs" textLength="152" x="434" y="351.4346">bool PublishGameStateUpdate()</text><ellipse cx="425" cy="362.2695" fill="#84BE84" rx="3" ry="3" style="stroke: #038048; stroke-width: 1.0;"/><text fill="#000000" font-family="sans-serif" font-size="11" lengthAdjust="spacingAndGlyphs" textLength="156" x="434" y="365.2705">bool ProcessClientStateUpdate()</text><!--class GameStateMaster--><rect fill="#FEFECE" filter="url(#f104sekif5rkuy)" height="61.8359" id="GameStateMaster" style="stroke: #A80036; stroke-width: 1.5;" width="182" x="423.5" y="49.5"/><ellipse cx="461.45" cy="65.5" fill="#ADD1B2" rx="11" ry="11" style="stroke: #A80036; stroke-width: 1.0;"/><path d="M464.2156,61.375 Q464.3719,61.1563 464.5594,61.0469 Q464.7469,60.9375 464.9656,60.9375 Q465.3406,60.9375 465.575,61.1953 Q465.8094,61.4531 465.8094,62.0625 L465.8094,63.5156 Q465.8094,64.125 465.575,64.3906 Q465.3406,64.6563 464.9656,64.6563 Q464.6219,64.6563 464.4188,64.4531 Q464.2156,64.2656 464.1063,63.75 Q464.0594,63.3906 463.8719,63.2031 Q463.5438,62.8281 462.9344,62.6094 Q462.325,62.3906 461.7,62.3906 Q460.9344,62.3906 460.3016,62.7188 Q459.6688,63.0469 459.1766,63.7969 Q458.6844,64.5469 458.6844,65.5781 L458.6844,66.6719 Q458.6844,67.9063 459.575,68.7266 Q460.4656,69.5469 462.0594,69.5469 Q462.9969,69.5469 463.6531,69.2969 Q464.0438,69.1406 464.4656,68.7031 Q464.7313,68.4375 464.8797,68.3594 Q465.0281,68.2813 465.2313,68.2813 Q465.5594,68.2813 465.8172,68.5391 Q466.075,68.7969 466.075,69.1406 Q466.075,69.4844 465.7313,69.8906 Q465.2313,70.4688 464.4344,70.7969 Q463.3563,71.25 462.0594,71.25 Q460.5438,71.25 459.3406,70.625 Q458.3563,70.125 457.6688,69.0547 Q456.9813,67.9844 456.9813,66.7031 L456.9813,65.5469 Q456.9813,64.2188 457.5984,63.0703 Q458.2156,61.9219 459.3094,61.3047 Q460.4031,60.6875 461.6375,60.6875 Q462.3719,60.6875 463.0203,60.8516 Q463.6688,61.0156 464.2156,61.375 Z "/><text fill="#000000" font-family="sans-serif" font-size="12" lengthAdjust="spacingAndGlyphs" textLength="99" x="480.55" y="70.4102">GameStateMaster</text><line style="stroke: #A80036; stroke-width: 1.5;" x1="424.5" x2="604.5" y1="81.5" y2="81.5"/><line style="stroke: #A80036; stroke-width: 1.5;" x1="424.5" x2="604.5" y1="89.5" y2="89.5"/><ellipse cx="434.5" cy="101.918" fill="#84BE84" rx="3" ry="3" style="stroke: #038048; stroke-width: 1.0;"/><text fill="#000000" font-family="sans-serif" font-size="11" lengthAdjust="spacingAndGlyphs" textLength="156" x="443.5" y="104.9189">bool ProcessClientStateUpdate()</text><!--class ComServiceServer--><rect fill="#FEFECE" filter="url(#f104sekif5rkuy)" height="75.6719" id="ComServiceServer" style="stroke: #A80036; stroke-width: 1.5;" width="134" x="447.5" y="439"/><ellipse cx="462.5" cy="455" fill="#ADD1B2" rx="11" ry="11" style="stroke: #A80036; stroke-width: 1.0;"/><path d="M465.2656,450.875 Q465.4219,450.6563 465.6094,450.5469 Q465.7969,450.4375 466.0156,450.4375 Q466.3906,450.4375 466.625,450.6953 Q466.8594,450.9531 466.8594,451.5625 L466.8594,453.0156 Q466.8594,453.625 466.625,453.8906 Q466.3906,454.1563 466.0156,454.1563 Q465.6719,454.1563 465.4688,453.9531 Q465.2656,453.7656 465.1563,453.25 Q465.1094,452.8906 464.9219,452.7031 Q464.5938,452.3281 463.9844,452.1094 Q463.375,451.8906 462.75,451.8906 Q461.9844,451.8906 461.3516,452.2188 Q460.7188,452.5469 460.2266,453.2969 Q459.7344,454.0469 459.7344,455.0781 L459.7344,456.1719 Q459.7344,457.4063 460.625,458.2266 Q461.5156,459.0469 463.1094,459.0469 Q464.0469,459.0469 464.7031,458.7969 Q465.0938,458.6406 465.5156,458.2031 Q465.7813,457.9375 465.9297,457.8594 Q466.0781,457.7813 466.2813,457.7813 Q466.6094,457.7813 466.8672,458.0391 Q467.125,458.2969 467.125,458.6406 Q467.125,458.9844 466.7813,459.3906 Q466.2813,459.9688 465.4844,460.2969 Q464.4063,460.75 463.1094,460.75 Q461.5938,460.75 460.3906,460.125 Q459.4063,459.625 458.7188,458.5547 Q458.0313,457.4844 458.0313,456.2031 L458.0313,455.0469 Q458.0313,453.7188 458.6484,452.5703 Q459.2656,451.4219 460.3594,450.8047 Q461.4531,450.1875 462.6875,450.1875 Q463.4219,450.1875 464.0703,450.3516 Q464.7188,450.5156 465.2656,450.875 Z "/><text fill="#000000" font-family="sans-serif" font-size="12" lengthAdjust="spacingAndGlyphs" textLength="102" x="476.5" y="459.9102">ComServiceServer</text><line style="stroke: #A80036; stroke-width: 1.5;" x1="448.5" x2="580.5" y1="471" y2="471"/><line style="stroke: #A80036; stroke-width: 1.5;" x1="448.5" x2="580.5" y1="479" y2="479"/><ellipse cx="458.5" cy="491.418" fill="#84BE84" rx="3" ry="3" style="stroke: #038048; stroke-width: 1.0;"/><text fill="#000000" font-family="sans-serif" font-size="11" lengthAdjust="spacingAndGlyphs" textLength="91" x="467.5" y="494.4189">void StartService()</text><ellipse cx="458.5" cy="505.2539" fill="#84BE84" rx="3" ry="3" style="stroke: #038048; stroke-width: 1.0;"/><text fill="#000000" font-family="sans-serif" font-size="11" lengthAdjust="spacingAndGlyphs" textLength="90" x="467.5" y="508.2549">void StopService()</text><!--class ClientNetworkScript--><rect fill="#FEFECE" filter="url(#f104sekif5rkuy)" height="75.6719" id="ClientNetworkScript" style="stroke: #A80036; stroke-width: 1.5;" width="140" x="979.5" y="42.5"/><ellipse cx="994.5" cy="58.5" fill="#ADD1B2" rx="11" ry="11" style="stroke: #A80036; stroke-width: 1.0;"/><path d="M997.2656,54.375 Q997.4219,54.1563 997.6094,54.0469 Q997.7969,53.9375 998.0156,53.9375 Q998.3906,53.9375 998.625,54.1953 Q998.8594,54.4531 998.8594,55.0625 L998.8594,56.5156 Q998.8594,57.125 998.625,57.3906 Q998.3906,57.6563 998.0156,57.6563 Q997.6719,57.6563 997.4688,57.4531 Q997.2656,57.2656 997.1563,56.75 Q997.1094,56.3906 996.9219,56.2031 Q996.5938,55.8281 995.9844,55.6094 Q995.375,55.3906 994.75,55.3906 Q993.9844,55.3906 993.3516,55.7188 Q992.7188,56.0469 992.2266,56.7969 Q991.7344,57.5469 991.7344,58.5781 L991.7344,59.6719 Q991.7344,60.9063 992.625,61.7266 Q993.5156,62.5469 995.1094,62.5469 Q996.0469,62.5469 996.7031,62.2969 Q997.0938,62.1406 997.5156,61.7031 Q997.7813,61.4375 997.9297,61.3594 Q998.0781,61.2813 998.2813,61.2813 Q998.6094,61.2813 998.8672,61.5391 Q999.125,61.7969 999.125,62.1406 Q999.125,62.4844 998.7813,62.8906 Q998.2813,63.4688 997.4844,63.7969 Q996.4063,64.25 995.1094,64.25 Q993.5938,64.25 992.3906,63.625 Q991.4063,63.125 990.7188,62.0547 Q990.0313,60.9844 990.0313,59.7031 L990.0313,58.5469 Q990.0313,57.2188 990.6484,56.0703 Q991.2656,54.9219 992.3594,54.3047 Q993.4531,53.6875 994.6875,53.6875 Q995.4219,53.6875 996.0703,53.8516 Q996.7188,54.0156 997.2656,54.375 Z "/><text fill="#000000" font-family="sans-serif" font-size="12" lengthAdjust="spacingAndGlyphs" textLength="108" x="1008.5" y="63.4102">ClientNetworkScript</text><line style="stroke: #A80036; stroke-width: 1.5;" x1="980.5" x2="1118.5" y1="74.5" y2="74.5"/><line style="stroke: #A80036; stroke-width: 1.5;" x1="980.5" x2="1118.5" y1="82.5" y2="82.5"/><ellipse cx="990.5" cy="94.918" fill="#84BE84" rx="3" ry="3" style="stroke: #038048; stroke-width: 1.0;"/><text fill="#000000" font-family="sans-serif" font-size="11" lengthAdjust="spacingAndGlyphs" textLength="78" x="999.5" y="97.9189">void JoinGame()</text><ellipse cx="990.5" cy="108.7539" fill="#84BE84" rx="3" ry="3" style="stroke: #038048; stroke-width: 1.0;"/><text fill="#000000" font-family="sans-serif" font-size="11" lengthAdjust="spacingAndGlyphs" textLength="101" x="999.5" y="111.7549">bool SendDeckSize()</text><!--class PubSubClient--><rect fill="#FEFECE" filter="url(#f104sekif5rkuy)" height="103.3438" id="PubSubClient" style="stroke: #A80036; stroke-width: 1.5;" width="167" x="811" y="241"/><ellipse cx="852.55" cy="257" fill="#ADD1B2" rx="11" ry="11" style="stroke: #A80036; stroke-width: 1.0;"/><path d="M855.3156,252.875 Q855.4719,252.6563 855.6594,252.5469 Q855.8469,252.4375 856.0656,252.4375 Q856.4406,252.4375 856.675,252.6953 Q856.9094,252.9531 856.9094,253.5625 L856.9094,255.0156 Q856.9094,255.625 856.675,255.8906 Q856.4406,256.1563 856.0656,256.1563 Q855.7219,256.1563 855.5188,255.9531 Q855.3156,255.7656 855.2063,255.25 Q855.1594,254.8906 854.9719,254.7031 Q854.6438,254.3281 854.0344,254.1094 Q853.425,253.8906 852.8,253.8906 Q852.0344,253.8906 851.4016,254.2188 Q850.7688,254.5469 850.2766,255.2969 Q849.7844,256.0469 849.7844,257.0781 L849.7844,258.1719 Q849.7844,259.4063 850.675,260.2266 Q851.5656,261.0469 853.1594,261.0469 Q854.0969,261.0469 854.7531,260.7969 Q855.1438,260.6406 855.5656,260.2031 Q855.8313,259.9375 855.9797,259.8594 Q856.1281,259.7813 856.3313,259.7813 Q856.6594,259.7813 856.9172,260.0391 Q857.175,260.2969 857.175,260.6406 Q857.175,260.9844 856.8313,261.3906 Q856.3313,261.9688 855.5344,262.2969 Q854.4563,262.75 853.1594,262.75 Q851.6438,262.75 850.4406,262.125 Q849.4563,261.625 848.7688,260.5547 Q848.0813,259.4844 848.0813,258.2031 L848.0813,257.0469 Q848.0813,255.7188 848.6984,254.5703 Q849.3156,253.4219 850.4094,252.8047 Q851.5031,252.1875 852.7375,252.1875 Q853.4719,252.1875 854.1203,252.3516 Q854.7688,252.5156 855.3156,252.875 Z "/><text fill="#000000" font-family="sans-serif" font-size="12" lengthAdjust="spacingAndGlyphs" textLength="76" x="872.45" y="261.9102">PubSubClient</text><line style="stroke: #A80036; stroke-width: 1.5;" x1="812" x2="977" y1="273" y2="273"/><line style="stroke: #A80036; stroke-width: 1.5;" x1="812" x2="977" y1="281" y2="281"/><ellipse cx="822" cy="293.418" fill="#84BE84" rx="3" ry="3" style="stroke: #038048; stroke-width: 1.0;"/><text fill="#000000" font-family="sans-serif" font-size="11" lengthAdjust="spacingAndGlyphs" textLength="97" x="831" y="296.4189">bool ClientConnect()</text><ellipse cx="822" cy="307.2539" fill="#84BE84" rx="3" ry="3" style="stroke: #038048; stroke-width: 1.0;"/><text fill="#000000" font-family="sans-serif" font-size="11" lengthAdjust="spacingAndGlyphs" textLength="80" x="831" y="310.2549">bool Subscribe()</text><ellipse cx="822" cy="321.0898" fill="#84BE84" rx="3" ry="3" style="stroke: #038048; stroke-width: 1.0;"/><text fill="#000000" font-family="sans-serif" font-size="11" lengthAdjust="spacingAndGlyphs" textLength="92" x="831" y="324.0908">bool Unsubscribe()</text><ellipse cx="822" cy="334.9258" fill="#84BE84" rx="3" ry="3" style="stroke: #038048; stroke-width: 1.0;"/><text fill="#000000" font-family="sans-serif" font-size="11" lengthAdjust="spacingAndGlyphs" textLength="141" x="831" y="337.9268">bool SendClientStateUpdate()</text><!--class ComClient--><rect fill="#FEFECE" filter="url(#f104sekif5rkuy)" height="89.5078" id="ComClient" style="stroke: #A80036; stroke-width: 1.5;" width="370" x="616.5" y="432"/><ellipse cx="767.75" cy="448" fill="#ADD1B2" rx="11" ry="11" style="stroke: #A80036; stroke-width: 1.0;"/><path d="M770.5156,443.875 Q770.6719,443.6563 770.8594,443.5469 Q771.0469,443.4375 771.2656,443.4375 Q771.6406,443.4375 771.875,443.6953 Q772.1094,443.9531 772.1094,444.5625 L772.1094,446.0156 Q772.1094,446.625 771.875,446.8906 Q771.6406,447.1563 771.2656,447.1563 Q770.9219,447.1563 770.7188,446.9531 Q770.5156,446.7656 770.4063,446.25 Q770.3594,445.8906 770.1719,445.7031 Q769.8438,445.3281 769.2344,445.1094 Q768.625,444.8906 768,444.8906 Q767.2344,444.8906 766.6016,445.2188 Q765.9688,445.5469 765.4766,446.2969 Q764.9844,447.0469 764.9844,448.0781 L764.9844,449.1719 Q764.9844,450.4063 765.875,451.2266 Q766.7656,452.0469 768.3594,452.0469 Q769.2969,452.0469 769.9531,451.7969 Q770.3438,451.6406 770.7656,451.2031 Q771.0313,450.9375 771.1797,450.8594 Q771.3281,450.7813 771.5313,450.7813 Q771.8594,450.7813 772.1172,451.0391 Q772.375,451.2969 772.375,451.6406 Q772.375,451.9844 772.0313,452.3906 Q771.5313,452.9688 770.7344,453.2969 Q769.6563,453.75 768.3594,453.75 Q766.8438,453.75 765.6406,453.125 Q764.6563,452.625 763.9688,451.5547 Q763.2813,450.4844 763.2813,449.2031 L763.2813,448.0469 Q763.2813,446.7188 763.8984,445.5703 Q764.5156,444.4219 765.6094,443.8047 Q766.7031,443.1875 767.9375,443.1875 Q768.6719,443.1875 769.3203,443.3516 Q769.9688,443.5156 770.5156,443.875 Z "/><text fill="#000000" font-family="sans-serif" font-size="12" lengthAdjust="spacingAndGlyphs" textLength="59" x="788.25" y="452.9102">ComClient</text><line style="stroke: #A80036; stroke-width: 1.5;" x1="617.5" x2="985.5" y1="464" y2="464"/><line style="stroke: #A80036; stroke-width: 1.5;" x1="617.5" x2="985.5" y1="472" y2="472"/><ellipse cx="627.5" cy="484.418" fill="#84BE84" rx="3" ry="3" style="stroke: #038048; stroke-width: 1.0;"/><text fill="#000000" font-family="sans-serif" font-size="11" font-style="italic" lengthAdjust="spacingAndGlyphs" textLength="183" x="636.5" y="487.4189">PingReply PingService(PingRequest)</text><ellipse cx="627.5" cy="498.2539" fill="#84BE84" rx="3" ry="3" style="stroke: #038048; stroke-width: 1.0;"/><text fill="#000000" font-family="sans-serif" font-size="11" font-style="italic" lengthAdjust="spacingAndGlyphs" textLength="236" x="636.5" y="501.2549">SubscribeReply Subscribe(SubscribeRequest)</text><ellipse cx="627.5" cy="512.0898" fill="#84BE84" rx="3" ry="3" style="stroke: #038048; stroke-width: 1.0;"/><text fill="#000000" font-family="sans-serif" font-size="11" font-style="italic" lengthAdjust="spacingAndGlyphs" textLength="344" x="636.5" y="515.0908">ClientStateUpdateReply ClientStateUpdate(ClientStateUpdateRequest)</text><!--class CallbackServiceServer--><rect fill="#FEFECE" filter="url(#f104sekif5rkuy)" height="89.5078" id="CallbackServiceServer" style="stroke: #A80036; stroke-width: 1.5;" width="196" x="1060.5" y="247.5"/><ellipse cx="1093.95" cy="263.5" fill="#ADD1B2" rx="11" ry="11" style="stroke: #A80036; stroke-width: 1.0;"/><path d="M1096.7156,259.375 Q1096.8719,259.1563 1097.0594,259.0469 Q1097.2469,258.9375 1097.4656,258.9375 Q1097.8406,258.9375 1098.075,259.1953 Q1098.3094,259.4531 1098.3094,260.0625 L1098.3094,261.5156 Q1098.3094,262.125 1098.075,262.3906 Q1097.8406,262.6563 1097.4656,262.6563 Q1097.1219,262.6563 1096.9188,262.4531 Q1096.7156,262.2656 1096.6063,261.75 Q1096.5594,261.3906 1096.3719,261.2031 Q1096.0438,260.8281 1095.4344,260.6094 Q1094.825,260.3906 1094.2,260.3906 Q1093.4344,260.3906 1092.8016,260.7188 Q1092.1688,261.0469 1091.6766,261.7969 Q1091.1844,262.5469 1091.1844,263.5781 L1091.1844,264.6719 Q1091.1844,265.9063 1092.075,266.7266 Q1092.9656,267.5469 1094.5594,267.5469 Q1095.4969,267.5469 1096.1531,267.2969 Q1096.5438,267.1406 1096.9656,266.7031 Q1097.2313,266.4375 1097.3797,266.3594 Q1097.5281,266.2813 1097.7313,266.2813 Q1098.0594,266.2813 1098.3172,266.5391 Q1098.575,266.7969 1098.575,267.1406 Q1098.575,267.4844 1098.2313,267.8906 Q1097.7313,268.4688 1096.9344,268.7969 Q1095.8563,269.25 1094.5594,269.25 Q1093.0438,269.25 1091.8406,268.625 Q1090.8563,268.125 1090.1688,267.0547 Q1089.4813,265.9844 1089.4813,264.7031 L1089.4813,263.5469 Q1089.4813,262.2188 1090.0984,261.0703 Q1090.7156,259.9219 1091.8094,259.3047 Q1092.9031,258.6875 1094.1375,258.6875 Q1094.8719,258.6875 1095.5203,258.8516 Q1096.1688,259.0156 1096.7156,259.375 Z "/><text fill="#000000" font-family="sans-serif" font-size="12" lengthAdjust="spacingAndGlyphs" textLength="123" x="1112.05" y="268.4102">CallbackServiceServer</text><line style="stroke: #A80036; stroke-width: 1.5;" x1="1061.5" x2="1255.5" y1="279.5" y2="279.5"/><line style="stroke: #A80036; stroke-width: 1.5;" x1="1061.5" x2="1255.5" y1="287.5" y2="287.5"/><ellipse cx="1071.5" cy="299.918" fill="#84BE84" rx="3" ry="3" style="stroke: #038048; stroke-width: 1.0;"/><text fill="#000000" font-family="sans-serif" font-size="11" lengthAdjust="spacingAndGlyphs" textLength="91" x="1080.5" y="302.9189">void StartService()</text><ellipse cx="1071.5" cy="313.7539" fill="#84BE84" rx="3" ry="3" style="stroke: #038048; stroke-width: 1.0;"/><text fill="#000000" font-family="sans-serif" font-size="11" lengthAdjust="spacingAndGlyphs" textLength="90" x="1080.5" y="316.7549">void StopService()</text><ellipse cx="1071.5" cy="327.5898" fill="#84BE84" rx="3" ry="3" style="stroke: #038048; stroke-width: 1.0;"/><text fill="#000000" font-family="sans-serif" font-size="11" lengthAdjust="spacingAndGlyphs" textLength="170" x="1080.5" y="330.5908">bool UpdateClientGameStateView()</text><!--class CallbackService--><rect fill="#FEFECE" filter="url(#f104sekif5rkuy)" height="75.6719" id="CallbackService" style="stroke: #A80036; stroke-width: 1.5;" width="365" x="1022" y="439"/><ellipse cx="1156.25" cy="455" fill="#ADD1B2" rx="11" ry="11" style="stroke: #A80036; stroke-width: 1.0;"/><path d="M1159.0156,450.875 Q1159.1719,450.6563 1159.3594,450.5469 Q1159.5469,450.4375 1159.7656,450.4375 Q1160.1406,450.4375 1160.375,450.6953 Q1160.6094,450.9531 1160.6094,451.5625 L1160.6094,453.0156 Q1160.6094,453.625 1160.375,453.8906 Q1160.1406,454.1563 1159.7656,454.1563 Q1159.4219,454.1563 1159.2188,453.9531 Q1159.0156,453.7656 1158.9063,453.25 Q1158.8594,452.8906 1158.6719,452.7031 Q1158.3438,452.3281 1157.7344,452.1094 Q1157.125,451.8906 1156.5,451.8906 Q1155.7344,451.8906 1155.1016,452.2188 Q1154.4688,452.5469 1153.9766,453.2969 Q1153.4844,454.0469 1153.4844,455.0781 L1153.4844,456.1719 Q1153.4844,457.4063 1154.375,458.2266 Q1155.2656,459.0469 1156.8594,459.0469 Q1157.7969,459.0469 1158.4531,458.7969 Q1158.8438,458.6406 1159.2656,458.2031 Q1159.5313,457.9375 1159.6797,457.8594 Q1159.8281,457.7813 1160.0313,457.7813 Q1160.3594,457.7813 1160.6172,458.0391 Q1160.875,458.2969 1160.875,458.6406 Q1160.875,458.9844 1160.5313,459.3906 Q1160.0313,459.9688 1159.2344,460.2969 Q1158.1563,460.75 1156.8594,460.75 Q1155.3438,460.75 1154.1406,460.125 Q1153.1563,459.625 1152.4688,458.5547 Q1151.7813,457.4844 1151.7813,456.2031 L1151.7813,455.0469 Q1151.7813,453.7188 1152.3984,452.5703 Q1153.0156,451.4219 1154.1094,450.8047 Q1155.2031,450.1875 1156.4375,450.1875 Q1157.1719,450.1875 1157.8203,450.3516 Q1158.4688,450.5156 1159.0156,450.875 Z "/><text fill="#000000" font-family="sans-serif" font-size="12" lengthAdjust="spacingAndGlyphs" textLength="88" x="1176.75" y="459.9102">CallbackService</text><line style="stroke: #A80036; stroke-width: 1.5;" x1="1023" x2="1386" y1="471" y2="471"/><line style="stroke: #A80036; stroke-width: 1.5;" x1="1023" x2="1386" y1="479" y2="479"/><ellipse cx="1033" cy="491.418" fill="#84BE84" rx="3" ry="3" style="stroke: #038048; stroke-width: 1.0;"/><text fill="#000000" font-family="sans-serif" font-size="11" lengthAdjust="spacingAndGlyphs" textLength="175" x="1042" y="494.4189">PingReply PingService(PingRequest)</text><ellipse cx="1033" cy="505.2539" fill="#84BE84" rx="3" ry="3" style="stroke: #038048; stroke-width: 1.0;"/><text fill="#000000" font-family="sans-serif" font-size="11" lengthAdjust="spacingAndGlyphs" textLength="339" x="1042" y="508.2549">GameStateUpdateReply GameStateUpdate(GameStateUpdateRequest)</text><!--class ComService--><rect fill="#FEFECE" filter="url(#f104sekif5rkuy)" height="89.5078" id="ComService" style="stroke: #A80036; stroke-width: 1.5;" width="359" x="335" y="582"/><ellipse cx="476.75" cy="598" fill="#ADD1B2" rx="11" ry="11" style="stroke: #A80036; stroke-width: 1.0;"/><path d="M479.5156,593.875 Q479.6719,593.6563 479.8594,593.5469 Q480.0469,593.4375 480.2656,593.4375 Q480.6406,593.4375 480.875,593.6953 Q481.1094,593.9531 481.1094,594.5625 L481.1094,596.0156 Q481.1094,596.625 480.875,596.8906 Q480.6406,597.1563 480.2656,597.1563 Q479.9219,597.1563 479.7188,596.9531 Q479.5156,596.7656 479.4063,596.25 Q479.3594,595.8906 479.1719,595.7031 Q478.8438,595.3281 478.2344,595.1094 Q477.625,594.8906 477,594.8906 Q476.2344,594.8906 475.6016,595.2188 Q474.9688,595.5469 474.4766,596.2969 Q473.9844,597.0469 473.9844,598.0781 L473.9844,599.1719 Q473.9844,600.4063 474.875,601.2266 Q475.7656,602.0469 477.3594,602.0469 Q478.2969,602.0469 478.9531,601.7969 Q479.3438,601.6406 479.7656,601.2031 Q480.0313,600.9375 480.1797,600.8594 Q480.3281,600.7813 480.5313,600.7813 Q480.8594,600.7813 481.1172,601.0391 Q481.375,601.2969 481.375,601.6406 Q481.375,601.9844 481.0313,602.3906 Q480.5313,602.9688 479.7344,603.2969 Q478.6563,603.75 477.3594,603.75 Q475.8438,603.75 474.6406,603.125 Q473.6563,602.625 472.9688,601.5547 Q472.2813,600.4844 472.2813,599.2031 L472.2813,598.0469 Q472.2813,596.7188 472.8984,595.5703 Q473.5156,594.4219 474.6094,593.8047 Q475.7031,593.1875 476.9375,593.1875 Q477.6719,593.1875 478.3203,593.3516 Q478.9688,593.5156 479.5156,593.875 Z "/><text fill="#000000" font-family="sans-serif" font-size="12" lengthAdjust="spacingAndGlyphs" textLength="67" x="497.25" y="602.9102">ComService</text><line style="stroke: #A80036; stroke-width: 1.5;" x1="336" x2="693" y1="614" y2="614"/><line style="stroke: #A80036; stroke-width: 1.5;" x1="336" x2="693" y1="622" y2="622"/><ellipse cx="346" cy="634.418" fill="#84BE84" rx="3" ry="3" style="stroke: #038048; stroke-width: 1.0;"/><text fill="#000000" font-family="sans-serif" font-size="11" lengthAdjust="spacingAndGlyphs" textLength="175" x="355" y="637.4189">PingReply PingService(PingRequest)</text><ellipse cx="346" cy="648.2539" fill="#84BE84" rx="3" ry="3" style="stroke: #038048; stroke-width: 1.0;"/><text fill="#000000" font-family="sans-serif" font-size="11" lengthAdjust="spacingAndGlyphs" textLength="225" x="355" y="651.2549">SubscribeReply Subscribe(SubscribeRequest)</text><ellipse cx="346" cy="662.0898" fill="#84BE84" rx="3" ry="3" style="stroke: #038048; stroke-width: 1.0;"/><text fill="#000000" font-family="sans-serif" font-size="11" lengthAdjust="spacingAndGlyphs" textLength="333" x="355" y="665.0908">ClientStateUpdateReply ClientStateUpdate(ClientStateUpdateRequest)</text><!--link Subscriber to CallbackClient--><path d="M192.5,166.548 C192.5,197.079 192.5,229.946 192.5,254.306 " fill="none" id="Subscriber-CallbackClient" style="stroke: #A80036; stroke-width: 1.0;"/><polygon fill="#A80036" points="192.5,153.183,188.5,159.183,192.5,165.183,196.5,159.183,192.5,153.183" style="stroke: #A80036; stroke-width: 1.0;"/><!--link GameStateMaster to PubSubService--><path d="M514.5,124.875 C514.5,150.294 514.5,183.169 514.5,212.993 " fill="none" id="GameStateMaster-PubSubService" style="stroke: #A80036; stroke-width: 1.0;"/><polygon fill="#A80036" points="514.5,111.588,510.5,117.588,514.5,123.588,518.5,117.588,514.5,111.588" style="stroke: #A80036; stroke-width: 1.0;"/><!--link PubSubService to ComServiceServer--><path d="M514.5,385.32 C514.5,404.291 514.5,423.23 514.5,438.855 " fill="none" id="PubSubService-ComServiceServer" style="stroke: #A80036; stroke-width: 1.0;"/><polygon fill="#A80036" points="514.5,372.221,510.5,378.221,514.5,384.221,518.5,378.221,514.5,372.221" style="stroke: #A80036; stroke-width: 1.0;"/><!--link ClientNetworkScript to PubSubClient--><path d="M1014.16,129.375 C989.645,162.593 957.032,206.779 932.046,240.631 " fill="none" id="ClientNetworkScript-PubSubClient" style="stroke: #A80036; stroke-width: 1.0;"/><polygon fill="#A80036" points="1022.15,118.56,1015.3699,121.0158,1015.0291,128.2188,1021.8092,125.763,1022.15,118.56" style="stroke: #A80036; stroke-width: 1.0;"/><!--link PubSubClient to ComClient--><path d="M862.683,355.938 C849.943,380.936 835.566,409.15 823.951,431.944 " fill="none" id="PubSubClient-ComClient" style="stroke: #A80036; stroke-width: 1.0;"/><polygon fill="#A80036" points="868.594,344.336,862.3058,347.8656,863.1453,355.0277,869.4335,351.4981,868.594,344.336" style="stroke: #A80036; stroke-width: 1.0;"/><!--link ClientNetworkScript to CallbackServiceServer--><path d="M1074.93,130.503 C1093.25,165.787 1117.75,212.998 1135.49,247.164 " fill="none" id="ClientNetworkScript-CallbackServiceServer" style="stroke: #A80036; stroke-width: 1.0;"/><polygon fill="#A80036" points="1068.74,118.56,1067.9562,125.7284,1074.2717,129.209,1075.0555,122.0406,1068.74,118.56" style="stroke: #A80036; stroke-width: 1.0;"/><!--link CallbackServiceServer to CallbackService--><path d="M1172.87,350.513 C1180.15,379.378 1188.77,413.588 1195.17,438.993 " fill="none" id="CallbackServiceServer-CallbackService" style="stroke: #A80036; stroke-width: 1.0;"/><polygon fill="#A80036" points="1169.64,337.678,1167.2284,344.4739,1172.574,349.3138,1174.9856,342.5179,1169.64,337.678" style="stroke: #A80036; stroke-width: 1.0;"/><!--link ComServiceServer to ComService--><path d="M514.5,528.448 C514.5,545.776 514.5,565.029 514.5,581.8206 " fill="none" id="ComServiceServer-ComService" style="stroke: #A80036; stroke-width: 1.0;"/><polygon fill="#A80036" points="514.5,515.347,510.5,521.347,514.5,527.347,518.5,521.347,514.5,515.347" style="stroke: #A80036; stroke-width: 1.0;"/><!--
@startuml

class Subscriber {
	- string URI
	- string playerName

	+ string GetURI()
	+ string GetPlayerName()
	+ CallbackClient GetCallbackClient()
	+ void CallbackClientConnect()
	+ bool PublishToClient()
}

Subscriber *- - CallbackClient

class PubSubService {
	- List<string> clientChannels
	- Dictionary<string, List<Subscriber>>

	- void AddSubscriberToChannel()
	+ void CreateChannel()
	+ bool Subscribe()
	+ bool Unsubscribe()
	+ bool PublishGameStateUpdate()
	+ bool ProcessClientStateUpdate()
}

GameStateMaster *- - PubSubService
PubSubService *- - ComServiceServer

ClientNetworkScript *- - PubSubClient
PubSubClient *- - ComClient
ClientNetworkScript *- - CallbackServiceServer
CallbackServiceServer *- - CallbackService

class GameStateMaster {
	+ bool ProcessClientStateUpdate()
}

class ClientNetworkScript {
	+ void JoinGame()
	+ bool SendDeckSize()
}

class PubSubClient {
	+ bool ClientConnect()
	+ bool Subscribe()
	+ bool Unsubscribe()
	+ bool SendClientStateUpdate()
}

class ComClient {
	+ //PingReply PingService(PingRequest)//
	+ //SubscribeReply Subscribe(SubscribeRequest)//
	+ //ClientStateUpdateReply ClientStateUpdate(ClientStateUpdateRequest)//
}

class ComServiceServer {
	+ void StartService()
	+ void StopService()
}

class ComService {
	+ PingReply PingService(PingRequest)
	+ SubscribeReply Subscribe(SubscribeRequest)
	+ ClientStateUpdateReply ClientStateUpdate(ClientStateUpdateRequest)
}

ComServiceServer *- - ComService


class CallbackServiceServer {
	+ void StartService()
	+ void StopService()
	+ bool UpdateClientGameStateView()
}

class CallbackService {
	+ PingReply PingService(PingRequest)
	+ GameStateUpdateReply GameStateUpdate(GameStateUpdateRequest)
}

class CallbackClient {
	+ //PingReply PingService(PingRequest)//
	+ //GameStateUpdateReply GameStateUpdate(GameStateUpdateRequest)//
}

@enduml

PlantUML version 1.2018.03(Thu Apr 05 12:59:15 EDT 2018)
(GPL source distribution)
Java Runtime: Java(TM) SE Runtime Environment
JVM: Java HotSpot(TM) Client VM
Java Version: 1.8.0_161-b12
Operating System: Windows 10
OS Version: 10.0
Default Encoding: Cp1252
Language: en
Country: US
--></g></svg>